<svg xmlns="http://www.w3.org/2000/svg" viewBox="0 0 119.08 80.41">
	<path
		fill="#fff"
		d="M103.4 33.88c-14.63-.47-14-22.56.88-22.34 15.14.46 13.94 22.33-.88 22.34ZM33.81 12.72C32.65 27 9.45 24.56 11.36 9.46c1.98-13.15 23.17-13.08 22.45 3.26ZM119.08 45.2c.2 5-8 17.15-12.49 21.71l-7.83-6.51-12.49 14.71c-4.89-3.34-8.26-8-12.93-11.61L61 80.41c-3.08-5.69-6-11.06-9.1-16.81L39.25 76.94C36.07 70 33 63.32 29.75 56.27L16 68.6c-1.59-6.51-3.07-12.59-4.63-19l-6.2 4.73C2.74 49 1.63 43.46 0 37.1 31.8 68 81.79 62.33 119.08 45.2Z" />
</svg>