<svg xmlns="http://www.w3.org/2000/svg" viewBox="0 0 481.21 479.49"><defs><style>.cls-1{fill:#131312}.cls-3{fill:#ba5027}.cls-11{fill:#ac4025}.cls-27{fill:#e1d0a8}.cls-28{fill:#ead8ab}.cls-29{fill:#e0ac5e}.cls-30{fill:#f7f2df}.cls-31{fill:#db6b28}.cls-32{fill:#e0ad5e}.cls-33{fill:#e0ac5d}.cls-34{fill:#f8f0db}.cls-35{fill:#c87b2b}.cls-37{fill:#c87c2b}.cls-38{fill:#ba4f27}.cls-40{fill:#ab4025}.cls-41{fill:#c97c2b}.cls-42{fill:#ca7d2b}.cls-47{fill:#87481f}.cls-50{fill:#c77b2b}.cls-52{fill:#a25c26}.cls-53{fill:#f7e9aa}.cls-55{fill:#94341f}.cls-57{fill:#cb7e2c}.cls-60{fill:#a25b26}.cls-61{fill:#93341f}.cls-64{fill:#e1ad5e}.cls-65{fill:#95351f}.cls-66{fill:#e1ac5d}.cls-72{fill:#a35d26}.cls-75{fill:#dc6c29}.cls-78{fill:#a15b26}.cls-85{fill:#c97d2c}.cls-94{fill:#c87d2c}.cls-102{fill:#f2daa9}.cls-107{fill:#f1e3c7}.cls-108{fill:#82a241}.cls-119{fill:#a45d26}.cls-145{fill:#e7cd9e}.cls-165{fill:#aa3e25}.cls-166{fill:#ab3f26}.cls-168{fill:#ebdaac}.cls-195{fill:#80a041}</style></defs><g id="Layer_2" data-name="Layer 2"><g id="Layer_2-2" data-name="Layer 2"><path class="cls-1" d="M385 12.77c7.81-4.66 16.14-8.34 24.2-12.53a1.87 1.87 0 0 1 2.21.3 10.57 10.57 0 0 1 3.49 3.82c2.13 4 1.4 6.41-2.63 8.42Q377 30.45 341.71 48.05 314.38 61.7 287 75.27c-2 1-2.27 1.82-.85 3.4A70.31 70.31 0 0 1 297.08 96c.73 1.54 1.28 2.18 3.41 1.77 18-3.52 36-6.79 54-10.11 1.57-.29 2.72-.67 2.13-2.72a4.81 4.81 0 0 1 .39-3 3.45 3.45 0 0 0-.34-3.77c-2.06-2.37-1.3-4.71.23-7 .62-.92 1.6-1.59 1.73-2.83.34-3.41 2.08-5.6 5.51-6.41 1.26-.29 1.46-1.48 1.77-2.59.62-2.14 2.11-3.35 4.36-2.87a3.29 3.29 0 0 0 2.64-.33c4.18-3.52 8.91-.43 13.29-1.23.28 0 .8 0 .87.17 2 4.58 9.19 4.33 9.55 10.34.08 1.39 1.29 1.42 2.06 2a4.82 4.82 0 0 1 2.19 5.56c-.79 3.2 1.2 5.4 4.4 4.8 13.34-2.53 26.66-5.13 40-7.68q15.3-2.92 30.63-5.79a3.58 3.58 0 0 1 1.53 0c2 .55 4 5.18 3.75 8.56-.25 4-1.13 5-4.4 5.53-8.05 1.33-16.09 2.72-24.13 4.09-1.19-3.49-.85-7.15-1.17-10.73 3-2 6.64-1.85 10-2.58 4.09-.88 8.24-1.6 12.38-2.3Q344.25 91.28 214.66 116c18.64-3.54 37.3-7 55.93-10.57q24.81-4.77 49.62-9.46l57.18-10.86c14.52-2.75 29-5.48 43.55-8.31 6.84-1.33 13.72-2.45 20.54-3.91a3.37 3.37 0 0 1 2.41.24c2.37 3.09 2.3 6.64 1.93 10.25-7.81 1.42-15.62 2.86-23.43 4.24-7.23 1.27-14.51 2.27-21.66 3.84-2.57.56-5.44 1.56-6.09 5.13a3.23 3.23 0 0 1-4.45 2.54c-1.82-.6-2.92.15-4.11 1.18-1.61 1.39-3.37 2-5.36.83a3.71 3.71 0 0 0-4.06.1c-1.9 1.16-3.55.63-5-.84-2.5-2.61-5.26-3.12-8.9-2.45-19.35 3.53-38.75 6.76-58.13 10.07-2.05.36-3.33.65-2.65 3.54s.84 4.43 4.34 5.05c10.43 1.86 12 15.42 6.51 21.84-3.2 3.77-6.86 6-12.05 4.86a2.65 2.65 0 0 0-3.27 1.63c-5.57 14-15.81 23.91-28.17 32-3.89 2.54-6.66 6.37-9.92 9.64C248 198.11 237 210 227.12 223a38 38 0 0 0-2.8 4.36c-.25.45-1 .89-.38 1.78a79.22 79.22 0 0 1 6.81-4.42c1.78-.94 3.89-3.29 5.85-.67 1.78 2.4.64 6.67-2 8.09a36 36 0 0 0-10 8.11 36.6 36.6 0 0 0-9.27 22.53c-.35 5.7 3.26 9.78 6.61 13.8a29.9 29.9 0 0 0 10.53 7.8c4.14 1.93 8.25.56 12.24-.4 6.29-1.51 11.15-5.3 15.1-10.41 7.09-9.2 11.33-19.8 15.45-30.5.56-1.44-.31-1.52-1-2-6.4-4.77-11.93-10.23-14.89-17.88a25.49 25.49 0 0 1-2.13-9.48c.06-4.84 2.58-8.15 6.82-10.45a47.27 47.27 0 0 1 21.5-5.46c4-.13 6.89-.65 8.87-5 2.68-5.91 7.46-10.52 12.54-14.59 1.38-1.11 2.15-1.57.74-3.37a4.58 4.58 0 0 1 .17-5.5 3.43 3.43 0 0 1 4.71-.86c4.48 2.67 8.74 2 12.91-.54 1-.61 2.3-.07 3.3-1.29-1.46-.77-2.95-.32-4.35-.44-1.65-.15-3.65.48-3.76-2.34-.14-3.28.69-4.55 3.52-5.07 7.65-1.4 14.77.67 21.81 3.22a25.23 25.23 0 0 1 4.39 2.17c2.67 1.6 4.79 2.91 8.5 1.25s6.66 2.11 9.5 4.35c1.38 1.1 2.55 2.41 4.77 1.82-1.31-2-3.48-2.73-5.14-4.08s-4.26-2-2.37-4.92a5.31 5.31 0 0 1 7.29-1.84 42.32 42.32 0 0 1 12.16 11.15 87.62 87.62 0 0 1 10.35 17.28c.27.64.62 1.57 1.13 1.73 3.66 1.17 5.91 4.76 9.74 5.57a3.34 3.34 0 0 1 1.64.7c4.11 4.14 8.43 8.12 12.11 12.61a46.88 46.88 0 0 1 4.38 6.08 126.22 126.22 0 0 1 7.66 15.07c1 2.49 1.15 5.27 3.1 7.48 3.82 4.32 8.17 7.68 13.89 9.06 1.1.26 2.36.88 3.13 0s0-1.93-.46-2.87c-.66-1.42-1.81-2.93.22-4.21a3.55 3.55 0 0 1 5.32 1.29c1.91 4.1 5.32 7.7 4.39 12.92a19.48 19.48 0 0 0 1.39 10.84c1.06 2.6.35 5.5.35 8.26 0 1.8.18 2.94 2.27 3.62a10 10 0 0 1 6.82 7.76c2.36 12.82 3.6 25.76 2.21 38.82a1.79 1.79 0 0 1-2.18 0c-1-1.25-.65-2.73-.7-4.14-.18-5.1.33-10.22-.3-15.3-.82-2.88-1.17-3.08-3.65-1.85a47.17 47.17 0 0 0-5.33 3.36c-2.69 1.83-2.2 4.83-3 7.38-3.59 4-8.57 5.8-13.05 8.38-3.35 1.93-6.92 3.49-10.36 5.29a292.96 292.96 0 0 1-26.57 10.85 531.21 531.21 0 0 1-94.38 24.18c-1.83.3-3.71.18-5.48.81-8.17.92-16.28 2.22-24.48 3-20.35 1.89-40.66 2.88-60.84-1.57a2.65 2.65 0 0 0-1.22-.05 3.09 3.09 0 0 1-2 .25 47.91 47.91 0 0 1-6-13c-.53-1.76-1-1.71-2.49-1.23a44.61 44.61 0 0 0-20.48 14.1c-15.79 19.36-35.78 32.68-58.57 42.18a160.64 160.64 0 0 1-42.11 11 149.69 149.69 0 0 1-67.13-6.67c-3.79-1.32-3.78-1.35-2.41-5.14 1.77-4.92 1.81-5 6.63-3.46 12.51 4 25.26 6.66 38.45 6.8a7.63 7.63 0 0 0 2.44-.27c-4.8-.4-9.58-.91-14.33-1.61-17.15-2.54-33.3-7.57-47-18.74a45.13 45.13 0 0 1-7.28-8c-1.3-1.72-1.57-3 .91-3.89 1.91-.7 3.67-2.51 5.51-2.53 2 0 2.6 2.77 4 4.16 8.23 8.1 18.34 12.77 29.22 16 14.79 4.35 30 4.95 45.29 5.14 27.65.34 51.41-9.92 73.25-25.75a62.58 62.58 0 0 0 11.22-10.41c-.11-.69-.62-.5-.95-.59-9.23-2.58-9.12-9.51-4.08-15.41a61.57 61.57 0 0 1 12.06-10.41c1.92-1.33 3.64-2.68 1.52-5.45-1.41-1.83.32-3.07 1.87-3.73a51.34 51.34 0 0 1 12.89-4c-6.7-2.6-15.35-2.76-23.93-.92-16.66 3.56-29.85 12.73-40.88 25.42-3 3.41-5.67 7-8.5 10.54-1.76 2.19-2.5 4.87-4 7.15-.73 1.08 0 2.38.37 3.53.77 2.12.33 3.87-1.67 5a5.87 5.87 0 0 0-3.26 5.48c0 1.9-1.16 2.89-3 3.3-2.55.57-4.94 1.51-6.57 3.67a4.09 4.09 0 0 1-4.45 1.37c-3.54-1.26-6.47.29-9.64 1.1-15.33 3.92-30 .89-44.26-4.71-3.67-1.43-7.16-3.34-10.75-5-1.29-.59-2.06-1-.87-2.6 1.46-1.93 2.16-5.13 4-5.9s4.3 1.71 6.53 2.65c9.33 3.93 18.83 7.21 29.07 7.64.87 0 1.8.38 2.73-.17-.27-1.77-1.51-2.53-3-3a4.86 4.86 0 0 1-3.57-5.08 8.62 8.62 0 0 0-1.83-5.67c-1.51-2-1.56-3.79.43-5.66a5.61 5.61 0 0 0 1.78-6.1 2.53 2.53 0 0 1 1.49-3.31 5.32 5.32 0 0 0 3.56-4.9 3.11 3.11 0 0 1 3.11-3.17 4.1 4.1 0 0 0 3.63-2.82 3.2 3.2 0 0 1 3.53-2.27 20.11 20.11 0 0 0 7.58-.8A6 6 0 0 1 97 339.5a5.93 5.93 0 0 0 4.85 1.23 3.81 3.81 0 0 1 4.65 3 4.59 4.59 0 0 0 3.38 3.53 6.26 6.26 0 0 1 4.13 4c7.93-10.7 16.85-20.06 27.82-27.37-4.76 1.37-9.28 3.37-14.09 4.48-8.29 1.93-16.49 2.88-24.39-1.49-3.3-1.83-3.15-1.68-.9-4.42s4.16-4.08 8.38-2.64c7.55 2.6 15.05-.15 22.31-2.7 4.9-1.73 9.39-4.41 14.2-6.3 14.65-5.76 29.33-4.9 43.92.24 3.25 1.15 6.34 2.74 9.5 4.13a.53.53 0 0 1-.13.82 2.26 2.26 0 0 1-.9.32c-5.57-1.43-11.23-2.78-17-2.74a72.57 72.57 0 0 0-39 11.76c-10 6.38-18.15 14.75-25.55 23.92-.77.9-1.44 1.88-2.17 2.82q-5.59 7.67-10.67 15.71c-8.11 12.95-20.35 17-34.84 16a54.57 54.57 0 0 1-9.4-1.48 100.18 100.18 0 0 1-21.1-7.53c-1-.52-2.1-1.48-3.41-.58-.88 1-1.69 1.93-1.43 3.36 3.53 3 7.94 4.25 12.1 5.92a70 70 0 0 0 35.1 4.56c12.64-1.56 22.22-8.19 28.81-19.11a151 151 0 0 1 14.17-19.86c8.27-9.72 17.51-18.37 29.33-23.68 8.71-3.92 17.8-6.5 27.49-6.26a42.52 42.52 0 0 1 11.21 1.77 34.74 34.74 0 0 0 12.19 1.3 19.57 19.57 0 0 1 7.83 1.32c-1.86-1.19-4.49-1.21-5.32-3.8.53-.95 1.26-.75 2-.34 4.82 1.86 8.33 6 13.39 7.54a3.51 3.51 0 0 0 3.61-.41c3.34-2.48 6.8-4.8 10.21-7.18a4.29 4.29 0 0 0 .56-1.11c1.27-1.6 3.08-2.45 4.79-3.42 3.36-2.32 7.19-3.45 11.31-4.37a5 5 0 0 0-1.86-2.42c-3.65-3.61-7.22-7.31-11-10.84a6.85 6.85 0 0 0-5.5-2.21c-2.26.18-4.46-.56-6.95-.6 1.12 2.72 3.62 4.45 4.08 7.28-.6 2.4-2.18 1.73-3.53 1a36.2 36.2 0 0 1-5.08-3.92 20.67 20.67 0 0 0-9.94-4.48c-1.23-.2-2.55-.41-3.33.84s0 2.14.57 3.12c.47.77 1.15 1.51.53 2.51-2.22-1.58-4.81-3.37-3.44-6.41s4.24-2.74 7.19-2.14c5.26 1.06 9.35 4.06 13.41 7.26-2.09-3.8-5.32-6-9.27-7.72-17.48-7.74-29.46-20.58-35-39.08a41.48 41.48 0 0 1-1.82-16.37c.18-1.69-.38-4.39 2.47-4.52 3.63-.16 6.73 2.48 6.65 5.25-.14 5.22-.44 10.47 1.38 15.52.22.61.17 1.43 1.06 1.82.47-17.45 6.8-32.84 16.47-46.93 6.29-9.16 14.5-16.76 21.65-25.22 8.06-9.54 17-18.45 23.2-29.42 6.05-10.7 8.09-22.12 5.07-34.26-.55-2.22-1.65-2.73-3.69-2.36q-20.46 3.66-40.94 7.27c-4.19.74-6.24-.42-6.76-3.72-.48-3.07 1.27-4.83 5.4-5.5.81-.13 1.59-.43 2.39-.58l37.21-7.09a32.48 32.48 0 0 0-11.18-8.84c-.93-.47-1.59.25-2.28.59q-16.28 8-32.5 16c-1.23.6-2.44 1.31-2.72 2.72-.7 3.5-3.57 3.9-5.93 3.22-2.61-.74-4 .68-6.05 1.45 3.42 4.38 7.7 7.08 12.19 9.56 1.44.8 3.93 1.25 3 3.75-1.17 3.08-4.14 4.42-6.76 3.31a33.41 33.41 0 0 1-9.05-5.75c-.94 1.4.07 2.37.34 3.3.9 3.06-.89 6-4 6.17-1.3.09-1.76-.92-2.22-1.82a32.75 32.75 0 0 1-4-13.12c-3.07 1.5-5.94 2.88-8.79 4.32-1.57.79-3.37 1.46-4.12-.64-.61-1.73-1.62-4 1-5.38 2.14-1.13 4.29-2.24 7.09-3.69-3.58.19-5.63 2.38-8.5 2.57 3-1.5 5.89-3.07 8.9-4.47 1.91-.89 2.49-1.81 1.62-4-6.68-16.77 2.12-36.71 13.67-46.17 6.28-5.15 13-9.22 21-10.58 7.31-1.24 14.26-4.3 21.84-4.13A62.36 62.36 0 0 1 274 67.35a3.8 3.8 0 0 0 4.7.38c7.5-3.91 15-7.82 22.59-11.59a3.78 3.78 0 0 0 2.11-3.4c.58-5.91 5.62-8.66 10-3.8 1 1.08 1.85-.24 2.64-.65Q338.43 36.7 360.82 25q9.09-4.72 18.2-9.42a2.24 2.24 0 0 1-.27 2.28c-4.71 3.32-10 5.57-15.1 8.23-15.19 8-30.48 15.74-45.63 23.78-1 .52-2 .88-3 1.43q17.4-8.91 34.72-18c9.09-4.69 18.26-9.3 27.32-14.14a3.7 3.7 0 0 1 2.32-.72c2.09.46 2.76 2.21 3.49 3.9.55 1.26.71 2.86 2.91 1.88 3.15-1.41 3.92-2.31 3.33-4.52-.46-1.75-2.13-3.05-1.87-5.06a3.68 3.68 0 0 1 2-1.79c6.06-3.22 12.22-6.27 17.07-8.92-4.83 2.52-10.83 5.68-16.87 8.77-1.17.6-2.24 1.51-3.71 1.11a1.27 1.27 0 0 1-.73-1.04Z"/><path d="m472.81 323.75 2 .05a179.76 179.76 0 0 1-10.94 56.28 120.1 120.1 0 0 1-19.74 34.43 121.84 121.84 0 0 1-12.45 13.43c.81.36 1.45.66 2.09.93 7.25 3.06 9.09 8.7 5.14 16-3.19 5.9-8.11 10.28-13.49 14.08-14.21 10.05-30.06 16-47.21 18.77-13.37 2.21-26.63 2.72-39.88-.66a37.92 37.92 0 0 1-7.15-2.6c-6.78-3.27-8.52-7.44-6.05-14.6a80.05 80.05 0 0 1-24.88-8c-10.76-5.74-20.15-13.34-29-21.62-13.33-12.5-25.62-25.95-36-41a192.89 192.89 0 0 1-14-24.74l1.21-.56c1.27-.25 1.46.86 1.81 1.59.94 2 2.16 3.83 3.17 5.78a22.46 22.46 0 0 0 1.72 3.3c.31.46.59.92.86 1.4a21.83 21.83 0 0 0 1.83 3.18 6.48 6.48 0 0 0 6.19 3.7c.9.05 1.71.47 2.6.54a6.63 6.63 0 0 1 1.83.26c1.39.38 2.84.22 4.24.46a49.82 49.82 0 0 0 5.3.54c1.15.05 2.25.42 3.38.57a18.91 18.91 0 0 1 3 0 14.12 14.12 0 0 1 3.11.5q6.88-.29 13.77 0a20.27 20.27 0 0 1 2.7 0 10.29 10.29 0 0 1 2.66 0 21.77 21.77 0 0 1 3.7 0c1.92-.25 3.86-.09 5.78-.18 1.56 0 3-.7 4.63-.42a15 15 0 0 1 3.07-.05 12.11 12.11 0 0 0 4.44-.39c4.92-1.85 10.08-1.67 15.21-1.78a20.59 20.59 0 0 1 2.92-.35 13.52 13.52 0 0 1 3.34-.58 17.5 17.5 0 0 1 3.81-.61 72.6 72.6 0 0 1 7.6-1.28c1.53-.36 3.07-.68 4.6-1a32.8 32.8 0 0 1 3.68-.73c.94-.1 1.79-.6 2.75-.67a35.52 35.52 0 0 0 7.65-2.87c2.94-1.62 6.42-.52 9.55-1.41 1.2-.31 2.29-.95 3.51-1.2 1.28-.45 2.67-.51 3.92-1.06 1.42-.53 3-.67 4.35-1.26 3.2-1.05 6.43-2 9.64-3 1.28-.37 2.56-.78 3.82-1.23 1.3-.28 2.46-1 3.73-1.35.88-.17 1.71-.54 2.58-.74 4.48-2.73 9.53-3.9 14.5-5.26a17.06 17.06 0 0 0 3.24-1.28c1-.51 2.16-.82 3.23-1.26 1.23-.39 2.41-.91 3.6-1.41 2.81-1.14 5.61-2.31 8.33-3.66 1.05-.45 2.06-1 3.15-1.36a21.82 21.82 0 0 0 3.4-1.58 22.52 22.52 0 0 0 3-1.43c3.11-2.92 7-4.44 10.87-5.84a19.35 19.35 0 0 0 2.58-1.38c.83-.54 1.69-1 2.55-1.52 1.31-1 2.9-1.52 4-2.82 1.29-1.39 1.38-3.12 1.39-4.86q.06-6.72 0-13.43a9.94 9.94 0 0 1 .45-3.3c.06-6.15 4.23-11.07 10.42-12.49 2.37-.54 2.66.73 2.58 2.52a87.31 87.31 0 0 1 .14 13.91c-.09 2.27-.77 4.52.47 6.6Z" style="fill:#030303"/><path class="cls-3" d="M212 300.71c0-1-.9-1.57-1.53-2.21a3.27 3.27 0 0 1-.78-3.95c.81-1.51 2.37-1.77 4-1.46a25.2 25.2 0 0 1 12.1 5.68 55.36 55.36 0 0 0 4.36 3.4c.82.57 1.94 1.27 2.11-.65.53-3 2-4 4.6-2.92a17.57 17.57 0 0 1 8.78 8.2c1.14 2.15.21 4.16-.89 6.08a24.12 24.12 0 0 1-2 2.71l-4.89 3.26c-1.7-7.06-7.2-10.53-13-13.66a71.4 71.4 0 0 0-8.68-3.82 6.91 6.91 0 0 0-3.89-.51h-.2Z"/><path d="M296.22 20.82c-3.8-3.41-6.52-4.09-9.86-1.76-8.55 6-14.74 13.77-17.87 23.84a3.66 3.66 0 0 0 .7 4 12.36 12.36 0 0 0 7.46 3.7 12.06 12.06 0 0 0 8.06-3.38 53.23 53.23 0 0 0 13.16-18c1.74-3.78 1.34-5.7-1.65-8.4Zm-6.16 4.79c-2.78 6.78-7 11.69-11.84 16.26.18-4.97 5.09-11.82 11.84-16.26Z" style="fill:#080c07"/><path d="M49.2 337.54c-1.54-2-3.52-1.74-5.51-.9A56.91 56.91 0 0 0 31 343.81c-.84.65-1.58 1.36-3 .58a7.56 7.56 0 0 0-4.52 1.6c-3.83 2.48-3.93 3.14-.59 6.16a2.1 2.1 0 0 1 .52 1c1.45 3.73 4.14 5.07 7.94 3.88 7.19-2.26 13-6.73 18.31-11.86 1.69-1.63 1.34-5.17-.46-7.63Zm-5.42 6-11.46 7.88c2.83-3.96 6.86-6.29 11.46-7.84Z" style="fill:#0c1109"/><path d="M200 173.31c-6.73-4.7-14.45-6.46-22.46-7-2.39-.17-5.11.3-5.33 3.7-.23 3.55.47 7 3.67 8.88 6.7 3.95 13.9 6.65 21.79 7a22.58 22.58 0 0 0 3.08 0c1.48-.2 2.94-.75 3.11-2.46.38-3.99-.37-7.68-3.86-10.12Zm-3.65 4.63c-1.55 1.26-3.13.23-4.63-.07-4.6-.91-9.14-2-13-4.87a32.61 32.61 0 0 1 17.62 4.94Z" style="fill:#0b1009"/><path d="M462.25 182.64a3.59 3.59 0 0 0-4.9 1.14c-5.52 6.95-9.82 14.52-11.07 23.47-.52 3.76 1 5.27 5 5.25 2.32.37 3.89-1.16 5.27-2.83a47.93 47.93 0 0 0 5.75-8.67 61.6 61.6 0 0 0 4.18-11.12c.85-2.88-.62-5.28-4.23-7.24Zm-1.94 8.47-6.26 13.36c.43-5.25 3.01-9.47 6.26-13.36Z" style="fill:#0b0e08"/><path d="M422.29 170.66c-.05 1.48-1 3.57.5 4.22 1.34.57 3.12-.64 4.46-1.66.25-.19.42-.52.69-.61 5-1.65 9.85-3.41 13.64-7.45.78-.84 3-.54 4.47-1.35 1-.55 1.31.43 1.46 1.34.43 2.6-.36 5.07-2.58 6.08-5.28 2.42-8.72 7-13 10.54-7.35 6-19.68 4.53-22.25-7.4-1.35-6.23 3.43-16.41 11.09-16.34 1.9 0 3.64-1.22 5.64-1.32a9.39 9.39 0 0 1 6.5 2.07 3.63 3.63 0 0 1 1.19 4.89 20.5 20.5 0 0 0-1.42 3.36c-.75 2.68-2.53 3.23-5 2.68a.66.66 0 0 1 .07-.77c1.69-1 3.18-2.2 3.47-4.35A5.3 5.3 0 0 1 432 163c.59-2.52-.41-3.89-3.32-4.56-6.37-1.46-15.39 3.92-17.2 10.26a11 11 0 0 0 12.35 14.06c2.53-.4 4.4-2.21 6.66-3.17 3.09-1.63 6.15-3.27 8.18-6.33 1.06-1.6 3.1-1.95 4.59-3 .87-.64 2.29-1.37 1.62-2.57s-2-.53-3 0a18.5 18.5 0 0 0-4.06 2.78c-1.48 1.43-3.41 1.82-5.34 2.19s-3.56.92-2 3.38a1.21 1.21 0 0 1-.13 1.18 1.25 1.25 0 0 1-.81.26c-2-1.22-3.65-2.23-5.84.1-1.77 1.88-2.54-1.52-4.33-1.63-1.19-.07-.32-1.47.19-2.17a1.93 1.93 0 0 0 .15-2.5c-.55-.79-1.66-1.81-.51-2.61s2 .34 2.86 1.12a1.84 1.84 0 0 1 .23.87Z" style="fill:#2f1d13"/><path d="M241.58 247.36c-1.57-2.82-4.24-3.66-7.29-3.34-2.84.31-3.07 2.77-3.41 4.79-1.07 6.34 1 12.11 3.9 17.58 1 1.87 3.18 2.09 5.2 1.56 3.58-.93 5-3.17 5-8a27.18 27.18 0 0 0-3.4-12.59Zm-2.42 14c-1.69-3.35-2.08-5.6-1.76-10.14a20.33 20.33 0 0 1 1.76 10.12Z" style="fill:#0e100a"/><path d="M201.89 305.1c10.66 1.22 20.71 3.7 27.46 12.91.34.47 1 .82.53 1.55-.35.55-.84.42-1.35.23-7-2.64-14.53-2.76-21.81-4-4.09-.69-6.57-3.71-9.8-5.61-.84-.5-.67-1.75 0-2.49a7.75 7.75 0 0 1 4.97-2.59Z" style="fill:#1d150e"/><path class="cls-11" d="M451.84 71.82a15.16 15.16 0 0 1 .83 10.62l-6.85 1c-1.78-1.83-.4-4.31-1.3-6.37a16.11 16.11 0 0 1-.74-3.59 8.24 8.24 0 0 1 8.06-1.66Z"/><path d="M212.33 300.86a2.07 2.07 0 0 1 2.65-.92c7.08 2.76 14.15 5.56 19.7 11 2.16 2.14 3.86 4.54 3.23 7.87l-.6.52c-2.81-7.68-8.8-11.91-16-14.74-3.06-1.14-6.26-1.85-8.98-3.73Z" style="fill:#8f351f"/><path d="M158.8 344.14a4.87 4.87 0 0 1-1.71 3.66 101.36 101.36 0 0 1-11.38 9.72c-.91.72-2 1.36-3.07.59s-1-1.91-.64-3.28c1.76-6.27 5.56-10.52 11.85-12.35 3.01-.87 5 .1 4.95 1.66Z" style="fill:#18100a"/><path d="M436.94 221.12a3.07 3.07 0 0 1 4.36-3c5.43 1.93 8.9 6 11 11.18.86 2.09-.4 3.24-2.45 2.27a48.12 48.12 0 0 1-12.09-8.1 2.71 2.71 0 0 1-.82-2.35Z" style="fill:#20160e"/><path d="M324.19 153.78c-5.43 0-6.72-2.14-4.6-5.63a19.58 19.58 0 0 1 4.47-5c3-2.47 7.08-.8 8.74 2.37.87 1.66.07 3.09-1 4.15-2.52 2.38-5.45 3.94-7.61 4.11Z" style="fill:#221c10"/><path d="M196.79 297.8a13.81 13.81 0 0 1-8.28-1.88c-1.38-.81-2.25-1.85-1.85-3.47s1.74-2 3.06-2a16.41 16.41 0 0 1 11.52 3.82c.74.61 1.79 1.26 1.35 2.5-.49 1.41-1.79 1-2.86 1.07-.82-.02-1.64-.04-2.94-.04Z" style="fill:#1b1009"/><path d="M175.4 300c-6.45 0-9-2.81-7.46-7.45a2.77 2.77 0 0 1 2.82-2.21 12.14 12.14 0 0 1 8.18 2.86c1.43 1.12 2.55 2.53 2 4.44-.49 1.74-2.12 1.91-3.68 2a15.29 15.29 0 0 0-1.86.36Z" style="fill:#2a2417"/><path d="M210.67 161a41.87 41.87 0 0 1 1.44-5.36c1.13-2.81 4.06-3.69 7.14-2.35s2 3.53 1.33 5.68-2.37 3.76-4 5.35a3.73 3.73 0 0 1-4.18 1.08c-1.6-.71-1.63-2.4-1.73-4.4Z" style="fill:#201b12"/><path d="M258.38 32.65c-1.89-.33-4.18-.65-5.95-2.44-1.63-1.63-1.08-3.36-.25-5 .91-1.83 2.53-1.46 4-.87a9.43 9.43 0 0 1 5.09 4.15c1.29 2.51.33 4.12-2.89 4.16Z" style="fill:#362c1c"/><path d="M429 197.67c-1.09-.26-2.66-.33-3.28-1.86s.51-2.5 1.47-3.41c3.4-3.27 5.64-3.63 7.79-1.35 1.93 2 1.8 3.37-.52 5a13.84 13.84 0 0 1-5.46 1.62Z" style="fill:#362d1f"/><path d="M52.41 362.06c3 0 3.93 1.45 2.5 4.07a9.42 9.42 0 0 1-4.26 4.27c-2.18 1-3.67 0-5-1.69-1.46-1.86-.23-3 1-4.19a8.92 8.92 0 0 1 5.76-2.46Z" style="fill:#2d2417"/><path d="M467.22 255.21A9.4 9.4 0 0 1 469 250a2.74 2.74 0 0 1 3.6-.74c1.19.66 1.33 1.73 1 3.16a8.09 8.09 0 0 1-3.24 4.65c-.66.5-1.33 1.43-2.38.86s-.67-1.62-.76-2.72Z" style="fill:#241c15"/><path d="M146.38 370.54c-1.35-.29-2.9-.23-3.41-1.74s.69-2.33 1.8-3c1.57-1 3-2.45 5.15-1.3a3.41 3.41 0 0 1 2 3.19c0 1.14-1.2 1.88-2.28 2.24a23.12 23.12 0 0 1-3.26.61Z" style="fill:#473a27"/><path d="M210.1 319.42c-.63.12-1.38-.2-1.83.52-.64.58-1.33.3-2 .11-2.42-.69-4-2.51-5.5-4.33v-.53c3.23 1.21 6.46 2.3 9.33 4.23Z" style="fill:#60513d"/><path d="m378.41 17.5.61-1.89c2-.93 3.71-2.45 6-2.84l.85.72c-1.87 2.56-4.13 4.25-7.46 4.01Z" style="fill:#963e26"/><path d="M427.69 169.25v.46c-2-.73-3.56.82-5.39.95l-.17-.2c.15-1.64 1.63-2.63 2-4.23.25-1.13 1.23-1 1.67 0s1.49 1.86 1.89 3.02Z" style="fill:#351c14"/><path class="cls-27" d="M347 263.72a22.94 22.94 0 0 0-19-9.92c-4.6-.1-6.2 1.84-5.41 6.33a28.59 28.59 0 0 0 1.21 4.44c1.22 3.59.44 4.87-3.26 4.77a58.8 58.8 0 0 0-17.64 2.41 61.64 61.64 0 0 0-28.95 18c-1.81 2-3.48 2.83-6.05 2.54-3.69-.4-7.19.05-9.95 3a8 8 0 0 0-1.84 2.81c-.7 2 0 3.36 2.07 2.81 2.54-.69 3.88 2 6.15 1.64.06 0 .37.58.28.73-1.26 2.17-.83 5.49-3.4 6.63s-5-.05-6.93-2.08c-3.15-3.27-6.4-6.42-9.59-9.65-1.15-1.16-2.24-2.39-3.45-3.69a5 5 0 0 1 4.05-.84c8.84.88 16.67-1.91 23.71-6.94 12.51-8.92 22-20.31 27.72-34.7.57-1.46 1.32-1.39 2.57-1.22 9.59 1.28 19.09 1.11 28.27-2.38 9.54-3.62 17.52-9 21.18-19.2 2.38-6.63 1.11-11.4-4.19-16-6.25-5.47-13.72-8.53-21.47-11.08l-2.63-.83c7.26-8.69 22.76-13.67 33.16-10.07 10.16 3.51 15.78 11.42 18.39 21.57 2.17 8.43.7 16-4.38 23.35-6 8.73-12.3 17.24-18.78 25.62-.59.6-1.22 1.23-1.84 1.95Z"/><path class="cls-28" d="m428.38 351.49-8.79 3.77a13.56 13.56 0 0 1-2-.8c-12.66-7.2-26.38-2.27-31.41 11.28a6.32 6.32 0 0 1-1 1.89 63.5 63.5 0 0 1-10.38 3.27 4 4 0 0 1-2.18-1.07c-8.58-8.53-24.15-4.58-30.52 1.47-2.94 2.8-4.53 6.29-6.43 9.66l-8.18 1.46a5.81 5.81 0 0 1-2.22-2.07 13.28 13.28 0 0 0-8-5.5c-7-1.55-13.72-1.06-19.81 3.14a13.49 13.49 0 0 0-4.56 5.34 7.45 7.45 0 0 1-2.24 3.26l-6.45.14a13.67 13.67 0 0 1-3.41-6.73c1.87-4.87 5.79-7.89 9.91-10.6 5.44-3.58 11.28-6.26 17.92-6.81.48 0 1.25.17 1.51-.6 9.56-1.8 19.18-3.3 28.71-5.29a581.18 581.18 0 0 0 47.93-12.25 460.93 460.93 0 0 0 49.54-18.31c2.46 2.37 2.58 5.51 2.87 8.6a4.64 4.64 0 0 1-2.21 2.41c-4.42 3-7.48 6.84-7.82 12.4a5 5 0 0 1-.78 1.94Z"/><path class="cls-29" d="M238.73 177.82c4.57-5.68 9.34-11.22 13.69-17.07 7.51-10.11 11.6-21.45 11.42-34.17a32.92 32.92 0 0 0-2.25-10.81c6.3-1.83 6.48-1.84 7.65 4.26 2.36 12.3-.8 23.63-6.4 34.49-5 9.62-12.23 17.49-19.09 25.69-8.18 9.79-16.5 19.47-24.29 29.56-10.23 13.23-16.27 28.39-16.65 45.23-.43 18.8 15.47 33.16 34.3 31.83 8.38-.59 15.64-3.88 22.37-8.64 2.93-1.22 4.7-3.82 6.7-6a96.65 96.65 0 0 0 9.36-12.38 3.92 3.92 0 0 0 .91-2.22l5.14-10c3.1.56 4.2 2.59 3 5.81a60.07 60.07 0 0 1-6.16 11.3 9.15 9.15 0 0 0-1.45 2.34c-7.74 10.1-16.56 19-28.78 23.47-11.35 4.12-22.57 3.69-33.12-2.89-3.27-3.07-6.95-5.63-9.86-9.17-6-7.26-9.12-15.69-8.5-24.78a87.92 87.92 0 0 1 19.42-50 272.08 272.08 0 0 1 16.43-18.36c2.2-2.31 4.62-4.56 6.16-7.49Z"/><path class="cls-30" d="M286.13 199.58a95.85 95.85 0 0 1 50.92 10.54 24.45 24.45 0 0 1 8.16 6.49c4.27 5.34 3.62 9.93-2.13 13.8-4.27 2.88-9.22 4.1-14.19 4.78a95.69 95.69 0 0 1-31-.7 7.24 7.24 0 0 1-1.16-.4c-6.32-1.9-12.51-4.07-17.91-8a17.06 17.06 0 0 1-6.15-7.56c-3.24-8.37 1.23-15.85 10.84-18.21a7.46 7.46 0 0 0 2.62-.74Z"/><path class="cls-31" d="M419.62 283c-.61-4 2.83-3.44 5-4.34a11 11 0 0 1 9.81.36c3.88 1.88 7.17-.49 10.61-1.38 1.16-.31 1.2-2 1-3.31a9.84 9.84 0 0 0-3.32-5.78c-1.71-1.48-3-3.09-2.5-5.58.31-1.67-.89-2.71-2.08-3.51-4.49-3-9.09-5-14.74-2.83-4.59 1.77-6.33.39-6.69-4.56a15.18 15.18 0 0 0-.38-2.12c-.93-4.11 1.05-6.6 5.27-6.55a14.68 14.68 0 0 1 4.56.71c2.17.72 4.12 1.4 6.29-.37 1.31-1.06 3-.12 4.22.92 4.5 4 10.7 4.74 15.45 8.23.78.57 1.51.14 2.29-.23 2.13-1 3.5-.52 3.73 1.75.73 7.39 3.5 14.59 1.59 22.26-.77 3.12-.08 6.53 0 9.81-1.06 1.58-2.07 1.1-2.79-.22a13.86 13.86 0 0 1-1.81-5.87 25.93 25.93 0 0 0-1.71 8.19c-.57 5.56-2.66 10.13-8.16 12.39-2.29.93-4.83 1.23-6.64 3.22a2 2 0 0 1-2.33.08c-2.74-3.1-2.82-3.68-1.07-7 1.91-3.58-.4-9-4.45-9.32-4.54-.38-7.58-3.11-11.15-4.95Z"/><path class="cls-32" d="M270.76 114.18c5.42-1.67 5.41-1.67 6.14 3 2.83 18.28-1.46 34.84-11.76 50.07-7.59 11.23-17.33 20.61-26 30.89-7.5 8.86-15.51 17.35-20.44 28.09-3.84 8.36-7.17 16.94-7.26 26.26-.12 13.36 5.64 23.75 16.81 31.11l2 1.36c-9.24-1.78-16.24-5.42-20.8-12.92-6.07-11.13-4.76-22.5-1.29-34a88.31 88.31 0 0 1 15.12-29.39c4.49-5.72 9.24-11.24 14-16.78 7.46-8.72 15.17-17.27 22-26.53 6.6-9 11.33-19.05 12.94-30.24a42.4 42.4 0 0 0-1.18-18.89c-.34-.64-.7-1.31-.28-2.03Z"/><path class="cls-33" d="M127.13 407.13c-10.51 4.5-21.56 7-32.82 8.6-22.16 3.09-44 1.94-65.49-4.84a15.74 15.74 0 0 1-2-.68c-1.35-.67-3.75-.57-3.92-1.88-.27-2 1.08-4 2.17-5.86a4.24 4.24 0 0 1 .75.28A4 4 0 0 0 28 404.3a138.18 138.18 0 0 0 23.59 5.79c6.11 1 12.25 1.16 18.37 1.59a90.66 90.66 0 0 0 14.43-.6 154.86 154.86 0 0 0 29.31-5.34c26.14-7.57 49-20.53 67.63-40.6a5.06 5.06 0 0 0 .88-1.27c1.46-2 3.7-3.39 5-5.61 11.35-11.36 24.44-18.9 41.1-18.15 6 .27 11.9 1.33 17.23 4.39-.77 1.32-2.11 1.09-3.3 1.12-3.31.11-6.55-.58-9.81-1-9.51-1.15-18.61-.2-27.16 4.62a59 59 0 0 0-17 14.95 131.51 131.51 0 0 1-38.47 32.32 149.74 149.74 0 0 1-22.67 10.62Z"/><path class="cls-29" d="m224.47 338-11.77 1.88c-9.57 1.67-17.36 6.53-24.27 13.18-4.68 4.51-8.75 9.56-13.3 14.18-13.42 13.6-29.67 22.64-47.11 29.95-13.27 5.57-27.25 7.95-41.37 9.52-9 1-18.1 0-27.09-1.09-12.93-1.62-25.56-4.44-37.3-10.29-7.09-3.53-13.42-8-18.41-14.23a8.35 8.35 0 0 0-1.74-1.72c.05-2.65 2.6-2.09 4-3.07a2 2 0 0 1 1.37.63c9.09 11 21.39 16.26 34.72 19.8 14.83 3.94 30 4.92 45.2 4.52 3.79-.1 7.66.1 11.4-.93 6.73-1.21 13.54-2.05 20-4.28 22.08-7.57 41.87-18.63 57.16-36.86 7.82-9.34 16.63-17.65 28.58-21.67 2.66 0 5.16-.91 7.78-1.22 3.92-.47 7.7.26 11.51.82.46.07.64.43.64.88Z"/><path class="cls-33" d="M200.77 315.72c2.54 1.34 4.55 3.61 7.5 4.22l6.88 3.87-.15.44-9.38-1.25c-4.79.28-9.26-1.18-13.81-2.35-16.32-4.22-31.4-.72-45.48 7.89-13.28 8.12-23.06 19.75-31.66 32.47-2.65 3.92-5.1 8-8 11.76A37.91 37.91 0 0 1 84.55 387c-14 3.25-27.36.69-40.44-4.38a50.91 50.91 0 0 1-10.53-5l2.12-3.59c1.47-1.14 2.72-.23 4 .43 6.3 3.35 13.14 5.2 20 7.09a2.15 2.15 0 0 0 1.51-.15c7.47 1.51 14.94 2.26 22.53.75 9.32-1.86 16-7.36 21.24-15 2.49-2.43 4-5.57 5.87-8.44 1.58-2.44 3.93-4.39 4.78-7.31l1.74-2.14c4.18-3.79 7.28-8.56 11.37-12.45 11.52-11 24.7-18.89 40.41-22.15a58.48 58.48 0 0 1 29.71 1.15 1.84 1.84 0 0 0 1.47 0 1 1 0 0 1 .44-.09Z"/><path class="cls-34" d="m310.14 362 .28.12c.26.14.61.4.13.55-2.44.73-5 .87-7.46 1.73-8.9 3.15-16.67 7.81-22.11 15.78-1.36.17-2.3-.74-3.34-1.35a18.16 18.16 0 0 0-23.88 4.84 5.08 5.08 0 0 1-1.94 1.91c-1.83 0-3.68.2-5.43-.57a4.87 4.87 0 0 1-1.33-2.37c-1.36-6.51-8.66-10.55-15-10.2-1.11.06-2.25.41-3.22-.46l-4.44-8c-.26-1.24.3-1.34 1.34-1.09 20.39 5 41 3.8 61.57 1.81 8.32-.84 16.57-1.83 24.83-2.7Z"/><path class="cls-35" d="M372.35 173.1A27.91 27.91 0 0 1 385 186.69c8.8 18.71 7.37 50.49-14.46 70.38A106.64 106.64 0 0 0 347 288.15a29.56 29.56 0 0 0-1.38 3.1c-.39 1.1-.94 1.68-2.25 1.52s-2.92-.07-3.49 1.75-.54 3.62 1.06 5.09a4.5 4.5 0 0 1-.74 7.46c-1.48.87-3.33 2.87-4.47 2.14-1.43-.93-.44-3.35-.2-5.13 1.48-10.84 6.7-20 13.09-28.56 6.52-8.77 14.1-16.64 21.07-25 18.52-22.28 19.59-52.73 2.87-76.4-.13-.12-.1-.38-.21-1.02Z"/><path class="cls-27" d="M187.3 110.19c-1.65-9.89-1-19 5.61-26.06 10.34-11.13 23.17-16.79 38.68-14.44 5.29.8 9.67 3.79 14.09 7.12-2.21 1-4.46 1-6.55 1.54-8.87 2.4-18.07 3.57-26.59 7.28-10.28 4.47-17.93 11.78-23.47 21.43l-1.77 3.13Z"/><path d="M222.35 348.39c3.69-1.19 7.39-.38 11 .3 18.22 3.45 36.46 2.39 54.73.61 30.91-3 61-10.1 90.66-18.89 22.46-6.65 44.38-14.82 65.16-25.78A86.52 86.52 0 0 0 459.36 294c4.33-3.66 6.34-8 4.33-13.68a10.18 10.18 0 0 1-.28-1.51c5.75 1.08 8.21 5.9 5.76 10.94-6.61 8.45-15.3 14.36-24.74 19a359.69 359.69 0 0 1-37.42 16 521.94 521.94 0 0 1-60.22 17.49c-14.38 3.23-28.74 6.48-43.37 8.54a377.06 377.06 0 0 1-45.35 4.05c-10.45.2-21-.15-31.17-3.15-1.76-.55-4.34-.41-4.55-3.29Z" style="fill:#ebd9ac"/><path class="cls-29" d="M188.43 111.38c1.78-5.66 5.51-10 9.54-14.12 20.75-21.08 50.52-18.36 69.89.34a25.14 25.14 0 0 1 3.87 5.16c-5.15 2.27-6.25 2.09-10-1.58a43.17 43.17 0 0 0-66.61 7.75c-5.59 8.83-5.55 18.28-2.76 27.93.52 1.82.25 2.71-1.54 3.13-2.12.18-2.75-1.43-3.4-2.93-3-6.92-2.75-14-.62-21 .5-1.61 1.26-3.06 1.63-4.68Z"/><path class="cls-32" d="M377.6 206.77c-1.1-2.2-.5-4.63-1-6.93-2.42-11-8.38-19.9-15.94-27.93-1.18-1.26-2.27-2.61-3.41-3.91 1.45-1.21 2.93-1.11 4.59-.37a22.46 22.46 0 0 1 8.44 6.5v-.06c1.67 2.31 3.06 4.82 4.92 7 8.55 15.86 9.87 32.33 4.12 49.37-3.72 11-11.35 19.37-18.85 27.86-8.29 9.39-16.46 18.9-22 30.37-2.93 6.13-4.88 12.42-4.7 19.25a6.14 6.14 0 0 1-2.56 5c-1.1.95-2.18 1.08-3.19-.14-.61-4.77.39-9.32 2-13.75 5.06-14.27 13.72-26.36 22.87-38.21 6.83-8.85 14.56-17.08 19.58-27.26a47.87 47.87 0 0 0 5.13-26.79Z"/><path class="cls-37" d="M215.86 238.76a79.93 79.93 0 0 1 11-22.88c8.3-12 18.73-22.16 28.41-33 10.52-11.74 19-24.57 22.47-40.22a64.41 64.41 0 0 0 .32-27.26c-.28-1.41-.87-3.08 1.52-3 1.59 0 3.6-1.62 4.27 1.84 3.46 18 .22 34.72-8.63 50.59-5.81 10.43-14.48 18.4-22.52 26.92-7.64 8.09-15.48 16-22.67 24.48a56.45 56.45 0 0 0-9.03 14.66 26.92 26.92 0 0 1-5.14 7.87Z"/><path class="cls-38" d="M459.18 286.65a29.53 29.53 0 0 1-.2-11.32 35.35 35.35 0 0 0-.54-13.44c-.53-2.3-1.24-4.55-1.11-7a2.16 2.16 0 0 0-1.16-2.33c-1.18-.47-1.29.74-1.62 1.38a1.39 1.39 0 0 1-2.34.33c-3.79-3.35-8.85-4.18-13-6.69a31.9 31.9 0 0 1-3-2.15c-1.5-1.15-3.07-2.77-4.6.26-.69 1.37-2.14.62-3.31.14-3-1.21-6-2.24-9.2-1.14-2.25.77-3.09 2.34-2 4.59a5.46 5.46 0 0 1 .61 3.87c-.78 2.83.94 3.21 3 3.15a8.34 8.34 0 0 0 2.37-.6 16.44 16.44 0 0 1 17.56 4.61c.71.78 1.51 1.48.72 2.65-1.24 1.84-.29 3.11 1.19 4.13a11.3 11.3 0 0 1 4.55 7.08c.66 2.83-.85 4.26-3.45 5.16a17.06 17.06 0 0 1-12.94-.52c-1.76-.75-4.07-.19-6.12-.22l3.08-2.48c2.31-1.57 4.54-.78 6.68.35 1.75.94 3.44 1.45 5.15.06s1.71-3.34 1.15-5.1c-1.53-4.73-4.56-8.31-9.34-9.94a17.21 17.21 0 0 0-14.05.84 15.42 15.42 0 0 1-4 1.47c-1.79.37-3.28 0-4-1.9.09-2.73 2.45-5 1.67-7.88a4.48 4.48 0 0 1-1.08-2.7 4 4 0 0 0-.51-2c-1.68-4.15-.74-6.27 3.5-7.73 3.35-1.15 6.87-.37 10.3-.75a23.08 23.08 0 0 1 2.74.09c2.4.05 2.4-1.71 2.6-3.38.3-2.56-.43-5.21.25-7.88 1.71.62 1.78 1.89 2 2.92 1.34 7.55 6.46 11.86 12.9 14.9 2.3 1.08 4.89 1.51 7.3 2.36s3-.39 2.8-2.4a29.6 29.6 0 0 0-1-3.85c-.15-.6-.27-1.31.3-1.71a1.66 1.66 0 0 1 2 .12c.42.3 1 .61 1.12 1 1.24 3.69 4.39 6.61 3.89 11a22.23 22.23 0 0 0 1.38 11.77c1.34 3.07.19 6.48-.36 9.71a30 30 0 0 0-.05 6.63c-.01 1.72.62 3.79-1.83 4.54Z"/><path d="M286.55 246c-14.1-5.4-24.45-14.33-28.47-30.18 12.8 15.78 30 19.92 48.38 21.5a113.94 113.94 0 0 0 25.24-.78c.62.93.66 1 .05 1.39-6 4-12.23 7.7-19.52 8.76-8.57 1.22-17.17 1.52-25.68-.69Z" style="fill:#e3cf7f"/><path class="cls-40" d="M291.75 322a29.34 29.34 0 0 0-16-10.36c.51-2.75-1.82 0-2.15-1.11a12.33 12.33 0 0 1 5.88-4.66c2.41-1.06 4 1 5.72 2.16 1.47 1-.13 2.17-.36 3.25a15.89 15.89 0 0 1-.54 1.6c2.44-.91 2.24-4.49 5.14-4.36s3.18 2.7 4.37 4.82c1.53-2.45-1.4-3.88-.66-5.93 1-2.69 3.18-2.06 5.57-2.46-3.2-.82-5.49-2-2.78-5.39-1-.16-1.36.45-1.82.77-3.12 2.17-5.46 1.46-6.77-2.12-.32-.86-.49-1.77-.73-2.65.39-3.65.63-3.87 4.35-3.89 4.93 0 4.93 0 6.57 1.39-3-2.93-9.8-1.78-11.47 1.94-1 1.49 0 3 .21 4.38.31 1.76-.1 2.23-1.74 2.19a24.33 24.33 0 0 1-9.73-2.62c-2-.94-1.71-3.74-1.57-5.82.1-1.69 1.74-1.91 3.07-1.94a120.52 120.52 0 0 0 15.27-1.72c6.89-1.06 16.26 6.44 17.41 13.32a2.81 2.81 0 0 1-1 2.89 79.3 79.3 0 0 1-6.46 6.09c-3.5 2.74-5.27 6.57-6 10.91-.13.73.24 1.92-.79 2.1-.83.14-1.34-.8-1.78-1.5.46-1.68 2.91-2.83 1.34-4.93.5 2.98.12 3.54-2.55 3.65Z"/><path class="cls-41" d="M33.58 377.57c8.39 3.91 17 7.25 26.17 8.77 12.83 2.13 25.4 1.79 36.87-5.52 5.66-3.61 9.75-8.68 13.27-14.3 6.52-10.39 13.78-20.19 22.71-28.68 10.79-10.25 23.37-17 38.1-19.48 9.12-1.53 18.05 0 26.54 3.28 2.86 1.12 5.74.12 8.38 1.36-4.77.39-9.34-.53-14-1.58-15.28-3.45-29.38.35-42.54 8.06-14.68 8.59-25 21.53-34.22 35.45-3.63 5.48-6.86 11.27-12.1 15.49-8.12 6.55-17.55 9.21-27.83 9.21-14.31 0-27.55-4.08-40.1-10.71-.52-.28-1.52-.27-1.25-1.35Z"/><path class="cls-42" d="M2.11 379.38a3.58 3.58 0 0 1 2.05 1.26c8.65 10 20 15.36 32.38 19.2 15.25 4.75 30.91 6.08 46.76 6.13 3.93 0 7.74-.86 11.6-1.31 20.52-2.38 39.25-9.87 56.86-20.4a110.09 110.09 0 0 0 26-21.11c5.06-5.67 10.08-11.36 16.12-16 5.54-4.27 11.63-7.27 18.85-7.25-13.52 4.5-23.61 13.46-32.9 24-14.94 16.95-33.95 28.06-55 35.84a151.29 151.29 0 0 1-35.87 8.51c-7.67.86-15.41.29-23.09-.45-12.91-1.24-25.6-3.53-37.64-8.6-9.29-3.91-17.76-9-24.22-17-.73-.88-1.28-1.88-1.9-2.82Z"/><path d="M222.35 348.39c2.77 2.64 6.5 3.06 9.91 3.64a132.58 132.58 0 0 0 27.56 1.81c9.3-.39 18.6-1 27.88-2.09s18.52-2.14 27.67-3.9c10.56-2 21.1-4.21 31.58-6.63a504.96 504.96 0 0 0 39.53-10.59c16.64-5.3 33.06-11.14 48.91-18.55 8.94-4.18 17.75-8.48 25.47-14.74a39.11 39.11 0 0 0 6.52-6.53c.42-.55.64-1.66 1.79-1-3.74 6.71-9.77 11-16.1 14.89-16.11 9.76-33.58 16.53-51.27 22.79-28.57 10.13-58 17.2-87.71 22.61-20.74 3.77-41.72 6.11-62.87 5.71-8.72-.17-17.46-.7-25.86-3.5a21.48 21.48 0 0 1-7-3.64Z" style="fill:#f8f4e3"/><path d="M329.5 341c1.63-10.22-.6-15.64-7.77-19.24a17.13 17.13 0 0 0-19.89 3.38c-5.24 5.2-5.24 10.27 0 20.4-1 .7-2.19.22-3.23.53-1.52.46-1.64-.25-2.34-1.54-2-3.66-3.13-6.8-1.78-11.3.69-2.3.3-5 2.26-7a3.58 3.58 0 0 0 .91-2.25c.07-2.82 1.26-4.58 4-5.44a3.55 3.55 0 0 0 2.35-2.69c.57-2.7 2.28-3.11 4.62-2.58.69.16 1.61.41 2.11.1 3.83-2.32 7.2-.06 10.89.46 4.07.58 6.23 1.68 8.8 5.09 2 2.62 5 4.43 5.62 8.09a.78.78 0 0 0 .35.5c4.87 2.91 2.17 6.95 1.62 10.68-.19 1.23-1.1 1.36-2 1.54-2.02.46-4.17.85-6.52 1.27Z" style="fill:#f8f1c8"/><path class="cls-33" d="M279.67 74c7.53 6.64 12.53 15 16.69 24.47l-5.24.76c-2.5-1.9-3.22-5-4.67-7.51C279.14 79 268.82 70 254.87 65.2a57.6 57.6 0 0 0-26.93-2.27c-11 1.72-20.75 6.26-30 13.1 2.89-4.48 9.25-9.72 16-13.17 4-2 7.91-4.34 12.5-4.91 18-3.83 33.57 1.81 48 12.1a6.8 6.8 0 0 0 1.29.84c1.32.96 2.21 2.58 3.94 3.11ZM399.38 207.55a65.16 65.16 0 0 1-2.15 33.1c-.74 2.16-3.54 3.33-5.83 2.7-1.77-.48-.49-1.46-.28-2.11 2.69-8.18 4.29-16.53 3.77-25.16-1.22-20.33-9-37.33-25.75-49.64-3.48-2.55-3.49-2.92.46-5.07 4.34.79 7.19 3.92 10 6.84 9.52 9.92 15.45 21.83 18.74 35.12a18.52 18.52 0 0 0 1.04 4.22Z"/><path class="cls-3" d="M163.7 355.91c-1.52-2.53.46-4.37 1.54-6.1 2.93-4.72 7.54-7.78 11.86-11.09a27.14 27.14 0 0 0 3.13-2.49c1.31-1.34 2.05-3 .57-4.65s-.4-2.29 1-2.86a52.57 52.57 0 0 1 16.59-4.34c10.07-.74 19.49 1.92 28.79 5.41 3.49 1.31 6.7 3.78 10.76 3.26-1.23 1.73.21 1.95 1.27 1.92 5.32-.17 9.61 2.6 14.13 4.74a19.62 19.62 0 0 1 4.84 3.24c.93.86 1.78 1.79.86 3.18a1.77 1.77 0 0 1-2.22-.52 3.47 3.47 0 0 0-3.65-1c-1.21.38-2.18-.21-3.19-.76a100.69 100.69 0 0 0-27.72-10c-5.84-1.24-11.9-.62-17.86-.28a8.29 8.29 0 0 0-3.66 1.57 109.13 109.13 0 0 0-22.54 18.12 13.06 13.06 0 0 1-14.5 2.65Z"/><path d="m451.84 71.82-8.06 1.61c-9.19 1.67-18.39 3.28-27.57 5-22.4 4.26-44.79 8.57-67.21 12.85l-89.31 17q-22.09 4.2-44.21 8.37a9.12 9.12 0 0 0-5.07 2.34 4.52 4.52 0 0 1 4.07-3.62q23.9-4.53 47.78-9.14 26.94-5.15 53.87-10.26l82.92-15.72c16.55-3.15 33.08-6.38 49.63-9.55q12-2.28 23.94-4.45c2.15-.39 4 0 5.24 2.61-5.88-2.58-11 .61-16.39 1-3.23.27-6.41 1.28-9.63 1.96Z" style="fill:#f8ebbc"/><path class="cls-41" d="M127.13 407.13c5.34-2.6 10.7-5.16 16-7.82a141.55 141.55 0 0 0 27.52-18.41c8.08-6.77 14.49-15.08 21.65-22.7 8.19-8.72 18.17-14.4 30.75-14.81 7.53-.25 14.82 1.92 22.31 1.34.94-.83 1.72.62 2.63.19 1.72 1.44 4.07 2.14 5.42 4.83-4.54-.56-8.72-1.08-12.91-1.58-7.83-.93-15.61-2.53-23.56-.61-11.75 2.84-20.64 9.86-28.17 18.87-10.24 12.23-22.72 21.66-36.43 29.58a154.8 154.8 0 0 1-22 10.39c-1 .38-1.99 1.14-3.21.73Z"/><path class="cls-28" d="M286.13 199.58c-1.12 1.54-3 1.7-4.54 2.32-4.53 1.8-8.26 4.45-9 9.54-.78 5.65 1.69 10.12 6.22 13.48a58.08 58.08 0 0 0 15 7.56c1 .38 2.27.41 2.85 1.61-12.51-1.78-24.29-5.4-33.7-14.34-5.78-5.5-4.72-11.72 2.34-15.51 6.53-3.49 13.54-4.69 20.83-4.66Z"/><path d="M315.52 338.76c2.67 2.74 5.3 3.09 8.29 1.42a6.38 6.38 0 0 0 3.33-7.25 12.13 12.13 0 0 0-11.2-9c-5.42-.26-10.68 3.63-12.49 9.21-1.36 4.17-.45 8.09 1.37 11.91-1.56.94-2.07-.29-2.72-1.14a13.78 13.78 0 0 1-1.25-15.36c3.26-5.46 8.53-7.33 14.49-6.94 10.1.67 15.15 8 12.69 17.81a3.51 3.51 0 0 1-2.94 3.05c-4.84 1-9.78 1.32-14.63 2.2a1.69 1.69 0 0 1-2-.95 9.72 9.72 0 0 1 .06-10 8.09 8.09 0 0 1 7.9-4.37 6.3 6.3 0 0 1 4.94 2.74c2.48 3.36 1.38 5.75-2.76 6.2-.93.06-1.83.26-3.08.47Z" style="fill:#f7e9ab"/><path class="cls-33" d="M424.66 312a12.71 12.71 0 0 1-10 1.41c-16.95-4.12-32.25.29-46.49 9.51-3.81 2.47-7.55 5.18-10 9.05-2.29 3.67-5.81 4-9.63 5a15.79 15.79 0 0 1 3.58-6.32c10.76-13.29 25.11-20.2 41.6-23a56.94 56.94 0 0 1 28.51 2.5c1.05.25 2.33.3 2.43 1.85Z"/><path class="cls-47" d="M381.18 296.47a13.06 13.06 0 0 1 2.08.46c3 1.15 5.29.47 7.11-2.32 1.46-2.26 4.11-2.07 6.4-2.33a26 26 0 0 1 5.85 0c1 .12 3-1 2.85.91-.11 1.66-.16 4-3.13 4a75.35 75.35 0 0 0-15.51 2.15c-8.64 2-16.27 6.23-23.95 10.34-8.05 4.31-16.59 7.74-23.94 13.31-.72.54-1.62.79-2-.34s-2.25-2.33-.36-3.4c4.22-2.37 7.53-6.37 12.86-6.8 1.7-.14 3.76-.68 4.07-3.08.09-.71.62-1 1.18-1.31 8-4 15.64-8.66 24.33-11.1.72-.17 1.42-.31 2.16-.49Z"/><path d="m438.8 334.83-2.48-8.71c7.73-4.09 15.58-7.95 22.87-12.81 1.27 6.93.67 13.89.26 20.84-.08 1.36-1.54 1.51-2.34 2.24-5.8-2.21-11.7-3-17.78-1.29-.16.04-.33-.1-.53-.27Z" style="fill:#c7ad82"/><path d="M110.24 356.06a6.72 6.72 0 0 0-3.52-4.39c-2.61-1.36-4.36-3.74-6.56-5.59a8 8 0 0 0-6.22-2 25.73 25.73 0 0 0-10.49 3.11c-2.29 1.32-4.16 2.89-4.71 5.72-.37 1.93-1.84 3.4-2.88 5-2.94 4.64-2.3 11.54 1.69 15.22 2.39 2.22 3.49 5.63 7.27 7.22-1.77.36-3 .62-4.23.85-1.53.29-2.69.14-3.16-1.77a4.2 4.2 0 0 0-3.32-2.94c-2.19-.47-2.8-1.89-2.89-3.77a10.81 10.81 0 0 0-2.22-6.56 2.19 2.19 0 0 1 .21-3.3c2.14-1.95 3.18-4.22 2.44-7.15a2.16 2.16 0 0 1 1.57-2.64 4.79 4.79 0 0 0 3.25-4.45c.08-2.14 1.28-2.95 3.13-3a3.28 3.28 0 0 0 3.4-2.9c.44-1.8 1.47-1.93 3.39-1.94 4.71 0 9.2-.26 13.86 1.52 2.33.89 4.59.59 5.25 3.71.3 1.45 1.86 2 3.25 2.55 4.25 1.69 4.7 3.74 1.49 7.5Z" style="fill:#f8f1ca"/><path class="cls-50" d="M184.74 311.92a93 93 0 0 0-41.81 9.47 71.81 71.81 0 0 1-24 7.1 27.88 27.88 0 0 1-12.41-1.57c-4.64-1.69-4.68-2-1-5.22a2.59 2.59 0 0 1 2.07-.29c11.37 3.6 21.92.43 32.1-4.32 7.5-3.51 15.07-6.53 23.34-7.56a61.6 61.6 0 0 1 21.09 1.47.81.81 0 0 1 .62.92Z"/><path d="M90.83 366.21a2.13 2.13 0 0 0 0-.62c-.93-2.88-1.48-5.69 1.74-7.6 2.63-1.56 6.07-.95 8.8 1.5 2.9 2.61 3.29 5.83 1 8.95a34.87 34.87 0 0 1-2.81 3.27c-5.43 5.7-12.65 4.53-16.3-2.62-2.47-4.82-.93-11.91 3.43-15.79 3.64-3.24 8.59-3.22 13.65 0a16.06 16.06 0 0 1 6.67 8c-1.68-.55-2.08-2.41-3.61-2.36a15.72 15.72 0 0 1-3.37-2.22c-6.17-2.54-11-.55-12.42 5.1-1 3.9 3.14 8.81 7.14 8.5 3.08-.24 4.69-3.21 3.08-5.71-1 4-1.79 4.44-6 3a1.74 1.74 0 0 1-1-1.4Z" style="fill:#ae4226"/><path class="cls-52" d="M375.83 253.52c-.34 2.9-.32 4.85 1.54 6.32 1.19.93-.23 1.61-.74 2.19-5.54 6.36-11.32 12.52-16.61 19.07-4 5-7.34 10.43-7.9 17.11-.17 2.06-4.82 5.94-7 6.16-.7.07-1-.21-.93-.8.07-.95-.42-2.21 1-2.58a16.54 16.54 0 0 1 2.45-.15c1.35-.14 2.78-.32 3.31-1.8a2.89 2.89 0 0 0-1.51-3.69c-3.42-1.62-2.29-3.72-1.2-6.23 4.46-10.33 12-18.35 19.37-26.56 2.49-2.81 5.05-5.56 8.22-9.04Z"/><path class="cls-29" d="M294.14 110c6.7-1.27 6.22-2.47 6.75 5.07 1.55 21.88-7 39.63-23.22 54a18.92 18.92 0 0 1-2 1.38c-.9-1.11 0-2 .51-2.76 3-4.72 5.78-9.64 8.86-14.37 7.87-12.1 11.16-25.34 8.75-39.77-.22-1.25-.57-2.48.35-3.55Z"/><path class="cls-53" d="M371.24 75.56a7.6 7.6 0 0 0-.26 7.11c.63 1.53.16 1.64-1.11 1.89-4.24.83-6-.22-7.09-4.48-1.46-5.59.21-10.29 4.82-13.69a22.44 22.44 0 0 0 2.08-1.84c5.4-5.06 13.42-5.49 18.46 0A28.93 28.93 0 0 1 394.23 76c.66 2.27.32 4.62-3.15 4.43-.75 0-1.51.56-2.47.23.33-2.88.67-5.74-1.06-8.31-2-.44-2.44-2.5-3.84-3.55-4.73-2.9-10.56-.84-13.9 4.91-.11.25-.24.5-.36.72a3 3 0 0 1-.25.46c.35.06.35-.3.53-.45a7.8 7.8 0 0 1 .77-1c1-.8 1.75-2.11 3.36-1.46.44.55.2 1.08-.08 1.6a5.24 5.24 0 0 1-2.54 1.98ZM107.81 360.23c-5.68-8.48-12.24-11.79-18.42-9.49-4.9 1.82-9 9.08-8.32 14.55a13.29 13.29 0 0 0 11.8 11.19c-4.64 4.38-8.4 4.19-11.24-.16-1.92-2.94-5.32-4.75-6-8.73-.61-3.63-.71-6.93 1.64-9.93a14.49 14.49 0 0 0 2.93-5.7 4.7 4.7 0 0 1 2-2.65c3.87-3.05 8.48-3.89 13.22-4.28a1.56 1.56 0 0 1 .9.19 51 51 0 0 1 12.57 10.46c1.58 1.74-.31 2.96-1.08 4.55Z"/><path d="M336.44 276.66c-3-1.2-5.43 1.52-8.3 1.27-2.72-.35-4.93.91-7.11 2.25-1.8 1.12-3.11 1.14-4.09-1.16a28.78 28.78 0 0 1-1.89-5.47c5.15-.54 9-4 13.4-6.11a3.17 3.17 0 0 0 1.73-3.64 2.89 2.89 0 0 0-2.93-2.5c-.53 1.45.8 1.35 1.17 1.94.85 1.36.33 2.3-.88 3.07-1.48.95-1.74-.27-2.06-1.21a36.8 36.8 0 0 1-1.59-5.28c-.56-3.14.73-4.43 3.94-4a13.37 13.37 0 0 1 7.33 3.63 29.81 29.81 0 0 1 5.64 7.27c1.5 2.55 1.56 4.53-1.48 5.84-.76-1.16-1.86-.9-3.11-.67 1.11.4 2.32-.36 3.14.63-.07 1-1 1.38-1.56 2.05-.15.87-.3 1.77-1.35 2.09Z" style="fill:#fbc786"/><path class="cls-55" d="M163.7 355.91c3.83-.35 7.78.83 11.48-1.36a25.75 25.75 0 0 0 5.11-4.4 100.39 100.39 0 0 1 21.23-16.64c3.24-1.87 6.63-1 9.92-1.22 12.71-.72 24.09 4.16 35.44 9a32.76 32.76 0 0 1 2.83 1.86c.69.39 1.82 1.08 2.2.82 3.26-2.27 4.91.55 7 2 6.72-.4 13.4-.4 19.86 1.89-7.33 1.91-14.8 1.95-22.29 1.82a2.08 2.08 0 0 1-1.79-1c-2-3-4.92-4.58-8.1-5.87-8.63-3.52-17.21-7.06-26.66-8.15a38.87 38.87 0 0 0-24.71 5.53c-8.07 4.72-14.64 11.22-20.66 18.28-1.34 1.57-2.34 3.56-4.91 2.76-2.8-.81-5.55-1.79-5.95-5.32Z"/><path d="M286.55 246c5.65-.34 11.24.92 16.91.55 8.5-.54 16.69-2.05 23.83-7.07 1.42-1 2.69-2.22 4.53-2.4 0 0 .07-.19.05-.28a1 1 0 0 0-.17-.26c3.32-1.28 6.88-1.93 10-3.72a24.14 24.14 0 0 0 5.21-3.72c-4.06 7.8-9.54 14.2-17.9 17.53-14.2 5.62-28.37 4.8-42.46-.63Z" style="fill:#c6b05e"/><path class="cls-57" d="M270.76 114.18a42.66 42.66 0 0 1 1.24 25.69c-3.16 13-9.93 24.13-18.69 34.19-9 10.28-17.51 20.89-26.32 31.29a87.57 87.57 0 0 0-15.14 24.49c-3.63 9.26-6.59 18.79-6 28.94.23 3.8 1.65 7.38 2.91 11a4.42 4.42 0 0 1 .61 2.35c-5-7.18-5.84-15.29-4.52-23.58 2.77-17.28 10.39-32.28 21.84-45.5q14.73-17 28.91-34.48C263.33 159 268.92 148.3 271 136a44.54 44.54 0 0 0-.49-18.95c-.27-.92-1.2-2.05.25-2.87Z"/><path d="m221.79 67.84-8.61 1.93c14-6.15 28.26-7.39 42.75-1.7 13.92 5.47 23.71 15.27 30.35 28.45 1.76 3.5 1.76 3.49-2 4.22l-1.2.26c-1.51-.75-2-2.26-2.7-3.63-6.64-13.51-17-22.56-31.46-27.14-8.92-2.82-17.85-4.34-27.13-2.39Z" style="fill:#c77b2a"/><path d="M182.23 363.87c.14 1.23-.84 1.81-1.52 2.54-15.5 16.63-34.1 28.52-55.36 36.44a152.25 152.25 0 0 1-49.65 9.47 130.88 130.88 0 0 1-46.6-6.85c-1.38-.48-3.33-.46-3.32-2.72a136 136 0 0 0 40.65 7.72 154.05 154.05 0 0 0 51.9-7.18c24.22-7.61 45.65-19.84 62.93-38.76a5.17 5.17 0 0 1 .97-.66Z" style="fill:#fcdfb1"/><path class="cls-60" d="m342.33 186 .79-.22c.73 2.48 2.07 1.89 3.53.7a3.33 3.33 0 0 1 2.36-.39c2.26.61 3.38-.44 3.85-2.52 7.08 1.23 12.38 5.26 16.57 10.82a30.39 30.39 0 0 1 5.28 23.11c-.93-3.72-1.39-6.84-2.64-9.7-4.3-9.82-10.86-17.47-21.94-19.14-9.83-1.49-18.9 1.44-26.88 7.47a19.07 19.07 0 0 0-3.08 2.55c-1.67 2-3.49 2.18-5.62.93-.49-1.22.33-2 1.07-2.64A41.08 41.08 0 0 1 342.33 186Z"/><path class="cls-61" d="M409.22 261.93c2.28 2.24 4.7 1.14 6.82-.07 4.57-2.6 9.3-2.82 14.3-1.76 6.19 1.31 11.94 8.24 11.57 14.14-.22 3.38-4.32 5.74-7 3.75-2.28-1.72-4.68-1.91-7.27-1.84 1.54-3.63 1.94-7.15-1.18-10.24s-6.61-3.39-10.49-1.78a24.24 24.24 0 0 1-2.92.94c-3.34.93-3.96.38-3.83-3.14Z"/><path d="M395.25 79.64a10.08 10.08 0 0 0-2.06-8.47 7.57 7.57 0 0 1-1.57-2.62c-1.36-5.95-6.24-7.29-11.11-8.71-4.32-1.26-7.86-.08-10.77 3.26a7 7 0 0 1-1.55 1.49c-3.61 2.15-6.16 5-6.67 9.36-.47 4.11-.07 6 2.82 11.52a21.22 21.22 0 0 1-3.11.74 2.68 2.68 0 0 1-2.75-3.64c.7-2.37.74-4.37-1.27-6.15-1.2-1.07-.66-2.22.3-3.21a9.14 9.14 0 0 0 3-5.87c.15-2 1.6-3.24 3.55-3.85 1.19-.37 2.64-.84 2.86-2.09.57-3.32 3.34-2.55 5.29-3.62 4.12-2.25 8.15-.78 12.16-1.31 1.77-.24 2.62.24 2.95 1.74a3.21 3.21 0 0 0 3.47 2.8c1.7 0 2.31 1 2.43 2.56.1 1.25.4 2.72 1.58 3.18 2.7 1 2.92 2.93 2.58 5.37-.21 1.54.82 2.69 1.88 3.72.67.64 1.49 1.31 1.17 2.33s-1.37.67-2.14.82-1.79.38-3.04.65Z" style="fill:#f8f1cb"/><path class="cls-37" d="M345.5 179.1c-2.16-2.35-3.81-.65-5.51.7a15.19 15.19 0 0 1-4 1.26 52.33 52.33 0 0 0-25.31 14.68 8.44 8.44 0 0 0-1.63 2.57c-1.64 0-3.28-.05-4.92-.17a9.87 9.87 0 0 1-2.07-.68c10.62-14.48 24.77-21.78 42.2-23.17 1.18.43 2.44 0 3.61.32s2.86.5 2.84 2.21-1.4 2.33-2.86 2.68a2.54 2.54 0 0 1-2.35-.4Z"/><path class="cls-50" d="M377.6 206.77c1.42 6.45.73 12.78-1.06 19-2.64 9.29-8.16 16.9-14 24.37-10.61 13.54-21.81 26.68-29 42.54a56.5 56.5 0 0 0-5.41 20c-2-2.71-.64-5.6-.17-8.3 2.05-11.91 8-22.16 14.5-32.08 6-9.12 12.92-17.59 19.83-26 9.46-11.53 15.71-24.17 15.31-39.53Z"/><path d="M402.6 241c3.84-16.81 0-32.51-5.56-48.28 3.76 1.41 5.8 4.14 7.48 7.21 4.49 8.24 5.08 17.23 5 26.32 0 2.76-.76 5.52-.73 8.27 0 3.97-2.31 5.56-6.19 6.48Z" style="fill:#dea95b"/><path class="cls-64" d="M286.75 266.52c-8.77 12.21-19.21 22.09-34.73 25 16.1-9.2 27.82-22.43 36-38.88 3.15-.5 4.91 1.51 3.85 4.46-1.18 3.39-3.43 6.26-5.12 9.42Z"/><path class="cls-65" d="M459.18 286.65c1.47-2.25 1.24-4.78 1.29-7.29 0-1.27-.39-2.64.5-3.81a67.67 67.67 0 0 0 .62 7.35c.93 5.25-2.68 8.35-6 11.38a73.17 73.17 0 0 1-17.75 11.51 6.39 6.39 0 0 1-6.09 0c-7.38-3.55-14.92-6.75-23.08-8.19-.94-.17-2.64.07-2.45-1.64s1.2-2.56 3.13-2.66c4.93-.24 8.87 2.17 12.91 4.4-.49 2.36 1.62 2 2.55 1.95 4.56-.3 8.08 1.95 11.62 4.26a10 10 0 0 0 1.76-.37c1.93-.79 2.32-5.1 5.74-2.49 2.88-1.77 6-3.35 7.2-6.84a23.82 23.82 0 0 0 1.39-6.61 25.15 25.15 0 0 1 1.33-7.23c.36-1 .65-2.19 2.4-2.65a12.74 12.74 0 0 0 1.19 7.89c.42.9.42 1.93 1.74 1.04Z"/><path class="cls-66" d="M284.21 317.71c3 1.45 5.17 4 7.52 6.26 1.62 1.59 2 3 0 4.73a73.89 73.89 0 0 0-8.14-6.93 35.79 35.79 0 0 0-46.83 6.5c-2.15 2.55-3.8 3-6.56 1.11 2.05-3.05 4.13-6.05 7.3-8.11 4.88-3 9.81-5.89 15.41-7.49 9.53-2.73 18.67-1.61 27.59 2.4 1.26.54 2.34 1.39 3.71 1.53Z"/><path d="M339.28 325c14.49-8.89 28.81-18.11 45.3-23.06 2.14-.64 4.38-1 6.57-1.5 2.78.54 5.5-.33 8.24-.52 10.84-.75 20.89 1.8 30.5 6.56 1 .5 2.45.47 2.59 2.06-3 .75-5.54-.2-8.29-1.3a58.3 58.3 0 0 0-31.19-3.36c-11.26 1.74-21.36 6.17-30.91 12.21-5.45 3.44-11.26 6.3-16.84 9.55-2.6 1.54-4.58 1.2-5.97-.64Z" style="fill:#dfac5d"/><path class="cls-31" d="M425.84 240.92a19.12 19.12 0 0 1-8.34 1.08 9.59 9.59 0 0 0-5.86 1.05c-2.78 1.42-3.09 2.6-1.59 5.38.49.91 1.6 1.82.33 3-4.88-.1-8.28 2.21-10.48 6.48a2.69 2.69 0 0 1-1.32 1.23 1.47 1.47 0 0 1-1.9-1.49c-.07-3.18-2.46-3.37-4.66-3.85-1.21-.26-2.47-.11-3.69-.33-.95-.16-1.87-.48-2.11-1.53a2.32 2.32 0 0 1 1.18-2.34c1.75-1.35 3.93-1.74 5.93-2.54 1.56-.63 3.92-.32 4.15-2.91 6.8-2.12 13.3-5.44 20.71-5.06a18.12 18.12 0 0 1 7.65 1.83Z"/><path class="cls-37" d="M278.5 101.54c-3 1.51-4.91.88-7-1.89-8.63-11.3-20.79-16.32-34.49-18.26-.76-.11-1.59.23-2.32-.34 13.22-5.58 35.31 2.59 43.81 20.49Z"/><path class="cls-29" d="M276.73 320.69c6.38 1.64 10.67 6 14.58 11 1.71 2.17 1.66 4-.53 6.06a34.52 34.52 0 0 0-13.73-11.32c-10.84-4.68-21.33-4-31.33 2.44-.86.55-1.64 1.84-2.8.41-.37-1.87 1.05-2.82 2.13-3.82 5-4.56 11.13-6 17.61-6.38a33.6 33.6 0 0 1 14.07 1.61Z"/><path class="cls-41" d="M339.28 325c2.22 1.11 4.25.73 6.37-.45 10-5.57 19.56-12.08 30.06-16.65 12.74-5.54 26.1-7.46 40-4.37a39.94 39.94 0 0 1 11.55 4c1.7 1 3.7-.31 5.27 1-2.32 1.91-4.54 1.93-7.34.56-7.53-3.68-15.65-4.71-24-4.59-12.78.18-24.42 3.93-35.33 10.43-7.77 4.63-15.73 8.94-23.51 13.56-2.05 1.21-2.72-.25-3.77-1.24-1.37-1.25-.09-1.72.7-2.25Z"/><path class="cls-40" d="M304 126.63c-.27-2.55-2-4.9-1.08-7.63.41-.32.8 0 1.21 0a5.59 5.59 0 0 1-1.23-1.15c4.4-1.3 9.75 1.66 11.2 6.59 1.66 5.61 1.26 10.92-3.56 15.09-.36.19.09 0-.29.08-1.05.3-1.68 1.68-3 1.17-.39-.15-.34-.69.18-3 .07-.41-.46-.12-.05-.14.08 0 .07.09.05.28a2.94 2.94 0 0 1-2.88 3c-1.68.13-3.42 1-5.09-.09a52.55 52.55 0 0 1 2.95-10.19c-.09-.32 0-.49.37-.53a1.8 1.8 0 0 1 .9.73c.07-.25-.15-.41-.2-.63a2.45 2.45 0 0 1 .95-2.63c.58-.44.23-.53-.17-.68a1.3 1.3 0 0 0-.26-.27Z"/><path class="cls-52" d="M329.89 168.48c3.32-1.64 6.75-1.32 10.2-.5a43 43 0 0 1 10.91 4.66 50.8 50.8 0 0 0-17 1.48c-13.21 3.65-24.72 9.88-32.51 21.69-2 3-4.75 1.89-7.4 1.25 2-1.93 3.49-4.29 5.36-6.33 5.37-5.89 12.14-9.71 19.26-13a47.3 47.3 0 0 0 8.9-4.83c1.56-1.12 2.54-2.45 2.28-4.42Z"/><path class="cls-55" d="M242.8 315.59a5.94 5.94 0 0 1 1.4-3.66c1.87-2.43 1.25-4.59-.46-6.62a24.4 24.4 0 0 0-5.64-5.13c-3-1.85-4-1.64-5.81 1.34l-5.74-8.34c6.2 1.4 12.25-.83 16.82 4.8 3.78 4.64 8.35 8.64 12.86 13.22-5.07.3-9.32 2.15-13.43 4.39Z"/><path class="cls-66" d="M383.82 262.47c-3.87 4.66-7 10.27-11.78 13.74-5.59 4.09-6.69 10.24-9.73 15.44-2.12 3.65-4.39 6.58-8.83 7.85.65-5.23 2.86-9.71 5.53-14 5.66-7.13 12-13.71 17.91-20.6a9.65 9.65 0 0 1 5.57-3.05c.51-.13 1.27-.39 1.33.62Z"/><path class="cls-37" d="M223.87 93c-9.56 5-15 13.27-18.78 22.89-.5 1.29-.72 2.83-2.7 2.87-1.28 0-2.73 1.08-3.76-.19s-.1-2.6.4-3.78c3.35-7.83 7.58-15.07 14.87-19.92a14.09 14.09 0 0 1 9.97-1.87Z"/><path class="cls-64" d="M414.19 209.38c2.56 6.85 2 13.92 1.53 21-.09 1.33-.45 2.65-.47 4 0 3-2.37 3-4.28 3.34-1.21.24-.84-.78-.76-1.46.24-2.15.51-4.29.69-6.44.88-10.52-.42-20.69-4.85-30.37 2.57-.59 3.55 1.49 4.76 3 1.67 1.96 2.19 4.61 3.38 6.93Z"/><path class="cls-37" d="M214 258.32a20 20 0 0 1 1.21-14.41 40.45 40.45 0 0 1 16.6-18.12c1-.6 2.54-2.14 3.72-.47 1 1.46.47 3.19-.69 4.55a7.58 7.58 0 0 1-1.86 1.58c-10.49 6.03-16.44 15.21-18.98 26.87ZM329.89 168.48c1.73 1 1.48 2.13.24 3.46-2.89 3.11-6.7 4.73-10.43 6.39-7.27 3.24-14.08 7.09-19.53 13a61.03 61.03 0 0 0-3.74 4.47 2.35 2.35 0 0 1-2.27 1.24c2.9-8.73 9.37-14.51 16.61-19.49 1.2-.83 3.39-.22 5.12-.3 3.67-.16 4.32-.74 4-4.31-.12-1.28.61-1.39 1.28-1.67a34.4 34.4 0 0 1 8.72-2.79Z"/><path d="M378.41 17.5a46.59 46.59 0 0 0 7.42-4l20.28-10.24c1.61-.81 3.24-1.74 4.89-.34a225.62 225.62 0 0 0-23.55 11.89 11.09 11.09 0 0 1-7.76 3.92L321.24 49c-2.7 1.4-5.41 2.77-8.31 4.26 0-2.3 1.76-2.56 3-3.2q31.22-16.32 62.48-32.56Z" style="fill:#f7e8b8"/><path d="M184.74 311.92a60 60 0 0 0-33.37 1.26c-5.71 1.81-10.77 5-16.38 7.07-9.7 3.53-19.45 5.11-29.48 1.45.38-.82.63-1.91 1.91-1.39 9.23 3.73 18 1 26.66-2 7.06-2.48 13.39-6.69 20.79-8.44 12.19-2.88 24-1.59 35.62 2.73Z" style="fill:#e4af5f"/><path class="cls-50" d="M284.14 149.54c1.28-6.11 2.59-12.19 2.71-18.47a68.3 68.3 0 0 0-1.57-17.17c-.3-1.27-.76-2.69 1.2-2.64 1.6 0 4-2.08 4.67 1.35a52.77 52.77 0 0 1 .9 6.1c.74 11.14-2.56 21.29-7.91 30.83Z"/><path class="cls-29" d="M185.45 115a14.43 14.43 0 0 1-1.49 5c-5.63-10.89-6.12-21.5-1.11-32.3 3-5.58 5.8-11.34 10.83-15.55a30.71 30.71 0 0 1 4.26-3c.65-.39 1.3-.73 1.82.18 0 1.56-1.21 2.33-2.14 3.24-6.13 6-9.83 13.38-12.35 21.42a27 27 0 0 0-.45 15.83 20.66 20.66 0 0 1 .63 5.18Z"/><path class="cls-64" d="M221.79 67.84c4.78-2.34 9.93-1.5 14.8-1a62.52 62.52 0 0 1 21.18 6c12.29 6 20.07 15.94 25.28 28.22-1.68.64-2.44-.12-3.31-1.61C272.84 87.62 264 77.79 251.33 72a50.5 50.5 0 0 0-25.54-4.36c-1.33.14-2.67.15-4 .2ZM262.71 104.59c-3.81 1.8-6.85 1.34-10-2-7.32-7.7-16.78-10.74-27.22-11.1l-2.81-.13c11.6-4.84 35.97 3.85 40.03 13.23Z"/><path d="M282.77 343.34c-3.84 2.72-4 2.7-7.18-.31a15.09 15.09 0 0 0-12.4-4.38 16.46 16.46 0 0 1-10.77-2.31c6.22-5.43 22.22-4.56 30.35 7Z" style="fill:#b96f29"/><path d="m247.83 333.75-2.54-2.2c10.2-8.6 26-8.29 37.11.57a35.11 35.11 0 0 1 5.92 5.83c.42.53 1.51 1 .63 2-3 .33-5.07-1-7.23-3.11-8.34-8.16-20.52-9.52-30.73-3.79-.99.57-1.99 1.2-3.16.7Z" style="fill:#e0ad5f"/><path class="cls-72" d="M377.31 252.14c12.66-15.27 15.9-32.86 13.46-52a62 62 0 0 1 1.46 30.7 57.82 57.82 0 0 1-2.51 9.21c-.74 1.9-1.27 3.95-3.63 4.62a1.74 1.74 0 0 0-1.1 1c-.61 4.51-4.99 4.49-7.68 6.47Z"/><path class="cls-35" d="M362.83 333.08a7.08 7.08 0 0 1-3.79 1c8.48-14.56 40.09-24.89 56.62-18.63-.42 1-1.5.9-2.27 1.28-7.27.11-14.55-.21-21.71 1.64-9.09 2.36-17.47 6.08-24.69 12.16a16.87 16.87 0 0 1-4.16 2.55Z"/><path d="m397.48 244.15 2.41 1.13a27.89 27.89 0 0 1-7.43 3.06 12.09 12.09 0 0 0-1.73.57c-1.52.73-4.15 1-3.82 2.88s2.81.74 4.33.86c4.33.34 5.18 1 6.21 5.26a1.12 1.12 0 0 0 1.09.88c.64 1.84-.78 2.74-1.81 3.74a1.56 1.56 0 0 1-2.21 0c-1-.91-.7-2-.23-3 .22-1.15 2-2.16 1-3.25s-2.55-.86-4.05-.71c-3.11.3-5.84 1.84-8.85 2.41-1.76.33-4 1.18-4.81-1.09-.78-2.1 1-3.46 2.72-4.22 2.64-1.18 5.18-2.14 5.94-5.5.35-1.5 2.28-1.54 3.67-1.79 2.51-.51 5.09-.85 7.57-1.23Z" style="fill:#bb5027"/><path class="cls-72" d="M345.5 179.1c1.78-.25 4.49-.34 4.44-2.19-.05-2.08-2.75-2-4.63-2.18a4.16 4.16 0 0 1-1.09-.44c9.64-1 16.77 3.22 22.64 10.51 3.6 4.49 7.37 8.78 8 15.26-2.4-3.15-3.7-6.56-6.18-9.2-5.34-5.66-11.64-9.33-19.54-10-1.35-.12-3-.02-3.64-1.76Z"/><path class="cls-41" d="M424.66 312c-4-2.38-8.45-3-12.88-3.62-17.36-2.25-33 2.38-47.49 11.88-4.49 2.95-8 7-12.15 10.35a41.12 41.12 0 0 1 14.18-13.85c18.39-11.15 37.77-14.33 58.34-6.63.38.15.77.29 1.14.46a2.81 2.81 0 0 1 .51.38c-.23.83-.96.88-1.65 1.03Z"/><path d="M362.83 333.08c9.88-9.88 22-15 35.69-16.82a41.71 41.71 0 0 1 14.87.5 28.49 28.49 0 0 1-13.06 2.36c-10.66-.53-20.14 3.58-28.34 10.19a19.16 19.16 0 0 1-9.16 3.77Z" style="fill:#e2ae5f"/><path class="cls-75" d="M278.76 347.91c-5.71-1.06-11.56-.29-17.27-1.27-.88-.15-1.85.14-2.59-.62-.41-3-3.14-3.94-5.26-5-4.69-2.35-9.15-5.65-14.9-4.93-1.48.18-2-1.09-2.71-2.08l1.88-1c3.28-3.56 3.31-3.58 6.78-.06a24.39 24.39 0 0 0 7.32 5 128.11 128.11 0 0 0 28.61 9.34c-.52.9-1.29.44-1.86.62Z"/><path class="cls-37" d="M312.69 273.6c0 1.18.75 2.09 1.19 3.41-1.94.31-3.81.58-5.68.92a42.72 42.72 0 0 0-18.78 8.13 13.85 13.85 0 0 1-10.23 3.17c-.33-1.69 1.1-2.39 2-3.15a64.82 64.82 0 0 1 28.43-13.22c1.07-.2 2.38-.58 3.07.74Z"/><path d="M238.73 177.82c.88 1.52-.65 2-1.29 2.69-7 7.94-14.68 15.29-21.18 23.68a89.4 89.4 0 0 0-18.59 46c-1.62 15 4.15 26.61 15.94 35.56a3.09 3.09 0 0 1 1.43 1.92c-14.39-8.75-21.12-24.48-18.32-41.24 3.65-21.83 14.27-39.75 29.6-55.27 4.26-4.34 8.28-8.89 12.41-13.34Z" style="fill:#f7dcad"/><path d="M361.48 176.84c-10.9-8.22-23.27-12-36.83-12-2.46 0-2.31-1.39-2.11-3a2.78 2.78 0 0 1 2.32-1.25 42.21 42.21 0 0 1 27.47 6.92 52.66 52.66 0 0 1 8.92 8c.36.36.63.8.23 1.33Z" style="fill:#c77a2b"/><path class="cls-38" d="M436.38 303.93c-1.57.39-2.77-.42-3.9-1.28a8.8 8.8 0 0 0-6.52-1.89 11.64 11.64 0 0 1-4.15-.72c-.7-.2-1.84-.39-1.66-1.43s1.31-.71 2.06-.89c3.1.44 6.16.45 8.9-1.32 1.18-.77 2.45-1.7 2.39-3.34s-1.5-2.48-2.89-2.74c-4.19-.78-7-3.77-10.29-6.06-.36-.25-.47-.85-.7-1.29a5.42 5.42 0 0 1 2.93.81c2.87 1.36 5.51 2.84 8.94 3.24 4.78.54 6.92 7.62 3.83 11.42-1.99 2.46.95 3.63 1.06 5.49Z"/><path class="cls-78" d="M373.48 277.9c5.37-6.7 10.6-13.24 15.86-19.76a6.37 6.37 0 0 1 1.64-1.38c.92-.55 2.19-.82 2.89-.15s-.29 1.63-.71 2.37c-3.76 6.62-8.46 12.56-13 18.6-2.16 2.85-4.36.81-6.68.32Z"/><path class="cls-37" d="M185.45 115c-3.36-7.92-3.26-15.85-.29-23.87C188 83.46 192 76.54 198 70.92a3.7 3.7 0 0 0 1.45-1.92c3.55-3.59 7.48-6.48 12.8-6.69-2.05 1.36-4.15 2.65-6.13 4.1C193 76 185.33 88.56 185.39 105.2a17.72 17.72 0 0 0 .69 4.86 5.48 5.48 0 0 1-.63 4.94Z"/><path d="M291 287.58a47.45 47.45 0 0 1 22.91-8.68c2.49-.23 1.79 2.54 2.39 4 .68 1.61-.78 1.47-1.76 1.55a43.92 43.92 0 0 0-15.59 4.29 1.84 1.84 0 0 1-1.74.16 14.42 14.42 0 0 0-6.21-1.32Z" style="fill:#bc7229"/><path d="m98.75 400.33 2 .49a202.68 202.68 0 0 1-35.11.37 128.77 128.77 0 0 1-30.19-5.68c-9.87-3.25-19-7.74-26.37-15.35-1.13-1.18-2-2.56-3-3.85.84-1 1.46-.7 2.21.22 8.8 10.77 20.86 16 33.81 19.55 18.59 5.14 37.57 5.34 56.65 4.25Z" style="fill:#fbdfaf"/><path class="cls-33" d="M408.11 260.13c-3.41 8.51-8.36 16.14-13.71 23.52a4.58 4.58 0 0 1-5.73 1.64c-.73-1.28.23-2.16.83-3a195.61 195.61 0 0 0 11.18-18c1.23-2.24 3.39-3.53 5.59-4.66.6-.3 1.58-.95 1.84.5Z"/><path class="cls-41" d="M294.14 110c.24 4.08 1.27 8.06 1.32 12.18.12 11.11-3.24 21.18-9 30.46-3.68 5.88-7.42 11.71-10.76 17.78l-2.83 2.3-.4-.29c3-5.12 5.68-10.48 9.11-15.31C290.86 144 295.3 129.74 293 113.6c-.15-1.1-1.63-3.2 1.14-3.6Z"/><path d="M301.21 289.84c7.56-3.36 15.35-4.86 23.59-3.08.65.14 2 .16 1.51 1.36-.64 1.46-.77 3.77-3.24 3.42a33.23 33.23 0 0 0-10.44 0 8 8 0 0 0-2.11.33c-3.58 1.83-6.59.99-9.31-2.03Z" style="fill:#a86027"/><path d="M247.83 333.75c2.79-1.2 5.17-3.14 8.19-4a26.91 26.91 0 0 1 27.86 8c.73.86 1.4 1.9 2.78 1.25 1.21-.56 1.57.61 2.29 1-3.66 2.51-3.66 2.51-6.62-.54a25.93 25.93 0 0 0-30.74-5.2c-1.51.74-2.65.82-3.76-.51Z" style="fill:#c97d2b"/><path d="M227.94 62.93c6.35-1.69 12.72-1.42 19.13-.35 17.2 2.88 29.79 12.55 39.05 26.86a41.37 41.37 0 0 1 5 9.83c-2.18.79-2.3-1.11-2.87-2.28-6.12-12.69-14.95-22.74-27.92-28.76a59.35 59.35 0 0 0-28.71-5.4c-1.22.06-2.45.06-3.68.1Z" style="fill:#cb7f2c"/><path class="cls-78" d="M420.27 285.94c-2.75 1.15-4.87.18-7.25-.7 3.48-6.16 6.92-12.12 10.23-18.16 1.06-1.95 1.86-1.37 2.87-.09a7.19 7.19 0 0 1-2.27 10.37c-1.09.57-2.34.86-3.39 1.48-3.46 2.06-3.6 4.36-.19 7.1Z"/><path class="cls-35" d="M342.33 186c-4.08 2-8.78 1.71-13 3.5-5.64 2.41-10.87 5.28-14.83 10.1-1.56-.13-3.26 0-1.21-2.25a48.13 48.13 0 0 1 21.93-13.71c3.19-.95 5.55-.85 7.11 2.36Z"/><path class="cls-50" d="M192.41 122.25a64 64 0 0 0 13.68 10.32c.68.38 2.49.49 1.4 2-.89 1.22-1.31 3.77-3.33 3-4.56-1.77-9.27-3.61-11.65-8.42a7.3 7.3 0 0 1-.1-6.9Z"/><path d="M200.27 315.83c-2.31 1-4.38-.47-6.51-.82-20.22-3.38-38.17 2-54.56 13.74a100.47 100.47 0 0 0-19.67 19c-.51.63-.76 2.11-2.22 1.54C127.4 336 139.43 324.93 155 318.43c14.71-6.14 29.83-7.88 45.27-2.6Z" style="fill:#f7e1b4"/><path class="cls-85" d="M276.73 320.69c-1.49 1.18-2.65-.38-4-.46-8.26-.52-16.45-.7-24 3.64a19.38 19.38 0 0 0-5.84 5.38c-3.12-1.91-4.32 1.43-6.43 2.38 3.25-5.37 8.07-8.74 13.69-11.13a34 34 0 0 1 20.85-2.3 12.4 12.4 0 0 1 5.73 2.49Z"/><path d="m391.17 289.24-.51-1.33c4.54-1.58 9.25-1.33 13.92-1.2a76.11 76.11 0 0 1 22 3.93c.92.31 2.07.32 2.58 1.42-1.2 2.63-3.19 3.32-6.55 2.13a85.34 85.34 0 0 0-11.49-3.19c-5.36-1.07-10.76-.86-16.16-.89-1.32-.05-2.69.14-3.79-.87Z" style="fill:#dfab5c"/><path d="M373.31 293.07a12.57 12.57 0 0 1 4.42 2.58 122.78 122.78 0 0 0-23.51 10.76 2.13 2.13 0 0 1-2.52.12c-1.28-.84-2.57 0-3.85.15-.34-1.61 1.09-1.87 2-2.33 6.47-3.35 12.9-6.78 19.4-10.09a9.13 9.13 0 0 1 4.06-1.19Z" style="fill:#dca556"/><path d="m186.61 233.67 2 .56c1.13.63.9 1.64.83 2.68a42.69 42.69 0 0 0 4 21.72c1.28 2.68 1.74 5.65 3 8.32l2.6 6.44a49.41 49.41 0 0 1-9.77-13.93c-.23-2.25-1.22-4.28-1.9-6.39-1.79-5.53-1.89-11.2-1.74-16.92a3 3 0 0 1 .98-2.48Z" style="fill:#dfab5d"/><path d="m260.09 297.29-2.07-.22c3.33-4.43 8-3.9 12.54-3.54 2.62.21 1.72 2.86 2.29 4.42s-.9 1.49-1.82 1.78c-1.66.52-3.32 1-5 1.58-1.38.45-2.84.43-3.53-.87s-1.34-.51-2-.56c-1-.08-2.5 1.87-2.79-.78-.14-1.22-.2-1.21 2.38-1.81Z" style="fill:#a74024"/><path d="M322.23 339.38c2.19-3.5 2.07-6-.11-8.52a8.38 8.38 0 0 0-9.79-2.28 10.93 10.93 0 0 0-6.17 13c.25.95.57 1.89 1 3.16-5.8-6-2.16-15.92 3.91-18.49A10.74 10.74 0 0 1 325 331c1.73 3.31.94 6.15-2.77 8.38Z" style="fill:#b14326"/><path class="cls-50" d="M417 232.76a64.63 64.63 0 0 0-1.86-26.37c5.18 4 5.92 9 6.39 14.07.25 3.77-.41 7.47-.74 11.2a3.66 3.66 0 0 1-1.62 2.51c-.55.43-1.19 1-1.91.54s-.35-1.27-.26-1.95Z"/><path d="M319.58 299c-2.88-.95-5.65-.39-8.32.17-3.09.65-3.13-2-3.73-3.41-.8-1.92 1.45-1.44 2.34-1.77 3.73-1.36 7.65-1.17 11.54-1.1 1.91 0 2.42.75 1.38 2.43-.87 1.42-.67 3.82-3.21 3.68Z" style="fill:#b36a28"/><path class="cls-37" d="M418.58 272c-2.09 3.89-4.25 7.74-6.26 11.66-1.64 3.19-4.14 1-6.26 1.15a1.2 1.2 0 0 1 0-1.16c2.32-4.19 4.61-8.4 7.06-12.51a2.86 2.86 0 0 1 3-1.66c1.35.22 2.59.73 2.46 2.52Z"/><path d="M370.8 74.36c0 .2-.07.3-.26.3-.52.15-.86.88-1.48.55s-.41-.77-.16-1.22a15.36 15.36 0 0 1 5.2-5.43c3.57-2.27 7.08-2.13 10.66-.13a10.94 10.94 0 0 1 2.79 3.87c-.1 2.13.94 4.14.58 6.31-.47 2.92-3.56 4.17-6.25 2.48a1.76 1.76 0 0 1 .42-.74 4.57 4.57 0 0 0 .78-6.37 6 6 0 0 0-6.49-2.94c-2.27.51-4.84.49-5.79 3.32Z" style="fill:#b04326"/><path d="M423.07 216.56c3.79 5 4.53 10.79 4.33 16.8a15.84 15.84 0 0 1-.4 3.06c-.21.93.36 2.73-1.46 2.29-1.56-.39-4.06-.34-3.4-3.24a54.14 54.14 0 0 0 .93-18.91Z" style="fill:#c0742a"/><path class="cls-11" d="M371.24 75.56a3.52 3.52 0 0 1 1.76-2.14c2.29-1.93 4.77-2.84 7.68-1.41a2.89 2.89 0 0 1 1.13.89 5.06 5.06 0 0 1-.26 6c-2 2.72-4.15 2.49-5.63-.73a2.05 2.05 0 0 0 .12 2.53 1.79 1.79 0 0 1 .22.82c.79 1.51 0 1.76-1.34 2s-2.53.91-3.2-1c-.86-2.31-.1-4.66-.48-6.96Z"/><path class="cls-64" d="M334.07 282.92c-4.37 8.77-8 17.76-8.42 27.73-.13 2.82-2.11 2.06-3.8 1.65a3.91 3.91 0 0 1-.92-3.89 72.85 72.85 0 0 1 10.93-24.48c.54-.81 1.08-1.53 2.21-1.01Z"/><path class="cls-11" d="m379.69 18.73 7.76-3.92c.18.25.37.48.53.74 3.87 6.21 3.63 6.93-2.82 10-1.34.64-1.88.59-2.36-.89a14.21 14.21 0 0 0-3.11-5.93Z"/><path class="cls-85" d="M408.11 260.13a8.81 8.81 0 0 0-6.71 4.61c-4 7-8.36 13.78-12.73 20.55-1.63-.12-2.39-.65-1.14-2.27a154.72 154.72 0 0 0 13.85-21.44c1.73-3.21 4.78-5.25 8.55-6.7a12.14 12.14 0 0 1-1.82 5.25Z"/><path class="cls-29" d="M395.15 269.44c-2.75 4.09-5.45 8.22-8.25 12.27-2.08 3-3.35-.62-5.06-.73a1.32 1.32 0 0 1 0-1.45c2.35-3.1 4.33-6.48 7-9.31a6.31 6.31 0 0 1 3.71-2c1.07-.22 2.34-.45 2.6 1.22Z"/><path class="cls-41" d="M238.94 70.18c10 1.47 18.18 6.16 25.4 12.82-8.76-3.46-17.92-6.09-25.4-12.82Z"/><path class="cls-37" d="M267.13 266.54a141.34 141.34 0 0 0 9.34-22.37c.32-1 .89-1.39 1.76-.68s3.11.74 2 3c-3.62 7.16-7.6 14.08-13.1 20.05Z"/><path class="cls-55" d="M394.29 259.46c.16 1.05-.36 2.55 1.17 2.81 1.17.21 1.6-1.06 2.13-1.92.32-.52.64-1 1-1.56 1.58-2.93 3-6 6.37-7.37 1.83-.72 3.65-1.15 5.47 0a3.66 3.66 0 0 1 .51 2.62c-5-.65-7.83 2.75-10.8 5.79-1.27 1.3-2.17 2.94-3.31 4.37s-2.71 2.18-4.26 1-.31-2.56.41-3.75c.37-.67.86-1.32 1.31-1.99Z"/><path class="cls-94" d="M334.07 282.92c-3.2 2.3-4.43 6-6.25 9.23a59.65 59.65 0 0 0-5.94 16 7.23 7.23 0 0 0 0 4.17c-2.21-.1-2.35-1.34-2-3.17a69.88 69.88 0 0 1 14.4-29.52c.76-.95 1.81-1.69 2.14-2.95a2 2 0 0 1 1.36-2.12 1.5 1.5 0 0 1 .08 2.14c-1.32 2.02-2.53 4.14-3.79 6.22Z"/><path d="M391.17 289.24c10.76-.67 21.27.38 31.39 4.39a5.48 5.48 0 0 0 6.44-1.53c.16-.34.22-.76.72-.78a5.2 5.2 0 0 1 2.56 1.2c-2.34 3.21-5.67 3.75-9 2.47-9.61-3.75-19.54-4.53-29.68-4-1.32.1-2.51.09-2.43-1.75Z" style="fill:#ca7d2c"/><path d="M312.69 273.6c-4.8-.06-9.3 1.37-13.64 3.17-7.29 3-14.48 6.32-19.85 12.46-.76.13-1.49.73-2.31.16 7.73-9.21 22.43-16.07 38.79-18-1.1.77-2.34 1.11-2.99 2.21Z" style="fill:#e4af60"/><path class="cls-57" d="M383.82 262.47a11.91 11.91 0 0 0-7.7 4.24c-5.5 6.44-10.89 13-17.11 18.76 1.75-3.9 4.83-6.82 7.52-10 4.1-4.84 8.38-9.55 12.61-14.28 2.12-2.37 5.26-2.48 8.53-3.83a22.55 22.55 0 0 1-3.85 5.11Z"/><path d="M418.58 272c-2.6-2.63-3.43-2.7-5.34.33-2.55 4.06-4.8 8.31-7.18 12.48-1 .11-1.38-.2-.82-1.19 3.18-5.62 6.26-11.29 9.56-16.83 1.41-2.36 4-2.86 7.95-1.93-1.42 2.41-2.75 4.77-4.17 7.14Z" style="fill:#a35c26"/><path class="cls-60" d="M398 284.76c-1 .05-2.39.44-1.25-1.43l10-16.6c.43-.71.87-1.53 1.85-.61s2.69.89 4 1.57c-1.18 2.61-2.17 5.19-4.09 7.27-1.62.78-1.15-2.75-2.87-1.45-1 .73-1.31 2-2.07 3-1.97 2.62-2.78 6.1-5.57 8.25Z"/><path class="cls-42" d="M374.1 330.36c6.09-5.82 18.2-9.91 26.92-8.93Z"/><path d="M373.31 293.07c-8.15 3.67-15.9 8.13-23.83 12.23a9.18 9.18 0 0 0-1.63 1.38l-.86.4c-3.74 2.69-7.68 5.09-11.58 7.53-1.09.69-2.55 2.22-3.66-.15 9-6.72 19.25-11.17 29-16.56 2.68-1.48 5.43-2.84 8.16-4.24a5.1 5.1 0 0 1 4.4-.59Z" style="fill:#fae1b3"/><path d="M331.75 314.46c1.49 1.63 2.42-.14 3.32-.72 3.84-2.47 7.54-5.17 11.92-6.66-.89 1.39-3.39 1.93-2.26 4.42.24.53-.48.8-.89 1.06l-9 5.8c-1.11.71-2.27.72-2.94-.42s-2.28-2.24-.15-3.48Z" style="fill:#dea85a"/><path d="M97.29 385.6c7.48-4.14 12.68-10.47 16.95-18 1.52 3.91 1.53 3.94-1.27 5.94a5.46 5.46 0 0 0-2.62 4.61c0 2.28-1 3.64-3.46 3.71s-4 1.74-5.64 3.35c-1.07 1.07-2.25 2.34-3.96.39Z" style="fill:#f3edca"/><path class="cls-37" d="M398 284.76c1.75-4.28 4.59-7.93 6.8-11.95.37-.67 1-1.46 1.91-1.36s1.11 1.05 1.16 1.89a1.85 1.85 0 0 0 .7 1.62c-1.53 3.38-4.06 6.06-6.3 9-1.13 1.44-2.77.73-4.27.8Z"/><path d="M274.78 300c-1.55 3.17-2.91 6-4.31 8.81-.59 1.17-4.82 1.83-5.7.9a1.21 1.21 0 0 1-.24-.54c-.4-1.71 3-7.38 4.71-7.86s3.38-1.31 5.54-1.31Z" style="fill:#c77c2c"/><path class="cls-102" d="M248 344.92c-.93.72-1.74-.31-2.63-.19-16-7-31.26-5-45.92 4-4.47 2.76-7.91 6.77-12.3 9.59 4.87-6.31 11.29-10.73 18.37-14 14.17-6.61 28.4-6.09 42.48.6Z"/><path d="M399.38 207.55a.92.92 0 0 1-.19.24 3.57 3.57 0 0 1-.45.19c-.22-1.31-.35-2.64-.68-3.92-3.77-14.51-10.19-27.51-21.32-37.9a38.1 38.1 0 0 0-7.14-4.79c2.48-.66 4.09 1 5.74 2.31 8.75 6.83 14.42 15.95 18.91 25.89a59.49 59.49 0 0 1 5.13 17.98Z" style="fill:#f5dbaa"/><path d="M309 198.31c-1.43-1.08-.43-1.78.36-2.59a58.25 58.25 0 0 1 15.24-11.18 44.09 44.09 0 0 1 15.4-4.74c-.18 1.58-1.59 1.47-2.57 1.66-10.53 2.08-19.11 7.43-26.23 15.33-.61.66-1.11 1.51-2.2 1.52Z" style="fill:#a55e26"/><path d="M361.48 176.84c-5-6.78-11.75-11.06-19.57-13.74a34.37 34.37 0 0 0-19.37-1.28c.08-2.06 1.73-1.73 2.95-1.82 14.83-1.12 26.86 4.41 36.53 15.48 1.17 1.35 2.25 2.78 3.37 4.17l-.91.85Z" style="fill:#e7b260"/><path d="m90.83 366.21.82.83c.82.17 1.43.8 2.23 1 2.11.53 3.24-.41 3.18-2.61 0-.63-.64-1.58.52-1.7 1-.1 1.4.7 1.61 1.55.71 2.78-2 5.66-5.06 5.4s-6.53-3.12-7-6a8.07 8.07 0 0 1 4.91-8.95 8.6 8.6 0 0 1 8.61 1.1c1 .53 2.15.95 2.7 2.1.37 1.72 3.84 2.26 2 4.94-1.26-.36-1-1.54-1.36-2.28a9.66 9.66 0 0 0-10.28-5.07c-4.31.85-5.71 5.62-2.88 9.69Z" style="fill:#f1e8b0"/><path class="cls-107" d="M275.69 70.89c-1.63.08-2.5-1.27-3.65-2-12-7.91-25-12.41-39.51-11.53-2.05.12-4 .89-6.12.62 7.53-2.79 15.19-2.25 22.74-.45a65 65 0 0 1 25.37 12.09c.48.38 1.1.54 1.17 1.27Z"/><path class="cls-108" d="M368.52 284.19c5.65 5.39 12 9.13 19.85 9.48-1.14 2.08-3.75 2.38-8.31 1-6.66-2.08-11.88-6.67-11.54-10.48Z"/><path d="M196.48 267c-2.57-3.76-3.66-8.16-5.35-12.29a34.42 34.42 0 0 1-2.3-19 4.59 4.59 0 0 0-.25-1.47c1.62.14 2.22.77 2 2.59a36.75 36.75 0 0 0 3.07 20.43 35.75 35.75 0 0 1 2.83 9.74Z" style="fill:#c87c2c"/><path class="cls-85" d="M276.94 267.06c-.14-1.7 1.18-2.76 1.84-4.1 1.46-2.91 2.86-5.86 4.47-8.69s1.26-5-1.66-6.66c.79-3.37 2.6-.94 4-.63s2.72.61 1.88 2.82a53.8 53.8 0 0 1-10.53 17.26Z"/><path class="cls-47" d="M342 334.54c-.75-2.66-.17-4.39 2.31-5.67 3.71-1.9 7.27-4.12 11-6-3.62 4.73-7.16 9.58-13.31 11.67Z"/><path class="cls-94" d="M286.75 266.52c.48-3.32 3.14-5.61 4.1-8.77s.62-4.33-2.79-5.14c.8-2.61 1.56-4.69 5.28-3.29 2.28.87 2.61 1.43 1.59 3.49-2.38 4.79-4.54 9.69-8.18 13.71Z"/><path d="M306.29 48.66c1.67-2.08 3.67-1.12 5.16-.1s.66 2.77.06 4.18c-1.51 3.55-3.81 5.43-6.41 5.26-.8-3.27.76-6.23 1.19-9.34Z" style="fill:#f9bf41"/><path d="M309.68 175.25c-2.15-1.38-1.69-3.52-.89-5.15s2.83-1.09 4.16-.59c2.54 1 5.68 1.47 6 5.13-3.02 1.53-6.18.49-9.27.61Z" style="fill:#fbbf40"/><path d="M277.78 69.81q11.85-6.16 23.72-12.3c.48-.26 1.21-1.24 1.68 0 .38 1-.66 1.15-1.21 1.44-4.44 2.34-8.9 4.63-13.36 6.94-2.73 1.41-5.47 2.8-8.2 4.2-.88.49-1.78 1.35-2.63-.28Z" style="fill:#f0e0b1"/><path d="M284.21 317.71c-.88.8-1.56 0-2.2-.36-14.45-7.21-28.3-5.81-41.69 2.77-.85.54-1.62 1.32-2.77 1.15a39.87 39.87 0 0 1 46.66-3.56Z" style="fill:#f2d39a"/><path d="M212.25 62.29c-5 .84-8.76 4-12.8 6.69-7.09 3.32-11.19 9.36-14.69 16-.51 1-.46 2.41-1.91 2.75 5.47-15.26 17.74-22.57 32.67-28-1.01 1.87-2.33 1.96-3.27 2.56Z" style="fill:#eed4a3"/><path d="M395.15 269.44c-2.18-1.38-3.88-.18-5.44 1.13-3.42 2.86-5.44 6.79-7.87 10.41-1.22-.39-1.29-1-.54-2q4.5-6 8.9-12.15c.6-.83 1.1-1.29 2.25-.74a7.63 7.63 0 0 0 5 .36Z" style="fill:#ca7f2c"/><path d="M186.61 233.67c-.34 8.27-.16 16.47 2.89 24.35.15.4-.12 1-.19 1.44a46.52 46.52 0 0 1-4.65-24c.1-1.3-.04-2.69 1.95-1.79Z" style="fill:#f8daab"/><path d="M370.84 282.54c.26-1.73.92-2.46 2.49-2.36a20.16 20.16 0 0 1 13.4 6 11.83 11.83 0 0 1 1.6 2.22c.44.73.78 1.78-.05 2.2-1 .53-1.24-.71-1.63-1.36-2.8-4.68-10.59-8.11-15.81-6.7Z" style="fill:#04562d"/><path d="m429.71 291.32-.72.78a74.42 74.42 0 0 0-36.79-4.25 13.22 13.22 0 0 1-1.54.06c-.15-1.38 1-1.1 1.67-1.17 12.8-1.3 25.32-.19 37.38 4.58Z" style="fill:#ecd3a2"/><path class="cls-119" d="M317.24 300.55c.75.38 2.37-.33 2.7.95a4.28 4.28 0 0 1-.76 3.17c-1 1.26-2.72 1-4 .65s-2.38-1.43-3.93-1.45c-.93 0-.9-1-.9-1.67 0-.94.73-1.17 1.46-1.25 1.75-.16 3.48-.26 5.43-.4Z"/><path d="M341.84 298.88c-1.81-1.14-1.53-2.82-.78-4.27.85-1.67 2.49-1.09 3.77-.54 2.22.95 5.31 1.13 5 4.77a42.87 42.87 0 0 1-7.99.04Z" style="fill:#f6be43"/><path d="M320 284.07c2.67-2 4.37-4.93 8.06-3.69.9.31 2.74.28 2.08 1.74s-1 3.65-3.39 3.32c-2.08-.29-4.14-.83-6.75-1.37Z" style="fill:#c1752a"/><path d="M391.65 93c-.45 2.16-1.48 2.63-3.22 2.21a5.07 5.07 0 0 0-5.32 1.5 2.92 2.92 0 0 1-3.91.53 4.53 4.53 0 0 0-5.16.15c-1.06.72-2.09.82-2.85-.89Z" style="fill:#f0ebcc"/><path d="M188.43 111.38c-1.08 5.25-3 10.3-2.61 15.87A35.92 35.92 0 0 0 188 137a4.7 4.7 0 0 0 2.87 3c-2.35 1.6-2.94-.5-3.55-1.88-4-9.12-3.49-18.01 1.11-26.74Z" style="fill:#edcd9a"/><path d="M311 305.09c2.2-1 3 .84 3.75 2.12s-.65 2.27-1.65 2.82c-2.2 1.22-4.48 2.6-7 .69 1.09-2.33 3.25-3.72 4.9-5.63Z" style="fill:#f9c043"/><path d="M429.89 306.44c-5.14-1.3-9.76-4.11-15.06-5.06a61.5 61.5 0 0 0-19.52-.64c-1.37.19-2.84.6-4.16-.34 12.29-2.2 24.21-1.18 35.6 4.2 1.09.52 2.1 1.22 3.14 1.84Z" style="fill:#efd19b"/><path d="M417 232.76c.35.52-.27 2.45 1.42 1a4.93 4.93 0 0 0 1.89-3.35c.39-3.33.13-6.74 1.22-10 1.19 5.3.05 10.48-.82 15.66-.23 1.42-1.53 1.07-2.51.91s-1.88-.26-1.69-1.62c.15-.85-.1-1.8.49-2.6Z" style="fill:#9f5b25"/><path class="cls-42" d="M196.07 110.26c3-5.5 6.53-9.3 11.29-12-3.57 3.85-4.81 9.74-11.29 12Z"/><path d="M315.05 273.55c2.41.81 1.28 3.33 2.27 4.94 1.13 1.86 1.76 1.92 3.46 1 2.27-1.17 4.52-2.88 7.36-1.6-4.14.67-7.24 3.1-10.37 6.66a27.34 27.34 0 0 0-3.73-9.91c-.41-.64.34-1 1.01-1.09Z" style="fill:#efdcad"/><path d="M61.15 381.35c-3.57.69-6.78-.83-10-1.76a53.79 53.79 0 0 1-12.56-5c-.94-.56-1.9-.37-2.85-.57.58-2 1.68-1.41 3-.74a99.3 99.3 0 0 0 22.41 8.07Z" style="fill:#f6dead"/><path d="M299.48 140.83c1-.2 2-.49 3-.6 5.13-.6 5.14-.58 3.11-5.07 2.68 1.55 2.93 2.17 1.94 4.9 1.16.62 1.94-1.12 3.07-.51-2.34 2.57-8.73 4.42-11.45 3.11-1.27-.61.18-1.21.33-1.83Z" style="fill:#f5ebca"/><path d="M290.8 302.58c-.72.95-1.38 1.84-2.06 2.71-2 2.55-3.5 2.62-5.62.09-1.31-1.55.34-2.31 1.23-2.65 1.94-.73 4.03-1.5 6.45-.15Z" style="fill:#aa6227"/><path class="cls-119" d="M402 224.44a45.38 45.38 0 0 1-.82 15.59c-.38 1.53-1.08 2.36-3.11 2.51.76-3.14 2.1-6 2.51-9s.94-6.08 1.42-9.1Z"/><path d="M282.48 345.61c2.7-1.58 5.17-3 7.62-4.48a1.6 1.6 0 0 1 2.37.55c.81 1.06 0 1.43-.71 1.89-2.69 1.87-5.24 4.28-9.28 2.04Z" style="fill:#a96127"/><path d="m370.17 291.38-8.71 3.91 3.88-7.29c.55-1 1.12-.52 1.65 0 1.01 1 1.95 2.08 3.18 3.38Z" style="fill:#a96227"/><path class="cls-37" d="M352.84 183.55c1 3.46.62 3.95-3 3.55-1.09-.12-2.15-.42-3.22-.64.95-4.31 1.46-4.57 5.93-3Z"/><path d="m273 307.73 2.92-5.61c.4-.76.95-1.45 1.91-1.13 1.27.44 3.35.17 3.6 1.58s-1.79 1.13-2.76 1.69c-1.84 1.07-3.48 2.45-5.21 3.7Z" style="fill:#b86d28"/><path d="M276.45 257.59c.77 1.16-.21 1.94-.71 2.73a87 87 0 0 1-14.25 17.25c-.54.5-1 1.47-2 .64 6.75-5.97 12.05-13.13 16.96-20.62Z" style="fill:#f3d9aa"/><path d="m376.21 81.53-.13-.06a2.79 2.79 0 0 1-1.23-2.9c.06-.78.38-1.51 1.23-1.43s.51.9.57 1.46c.22 2 1.53 2.59 3.27 1.43 2.29-1.54 2.77-3.89 1.41-7v-.23h-.24c-.62-.25-1.41-.4-.87-1.39 4.5 1.23 5.62 6 2.2 9.38l-.5.34c-1.92.87-3.71 1.78-5.71.4Z" style="fill:#ece4ad"/><path d="M224.47 338c-5.73-1.86-11.51-1.51-17.3-.41-.91.17-1.77.59-2.63-.07 8.57-3.11 17-1.92 25.37 1Z" style="fill:#e7d1a0"/><path d="M286.09 295c-.46-3.05 1.24-4 3.91-4 1.74 0 3.48-.07 5.22 0a3.15 3.15 0 0 1 3.1 2.1 2.66 2.66 0 0 1-1.38 3.38c.63-4 .23-4.43-4-4.41-.92 0-1.85 0-2.77.07-2 .08-3.68.43-2.14 3 .21.36.34.93-.12 1s-.84-.42-1.27-.66Z" style="fill:#f0dfbb"/><path d="M340.88 182.08c-.78-1.93.68-2.6 2-3.09s2 .8 2.42 1.74c.77 1.76 1.46 3.63.16 5.5-2.24-.63-2.88-2.97-4.58-4.15Z" style="fill:#f5be43"/><path d="M350.52 307.14c1.7 0 2 1.38 2 2.53s-1.3 1.49-2.27 1.66c-1.63.29-3.39.94-4.77-.71 1.22-1.87 3.11-2.7 5.04-3.48Z" style="fill:#f7c041"/><path d="M472.81 323.75c-1.06 1.34-1.29.83-1.23-.53.17-3.87.34-7.74.46-11.61.09-2.76.1-5.51.15-8.27 1.56.42.83 1.68.83 2.55-.02 5.95-.13 11.91-.21 17.86Z" style="fill:#d2b788"/><path d="M115.57 351.4a.87.87 0 0 1 .17 1.33 164.75 164.75 0 0 0-9.44 13.8c-.27.43-.57 1.2-1.38.62a172.53 172.53 0 0 1 10.65-15.75Z" style="fill:#eacf9f"/><path d="M306.29 48.66c1.6 1 .2 2.22.12 3.24a41 41 0 0 1-1.31 6.1c-2.17-3.44-.55-6.4 1.19-9.34Z" style="fill:#f2e5c2"/><path d="M414.19 209.38c-1.25-.25-1-1.43-1.36-2.21-1.52-3.24-2.82-6.65-6.78-7.76l-1.22-1.52c4.75.9 7.91 4.87 9.36 11.49Z" style="fill:#e9ce9e"/><path d="M291.75 322c2.12-.64 2.72-1.91 1.64-3.91a4.78 4.78 0 0 1-.39-2.72c3.36 2.89 3.31 5.57-.05 7.91Z" style="fill:#f3e7c4"/><path class="cls-145" d="M370.27 174.13c-2.64-1.67-4.6-4.22-7.5-5.6-1.86-.88-3.59-1.31-5.53-.53.8-1.72 2.42-1.55 3.65-1.14 3.93 1.31 7.35 3.43 9.38 7.27Z"/><path d="M289.11 307.15c1.11-1.21 2-2.29 3-3.26.4-.38.71-1.53 1.61-.62.66.68.22 1.34-.29 1.85-1.12 1.13-.95 4.65-4.32 2.03Z" style="fill:#a25d26"/><path d="M309.68 175.25c.16-1.11.92-.75 1.62-.73 2.54.07 5.08.08 7.62.12-2.92 2.74-6.08 1.57-9.24.61Z" style="fill:#f6f0d8"/><path d="M341.84 298.88a13.92 13.92 0 0 1 8 0c-2.65 1.5-5.32 1.12-8 0Z" style="fill:#f7f2e0"/><path d="M311 305.09c-.67 2.73-3.25 3.78-4.93 5.63.21-3.13 2.53-4.41 4.93-5.63Z" style="fill:#f7eed2"/><path d="M273.62 310.48c.37-.18.73-.37 1.1-.53 1.09-.46 2.33-2.33 3.28-.71.73 1.24-1.33 1.65-2.23 2.35-.77-.28-1.88.13-2.15-1.11Z" style="fill:#f4e9c6"/><path class="cls-145" d="M375.2 181.06c-2.51-1.71-3.8-4.29-4.92-7 2.38 1.82 3.55 4.48 4.92 7Z"/><path d="M291.06 347.1c-.1-.94.5-1.24 1-1.51.74-.42 1.23-1.42 2.28-1.16.16 0 .32.52.3.78-.1 1.31-1.15 1.49-2.14 1.7-.5.09-.96.09-1.44.19Z" style="fill:#a05e25"/><path class="cls-102" d="M187.16 358.3c-.87 2.56-2.87 4.13-5 5.61a15.65 15.65 0 0 1 5-5.61Z"/><path d="M340.88 182.08c2.41.4 2.74 3.09 4.55 4.15-1 .89-1.53-.44-2.33-.47Z" style="fill:#faf1d5"/><path d="M350.52 307.14c-1.28 1.7-3.44 2.15-5 3.48.64-2.62 2.72-3.21 5-3.48Z" style="fill:#f3e9c9"/><path d="M302.67 130.64h-.24c-.76-1.28-.17-2.59.06-3.84s1-.34 1.55-.17c.24 1.55.17 3.02-1.37 4.01Z" style="fill:#cbbf9a"/><path d="M302.94 117.87c1.95.47 2.61 1.5 1.58 3.49-.88-.71-.12-2.26-1.56-2.36.04-.37.04-.75-.02-1.13Z" style="fill:#e0ba92"/><path class="cls-107" d="M279.67 74a5.32 5.32 0 0 1-4-3.18c1.78.53 2.71 2.09 4 3.18Z"/><path d="M334.65 278c-1.18.81-1.38 2-2.51 1.72-.2 0-.49-.74-.38-.93.5-.87 1.36-.98 2.89-.79Z" style="fill:#dbb87d"/><path d="M436.32 379.32a264.57 264.57 0 0 1-50.16 20.84c-32.37 10-65.37 16.12-99.42 15.27-1 0-2-.12-3.07-.19a4 4 0 0 1-1.81-2c-2.46-5.87-4.81-11.76-5.26-18.21-.13-1.95-.28-3.9.9-5.64a313.88 313.88 0 0 0 45.4-3.72c21.14-3.18 41.65-8.8 62-15.19 18.57-5.84 36.79-12.57 54.26-21.2a3.85 3.85 0 0 1 .89-.21c1.08.89 1.06 2.16 1.09 3.38.19 8.05-1.2 15.89-3 23.69a10.08 10.08 0 0 1-1.82 3.18Z" style="fill:#ead7ab"/><path d="M291.08 429a213.24 213.24 0 0 0 40.65-1.46 344.77 344.77 0 0 0 53.51-11.4 352.66 352.66 0 0 0 42.27-15.83c1 1.08 1.09 1.13.43 2.52a101 101 0 0 1-5.32 10.09A213.36 213.36 0 0 1 396 447.18a7.85 7.85 0 0 1-2.35 2c-9.45 3.87-19.44 5.63-29.4 7.49a144.07 144.07 0 0 1-22 2.26c-2 .06-4.1.32-6.11-.32a109.47 109.47 0 0 1-21.08-6.38c-10-4.28-17.41-11.46-23.29-20.4-.56-.83-1.16-1.76-.69-2.83Z" style="fill:#ead7a9"/><path class="cls-40" d="M430.23 396.19a215.4 215.4 0 0 1-31 12.79 385 385 0 0 1-65 16 181.07 181.07 0 0 1-45.16 1.43c-2.31-1.52-3.07-4.06-4.09-6.39-.7-1.59.07-2.18 1.79-2.08a185.62 185.62 0 0 0 28.58-.75c11.14-1.11 22.16-3 33.16-5a336.25 336.25 0 0 0 46.27-11.68 270.77 270.77 0 0 0 37-16.08c.8-.42 1.54-1.09 2.56-.86a1.72 1.72 0 0 1 .45 2.2c-1.56 3.4-2.18 7.3-4.56 10.42Z"/><path class="cls-34" d="M277.5 389.39c-.65 9.27 2.75 17.56 6.17 25.85a97.81 97.81 0 0 1-26.13-3.59 6.21 6.21 0 0 1-3.43-1.9 516.9 516.9 0 0 1-19.29-24.37 199.49 199.49 0 0 0 42.68 4.01Z"/><path class="cls-30" d="M428.9 453.49c-12.89 11.14-28.14 17.34-44.53 21a107 107 0 0 1-34.59 2.5c-6.85-.71-13.65-1.75-19.64-5.53-4-2.51-5.07-5.33-3.82-9.05.57-1.68 1.41-2.43 3.38-2.19 8.86 1.08 17.69 2.46 26.7 2 6.06-.3 12-1.41 18.06-1.86 5.69 2.65 5.85 8.24.33 13.7a130.86 130.86 0 0 0 31.46-8.8c2.24-.74 4.17-2.33 6.63-2.46a78.49 78.49 0 0 0 15.39-9.95c.61-.19.73.15.63.64Z"/><path d="M406.63 465.94c-9 4.4-18.69 6.78-28.51 8.56-1.8.33-3.59.94-5.68.6 1.86-2.31 4.76-3.6 5.39-6.84.68-3.51-1.6-5.51-3.37-7.83 6.79-1.91 13.7-3.42 20.29-6a83.8 83.8 0 0 0 13.63-6.43c2.91-1.78 5.93-1.63 8.93-1.09 4.21.76 5.49 4 3.32 7.93-2 3.66-5.45 5.78-8.84 7.93-1.37 1.65-3.63 1.81-5.16 3.17Z" style="fill:#c6ad81"/><path d="M393.67 449.15c2.8-4.85 7.13-8.42 10.67-12.66 9-10.79 17.16-22.17 23.22-34.93.24-.49.53-.89-.05-1.3 7.09-3.77 14.31-7.32 21.53-12.55-7 15.63-15.2 29.45-27 40.94a187.27 187.27 0 0 1-18 15.4 27.77 27.77 0 0 1-10.37 5.1Z" style="fill:#c6ac81"/><path d="M436.32 379.32c2.32-9.95 4.22-19.95 3.71-30.25 6.22-3.73 12.85-6.75 19.15-11.31-.74 7.93-2.42 15.2-3.14 22.57-.6 6.17-3.34 10.15-8.77 12.8-3.76 1.87-7.27 4.11-10.95 6.19Z" style="fill:#c7ae83"/><path class="cls-30" d="M291.08 429c7.77 13.37 19.13 21.95 34.09 25.93 3.72 1 7.53 1.84 11 3.7a76.75 76.75 0 0 1-49.52-18c-4.75-3.93-9.4-8-14.05-12-.8-.69-1.87-1.25-2.22-2.72a111.33 111.33 0 0 0 20.7 3.09Z"/><path d="M430.23 396.19c.42-3.24 1.9-6.13 3-9.12.43-1.13.81-2.27 1.22-3.41-.28-.53 0-1 .23-1.42a190 190 0 0 0 33-22.65c-1.35 4.88-2.55 9.2-3.72 13.54a4.15 4.15 0 0 1-1.64 2.18c-9.41 7.14-18.84 14.26-29.3 19.85a20.91 20.91 0 0 1-2.79 1.03Z" style="fill:#8c351e"/><path d="M434.73 382.24c1.18.68-.22.94-.23 1.42-6.57 3.11-13.11 6.27-19.7 9.32-17.48 8.08-35.89 13.25-54.65 17.3a451.53 451.53 0 0 1-42.76 7.23 175 175 0 0 1-29 .95c-1 0-2-.39-3.13.24l3.78 7.67c-6.18-.1-12.24-1.23-18.33-2.16-3.37-.51-5-3-7-5.13-1.33-1.4-2.57-2.87-4.25-4.76 4.66.59 8.74 1 12.81 1.62a185.1 185.1 0 0 0 53.18-.56c20.6-3 41-6.92 61-12.83 16.87-4.97 32.82-12.07 48.28-20.31Z" style="fill:#f6f0de"/><path d="M335.69 381c1.32-7.93 8.11-14.44 17.46-16.3 8.21-1.63 16-1.05 21.68 6.24a11.76 11.76 0 0 1-4.06 1.12 4.49 4.49 0 0 1-2.27-.81c-9.71-6.28-21.5-3.31-27.15 6.82a7.35 7.35 0 0 1-1.48 1.93c-1.28.77-2.82.51-4.18 1Z" style="fill:#ab3f25"/><path class="cls-165" d="M290.71 386.59c2.14-8.45 8.4-12 16.27-13.32a22.36 22.36 0 0 1 12.41 1.21 13.94 13.94 0 0 1 8.12 7.94l-3.74.56a6.62 6.62 0 0 1-2.39-1.87c-6-7.24-20.41-5.3-25 2.94a5.9 5.9 0 0 1-1.7 2.14ZM385.2 367.63c.54-8.71 8.76-16.52 18.36-17.29 5.95-.47 11.77-.24 16 4.92a9.1 9.1 0 0 1-3.67 1.35 6.18 6.18 0 0 1-2.93-.82c-8.92-4.06-18.68-.46-22.62 8.37a7.46 7.46 0 0 1-1.54 2.28 7.66 7.66 0 0 1-3.6 1.19Z"/><path class="cls-166" d="M251.82 385.55c3.59-9.37 17.29-13.34 26.23-7.59 1 .66 2 1.45 2.93 2.19a15.44 15.44 0 0 1 3.29 6.58h-3.61c-2.14-3.47-4.78-6.33-9-7.24-5.49-1.18-10.36-.31-14.13 4.23a8.72 8.72 0 0 1-2.43 2.3Z"/><path d="M438.8 334.83c6.37-2.57 12.53-2.7 18.31 1.56l-3.28 2.05a25.86 25.86 0 0 1-4.15-1 12.92 12.92 0 0 0-9.76 1.1 12.48 12.48 0 0 0-7.37 9.1 7.73 7.73 0 0 1-1 2.52l-3.13 1.33c-.71-6.61 2.41-11.27 7.62-14.84.88-.65 1.83-1.21 2.76-1.82Z" style="fill:#ac4026"/><path class="cls-168" d="M339.87 380c1.71-7 8.13-12.18 16.14-12.93 5.66-.53 10.85.36 14.76 5a8 8 0 0 1-3.69 1.12c-3.14-1.17-6-2.95-9.63-2.81-5.28.21-9.36 2.07-12.1 6.66a4.85 4.85 0 0 1-2 2.3c-1.13.21-2.22.85-3.48.66ZM294.66 386.19c2.07-7.21 10.44-11.74 19-10.26 4.46.78 8.12 2.73 10.12 7.05l-3.16.57a12.91 12.91 0 0 1-3.11-1.95 11.91 11.91 0 0 0-17.23 2.19c-.7.88-1.24 1.91-2.41 2.28Z"/><path d="M388.83 366.44c2.37-12.15 17.14-17.51 27.09-9.83a6.81 6.81 0 0 1-3.11 1.3 9.49 9.49 0 0 1-3.28-.66c-6.57-2.17-12.2 0-15.67 6a7.63 7.63 0 0 1-1.47 1.95 6.69 6.69 0 0 1-3.56 1.24Z" style="fill:#ecdbae"/><path d="M226.88 372a16.36 16.36 0 0 1 15.54 4 13 13 0 0 1 4 9l-4.1-.34c-2.09-6.83-4.46-8.75-11.53-9.27a23.91 23.91 0 0 1-2.41-.49Z" style="fill:#ac4127"/><path d="M255.1 386.06c3.17-9 17.15-11 24.24-3a5.72 5.72 0 0 1 1.32 3.7H278a8.82 8.82 0 0 1-2.24-2c-3.92-4.57-9.74-5-14.38-1.13a13.25 13.25 0 0 1-3.4 2.54Z" style="fill:#f8f0de"/><path class="cls-166" d="M343.38 379.29c3.75-10.4 16.42-13.68 23.7-6.15l-2.88 1c-4.32-1.67-8.64-2.81-12.91.1-1.87 1.27-3.22 3.16-5.09 4.44Z"/><path d="M346.2 378.67c3.26-7.26 12.51-9.59 18-4.53a17.18 17.18 0 0 1-7.21 1 4 4 0 0 0-3.2.77c-2.17 2.09-4.96 2.15-7.59 2.76Z" style="fill:#ead8aa"/><path d="M297.86 386.07c3.54-9.47 17.28-11.11 22.75-2.52l-2.88.26c-1.36-.2-2.4-1.07-3.58-1.65a9.11 9.11 0 0 0-12.28 3.65c-1.3.62-2.67.25-4.01.26Z" style="fill:#a93e26"/><path d="M301.87 385.81c-1.6-.28-.77-1-.29-1.64a10.42 10.42 0 0 1 13-2.77 6.87 6.87 0 0 1 3.11 2.41c-.47.16-1 .5-1.41.44-4.91-.64-9.63.75-14.41 1.56Z" style="fill:#ead7aa"/><path d="M392.39 365.21c1.82-8.83 12.38-12.61 20.42-7.3a5.78 5.78 0 0 1-2.94 1.17c-2.43-.07-4.83-.62-7.3-.08-3.35.73-5.29 3.29-7.55 5.45Z" style="fill:#aa3e26"/><path d="M275.48 386.79c-5 0-10 .32-15-.42a2.29 2.29 0 0 1 .57-2c3.17-4.38 11.81-3.8 14.35 1a1.34 1.34 0 0 1 .08 1.42Z" style="fill:#f7f0dd"/><path d="M275.48 386.79c-4.25-6-11.11-6.16-15-.42l-2.56-.23a11.53 11.53 0 0 1 11.27-6 9.57 9.57 0 0 1 8.75 6.64Z" style="fill:#aa3f27"/><path d="M451.19 339.84a4.09 4.09 0 0 1-2.32 1.31c-5 .07-9.53.87-11.53 6.33l-2.84 1.07c-1.49-1.73-.34-3.27.42-4.77a12.28 12.28 0 0 1 12.18-6.63c1.71.27 3.53.58 4.09 2.69Z" style="fill:#aa3f26"/><path class="cls-168" d="M395 364.45c2.54-6.23 9.17-8.63 14.85-5.37a10.17 10.17 0 0 1-5.45 1.54c-2.33-.1-3.89 1.45-5.68 2.59a16 16 0 0 1-3.72 1.24Z"/><path d="M228.35 374.88c5.94-1.67 12.16 1.29 14.07 6.72.35 1 1.14 2.08-.13 3l-1.73-.41a2.77 2.77 0 0 1-1.39-1.55c-1.41-3.19-4.07-4.65-7.28-5.34a8.06 8.06 0 0 1-2.53-.95Z" style="fill:#f8efdd"/><path d="M439.44 339.84c-2.64 2.34-5 4.86-4.94 8.71l-3 1.61c-.12-5.88 2.7-9.87 7.92-12.32a1.47 1.47 0 0 1 .02 2Z" style="fill:#ead8ac"/><path d="M448.21 405.79c5.1-8.6 9.18-17.71 13.47-26.72-2.8 9.75-7.68 18.48-13.47 26.72Z" style="fill:#baa27a"/><path d="M437.34 347.48c-1.09-2 .38-3.34 1.6-4.37 2.88-2.45 6.16-3.62 9.93-2-.23.2-.43.51-.69.57-4.18.94-7.37 3.61-10.84 5.8Z" style="fill:#ceb589"/><path d="M439.44 339.84v-2c4.91-2.5 9.73-2.87 14.4.6l-2.64 1.4c-3.93-2.84-7.84-2.01-11.76 0Z" style="fill:#c6af83"/><path d="M229.36 376.39c6.61 0 9.69 2.16 11.2 7.84l-2.51-.5c-2.1-2-4.09-4.24-7.26-4.58Z" style="fill:#a94028"/><path d="M468.16 356.84c1.22-9.67 2.49-19.34 3.71-29-.55 9.75-1.41 19.47-3.71 29Z" style="fill:#a18d6a"/><path d="m428.9 453.49-.63-.57c2.05-2.29 4.21-4.49 6.14-6.88a16.84 16.84 0 0 0 3.81-10.3c1.44 5.63-2.16 12.26-9.32 17.75Z" style="fill:#d8cfba"/><path d="M230.79 379.15c3.09-1 5.6.57 7.26 4.58-3.58.32-5.85-1.44-7.26-4.58Z" style="fill:#f3ebd8"/><path d="M406.63 465.94c1.26-1.8 3.31-2.3 5.16-3.14l1.09.07a24.22 24.22 0 0 1-6.25 3.07Z" style="fill:#6c6352"/><path d="M288.75 20.26c1.34 0 2.42 0 2.74 1a2.94 2.94 0 0 1-1.14 3c-1.56 1.32-3.26 2.49-4.94 3.65-4.56 3.13-7 7.64-8.55 12.78-.33 1.07-.32 2.4-1.21 3.09-1.53 1.18-3.37 2.63-5.3 1.43s-.81-3.29-.09-4.74A62.45 62.45 0 0 1 284 22.14a8.43 8.43 0 0 1 4.75-1.88Z" style="fill:#05532c"/><path d="M293.57 21.34c4.43 3.58 4.58 4.06 2.17 8.58a51.31 51.31 0 0 1-14.81 17.81c-2.59 1.9-4.93 2.1-7.63-.22 9.76-6.33 16.7-14.78 20.27-26.17Z" style="fill:#7f9f40"/><path d="M31.87 348.76c-1.11-1.69-1.47-3.16.38-4.51a49.15 49.15 0 0 1 11.48-6.36c1.5-.57 3.24-.65 3.76.75s-1.44 2.95-2.37 3c-5.14.29-8.21 4.17-12.19 6.45-.35.2-.68.43-1.06.67Z" style="fill:#05542d"/><path class="cls-108" d="M48.46 339.92c1.13 1.78 1.29 3.11-.06 4.44-5.24 5.2-11.09 9.44-18.23 11.67a5.72 5.72 0 0 1-1.47.39 1.42 1.42 0 0 1-1.5-.88c-.19-.84.7-.82 1.24-1a39.6 39.6 0 0 0 13-7.42c2.47-2.12 4.56-4.69 7.02-7.2Z"/><path d="M27.7 345.48c2 .08 2.57 1.66 2.7 3.13s-1.47 1.91-2.58 2.16c-2.21.48-4.58 1.33-6.46-.9 1.51-2.33 4.15-3.03 6.34-4.39Z" style="fill:#f8c042"/><path d="M27.7 345.48c-1.58 2.24-4.24 2.91-6.34 4.39.97-3.11 3.5-3.98 6.34-4.39Z" style="fill:#f6ecce"/><path d="M201.34 178.21a7.38 7.38 0 0 1-5-.27 32.61 32.61 0 0 0-17.66-4.94c-.84-1-2.16-.44-3.15-1s-2.07-.78-1.76-2.13a2.23 2.23 0 0 1 2.16-1.87c9.79-.27 18.56 2 25.41 10.21Z" style="fill:#08532c"/><path class="cls-195" d="M174.19 172.74c8.5 4.95 17 7.93 26.54 6.94 1.73-.18 1.8.88 1.87 2.07s0 2.29-1.66 2.36a40 40 0 0 1-24.52-6.72 5 5 0 0 1-2.23-4.65Z"/><path d="M447.31 207c1.49-7.82 4.45-15 9.79-21.08.87-1 2.19-2.62 3.5-1s.7 3.43-.78 4.68c-5.13 4.36-7.3 10.06-7.84 16.57-.15 1.87-1.29 3.71-2.75 4.06-2.62.6-1.36-1.94-1.92-3.23Z" style="fill:#05542c"/><path d="M462.87 185.31c2.09 1.21 2.66 2.48 2 4.72a50.68 50.68 0 0 1-9.48 18.85c-1.07 1.28-2.12 2.91-4.69 2.06 6.85-7.28 10.41-15.94 12.17-25.63Z" style="fill:#81a241"/><path d="M427.69 169.25c-1.83-.2-2.33-1.56-2.78-3.22-.16 2.07-.74 3.74-2.79 4.43l-2.81-1.58c1.27 2.17 4.25 4.16-.28 6.45 2.07-.27 3.61-.1 3.21 3.23 1.37-2.13 2.11-3.69 4-3.72 1.67 0 2.46 1.3 3.45 2.31.88 2.45-1.87 5.6-4.83 5.54-.71 0-.83.16-.53.78-4.47 1.53-10-.56-12-4.75-2.52-5.34-2.85-10.64.93-15.63a8.09 8.09 0 0 1 4.27-3.34c2.65-.72 5.27-1.59 7.95-2.15a7.77 7.77 0 0 1 5.91 1.09c2.66 1.71 2.8 2.53.86 5.38.21-3.73-2.74-4.14-5.27-5-.38-.14 0 .57 0 .16 0-.08.08-.1.27 0a5.58 5.58 0 0 0 .88.27c2.86.46 4 2.26 4 5-.54 2.5-1.32 4.7-4.44 4.75Z" style="fill:#aa4025"/><path d="M430 177.29a3 3 0 0 0 0-.9c-.32-1.12-2.3-1.59-1.61-2.93s2.3-1.58 3.54-1.55c4.05.13 6.24-3.12 9.17-4.9 1.93-1.18 3.3-.93 5.07-.2.72.3.35.48.19.82-.35.72-.48 1.85-1 2.12-5.66 2.77-9 8.78-15 10.91-.31-1.12.07-2.28-.36-3.37Z" style="fill:#a83f24"/><path d="M432.08 164.49c-.63.4-.66 1.58-1.73 1.4-1.35-1.67 2.86-3.35 0-5a14.87 14.87 0 0 0-5.73-1.73c5.13-1.2 8.6 1.15 7.64 4.86a.53.53 0 0 0-.18.47Z" style="fill:#f4e5c6"/><path d="M430 177.29c1 1 1.28 2.15.26 3.36-1.87 1.18-3.7 2.46-5.95 2.82-.92-.77-2.18-1.37-1.38-3.3.62 1 .91 2.54 2.39 2a10.65 10.65 0 0 0 4.38-2.76c.55-.63-.37-1-.71-1.42-.89-1.18.33-.63.68-.8a.42.42 0 0 0 .33.1Z" style="fill:#edd5af"/><path d="M238.53 264.85c-.05.93.09 1.75-.87 2a1.94 1.94 0 0 1-2.12-.93 23.08 23.08 0 0 1-3.77-11.54c-.18-2.21-.55-4.54.61-6.66.39-.72.83-1.55 1.76-1.52s.94 1 1.29 1.55a6.56 6.56 0 0 1 .62 3.6c0 4.22.08 8.42 2.21 12.26a4.08 4.08 0 0 1 .27 1.24Z" style="fill:#05532b"/><path class="cls-195" d="M240.58 266a31.16 31.16 0 0 0-2.58-19c3 .62 5.06 4.69 5.39 11.13.11 2.64 1.2 5.94-2.81 7.87Z"/><path class="cls-38" d="M205.68 308.83c.27-1.32 1.35-1.08 2.21-1a26.78 26.78 0 0 1 18.51 9c.25.28 1 .63.25 1.09-.2.13-.72-.25-1.1-.4-4.12-2.39-8.78-2.57-13.33-3.18a16.88 16.88 0 0 1-4.52-.91c-2.05-.9-3.21-2.25-2.02-4.6Z"/><path class="cls-65" d="M205.68 308.83c-.12 2.32.85 3.5 3.25 4 4.2.86 8.55.61 12.69 2a6.79 6.79 0 0 1 3.93 2.65c-13.22-.61-21.52-2.58-24.51-5.87 1.63-.81 3.46-1.29 4.64-2.78Z"/><path d="M202.3 305.86a2.13 2.13 0 0 1 2.11 2.47c0 1.19-1.3 1.58-2.26 1.72-1.71.24-3.64 1-4.94-1 1.4-1.51 3.35-2.19 5.09-3.19Z" style="fill:#fcc544"/><path d="M202.3 305.86a12.79 12.79 0 0 1-5.09 3.21c1-2.17 2.85-2.99 5.09-3.21Z" style="fill:#f7edcf"/><path d="M143.92 353.42a14.9 14.9 0 0 1 10.87-9.77c.85-.21 2-.55 2.58.29s-.33 1.67-.88 2.35a18.43 18.43 0 0 1-4.46 4.12c-2.21.2-3.39 2-5 3.2s-1.89 1.19-3.11-.19Z" style="fill:#c15627"/><path class="cls-61" d="M143.92 353.42c2.2 1.56 2.7-.86 3.8-1.7 1.32-1 2.26-2.85 4.31-1.31-1.48 2.15-3.7 3.5-5.66 5.12-.84.69-2.11 1.81-2.91 1.15-.98-.8-.23-2.22.46-3.26Z"/><path d="M451.19 230.61a45.69 45.69 0 0 1-12.27-7.39 2.29 2.29 0 0 1-.59-3.07c.81-1.35 2.22-1.07 3.32-.62 4.97 2.06 7.79 6.06 9.54 11.08Z" style="fill:#c75a28"/><path d="M326.7 143.35c2.67-.72 4.15 1.08 5 3s-1.07 2.88-2.34 3.83a11.36 11.36 0 0 1-6.74 2.46c-1.13 0-2.3 0-2.63-1.45a74.39 74.39 0 0 1 6.71-7.84Z" style="fill:#fbc142"/><path d="M326.7 143.35c.67 1.5-.78 2-1.45 2.67-1.67 1.8-2.92 4-5.28 5.14.81-3.85 3.23-6.29 6.73-7.81Z" style="fill:#f6eed4"/><path d="M201 296.23c-3.88.15-7.81 1.23-11.31-1.2-.8-.55-2.1-.93-1.61-2.22.4-1.05 1.56-1.25 2.61-1.21a15.84 15.84 0 0 1 10.31 4.63Z" style="fill:#ad4624"/><path d="M170.1 297.68c-2.15-1.4-1.59-3.47-.9-5.19s2.56-.91 3.85-.77c3.46.36 6.3 2.85 6.68 5.54-3.16 1.28-6.41.43-9.63.42Z" style="fill:#f9bf42"/><path d="M170.1 297.68c3.16-1.31 6.42-.22 9.63-.42-3.12 2.35-6.36 1.59-9.63.42Z" style="fill:#f5f1e2"/><path d="M213.94 154.92c1.73-2.15 3.87-1.24 5.43-.17 1.41 1 .67 2.84-.08 4.17-1.42 2.49-2.51 5.45-6.21 5.29-1.09-2-.07-3.88.25-5.82.2-1.15 1-2.21.61-3.47Z" style="fill:#fac245"/><path d="M213.94 154.92c1.39.23.75 1.13.61 1.85l-1.47 7.44c-2.48-3.36-.46-6.29.86-9.29Z" style="fill:#f6ebcf"/><path d="M253.26 29.67c-1.37-1.37-.93-2.92 0-4.09s2.52-.47 3.56.22c1.91 1.27 4.46 2.26 3.54 5.42a59.56 59.56 0 0 1-7.1-1.55Z" style="fill:#fcc345"/><path d="M253.26 29.67a10.73 10.73 0 0 1 7.13 1.56 8.55 8.55 0 0 1-7.13-1.56Z" style="fill:#f8f0d9"/><path d="M432.17 190.8c1.89-.29 2.68 1 2.95 2.44s-1.13 2.14-2.27 2.46c-2.1.59-4.4 2.07-6.24-.57a45.77 45.77 0 0 1 5.56-4.33Z" style="fill:#fcc343"/><path d="M432.17 190.8a11.66 11.66 0 0 1-5.56 4.33 7.73 7.73 0 0 1 5.56-4.33Z" style="fill:#fcf7e1"/><path d="M49.89 369.57c-1.91.82-2.9-.53-3.56-1.83s.54-2.33 1.53-3c1.85-1.18 3.75-2.49 6.15-1.39-.26 2.84-2.44 4.36-4.12 6.22Z" style="fill:#f6c044"/><path d="M49.89 369.57c.49-2.64 3.28-3.77 4.12-6.19.67 3.42-1.73 4.81-4.12 6.19Z" style="fill:#f5ebd0"/><path d="M468.66 257a7.87 7.87 0 0 1 .8-5.59c.57-.93 1.42-1.62 2.54-1s.7 1.51.33 2.42c-.68 1.71-2.11 2.66-3.67 4.17Z" style="fill:#96361f"/><path d="M148.8 365.13c1.5 0 1.92 1.18 2 2.3 0 1.28-1.28 1.65-2.19 1.78-1.58.22-3.43 1.15-4.62-.89 1.22-1.6 3.01-2.32 4.81-3.19Z" style="fill:#fcc444"/><path d="M148.8 365.13c-1.33 1.5-3.18 2.2-4.85 3.19.81-2.32 2.72-2.91 4.85-3.19Z" style="fill:#f8f1db"/><path d="M316.65 232.7c-7.83-.13-14.77-1.78-20.68-6.67-7.68-6.37-6.46-15.56 2.8-19.15 9.65-3.73 19.09-2.7 28 2.44a15.18 15.18 0 0 1 6.18 6.27c2.87 5.68 1.09 11.25-4.54 14.31a26.35 26.35 0 0 1-11.76 2.8Z" style="fill:#150f0a"/><path class="cls-61" d="M453 261.44c.06 1.46-.41 2.25-1.29 2.65s-1.19-.54-1.58-1a13.58 13.58 0 0 1-2.51-4.13 1.38 1.38 0 0 1 .39-1.67 1.54 1.54 0 0 1 1.73 0 10.67 10.67 0 0 1 3.26 4.15Z"/><path d="M422.43 245.87c1.13.07 2.49-.07 2.63 1.43.12 1.14-1 1.14-1.77 1-1.26-.14-3.08-.08-3.28-1.47-.17-1.15 1.51-.83 2.42-.96Z" style="fill:#90321e"/><path d="M448.93 290.84c-.45-.34-.58-.39-.59-.46a8.43 8.43 0 0 1 1.08-5.18c.07-.12.73-.06.75 0 .43 1.99-.52 3.66-1.24 5.64Z" style="fill:#993920"/><path d="m301.44 304.77 4.66-.3c-1.66-6.84-3-8-7.16-6.42 2.1-3 4-2.95 5.86.07a17.54 17.54 0 0 1 1.63 3.31c.44 1.24 2 2.43.46 3.89-.99.97-3.48.75-5.45-.55Z" style="fill:#f1dfbc"/><path class="cls-75" d="m218 330.52-7.15-.59c-11-.93-19.38 3.23-25.63 12.41-3.07 4.52-6.48 9-12 11a9 9 0 0 1-3 .7c-1.32 0-2.51-.21-3.11-1.52s.24-2.18.92-3.06c2.63-3.41 6.8-4.89 9.89-7.74 1.84-1.7 3.9-3.45 4.23-5.86.76-5.67 4.66-7.6 9.36-8.67a37.42 37.42 0 0 1 26.49 3.33Z"/><path class="cls-1" d="M100.68 356.86c-2.6-1.07-5.25-1.75-8.06-.92a7.68 7.68 0 0 0-5 8.79 7.29 7.29 0 0 0 7.57 5.45 3.63 3.63 0 0 0 3.42-2.65c.45-1.31.72-2.83-1.26-3.69-.18 1.62 1.3 3.56-1.06 4.51-1.93.78-3.36.07-4.63-1.31a17.81 17.81 0 0 0 2.66.58c1.59.12 3 0 2.24-2.33-.27-.75-.54-1.81.49-2.13s1.91.43 2.4 1.43c1.31 2.64-1.25 6.38-4.5 6.61s-7.17-2.63-8.16-5.95.76-7.4 3.86-9.29c3.35-2.05 7.61-1.67 10.03.9Z"/><path d="M382.38 80.78c2.82-4.23 1.69-8.15-2.71-9.37a23.53 23.53 0 0 1-5.78.78c-1.58-.06-2 1.56-3.09 2.17.89-3.65 4.08-4.08 6.89-4.37 2.64-.27 4.86 1.14 6.27 3.6a5.65 5.65 0 0 1-.17 6.57c-.33.48-.63 1.14-1.41.62Z" style="fill:#4a3321"/><path d="M384.76 68.46c-7-3.06-11.68.55-15.86 5.56 2.55-6.79 10.45-9.56 15.86-5.56Z" style="fill:#3d3223"/><path d="M373.89 72.19a12 12 0 0 1 5.78-.78l1.38 1.38c-2.8-1.09-5.46-.28-8.1.63Z" style="fill:#372c1f"/><path d="M368.9 74c.14 1.22 1 .65 1.64.67a6.09 6.09 0 0 1-2.54 2.66 3.13 3.13 0 0 1 .9-3.33Z" style="fill:#423b29"/><path d="M339.35 272.49c-1.7.35-3.42 1.22-5.17-.05 2.83-2.73 4.38-2.68 5.14.09Z" style="fill:#a35e28"/><path d="M331.91 268.28c-.24-2.26.12-3.75 2-4.47.63-.25 1.42 0 1.44.69.04 2.03-1.65 2.61-3.44 3.78Z" style="fill:#a25d27"/><path d="M333 269.68c0-.72.54-1.07 1-1.48.9-.88 1.88-1.67 3.25-1.11a.74.74 0 0 1 .4 1 3.34 3.34 0 0 1-2.93 1.9c-.6.07-1.25.31-1.72-.31Z" style="fill:#9e5826"/><path d="M307.19 134c4 .5 5 1.33 5.68-6.35a5.34 5.34 0 0 1-.72 7.13c-1.7 1.59-3.23 1.36-4.96-.78Z" style="fill:#edd8b5"/><path d="M308.63 126.39 312 125c-3-4.37-3.29-4.5-6.24-3 .7-1.37 1.19-2.43 2.74-2.07 1.15.27 4.94 4.4 4.6 5.09-.7 1.48-2.1 1.75-4.47 1.37Z" style="fill:#ecd5ac"/><path class="cls-1" d="M302.67 130.64c1.1-1.14 1.06-2.64 1.34-4h2.71c-.64 1.38-2.67 1.23-2.7 3 0 1.52 1.94 1.88 1.65 3.69Z"/><path d="M381.33 73.07c1.85 2.51 1.69 4.73-.42 6.71a3.46 3.46 0 0 1-3.92.91c-1.58-.66-.71-2-.69-3.64-1.89 1.78-1 3.1-.22 4.42-2.37-.73-1.61-2.49-1.24-4a1.34 1.34 0 0 1 1.5-.85.88.88 0 0 1 .81 1.08c-.09 1-.73 2.19.87 2.46 1.43.24 2.22-.86 3-1.79 1.5-1.7.54-3.52.31-5.3Z" style="fill:#3c2819"/><path d="M422.33 160.33c-6 3.11-6 3.11-3.33 7-2.14-.7-3.59-1.66-3.51-3.74s3.07-3.59 6.84-3.26Z" style="fill:#eedbbb"/><path d="M417.53 168.52c-7.12-.24-4.11 4.48-4.3 7.8-2.15-3.3-2.25-6.21-.51-8.12 1.17-1.27 2.08-1.28 4.81.32Z" style="fill:#f1e1c0"/><path d="M416.92 176c.32 1.74-3.18 1.18-1.54 3.16 2.05 2.47 3.74 2.62 5.72.87-.69 2.56-1.43 2.93-3.6 1.73-.62-.35-1.17-.81-1.77-1.2-.93-.59-2.39-1.08-2.09-2.31.36-1.51 1.88-1.9 3.28-2.25Z" style="fill:#eed7b3"/><path d="M292.81 214.37c2-5.19 6.47-6.62 11.29-7.55.4 1.44-.8 2-1.58 2.69-3.11 2.94-2.93 5.94.93 7.46a29.85 29.85 0 0 0 19.61.8c2.62-.77 2.94-2.57 1.28-4.78a15.39 15.39 0 0 0-3.48-3c-.85-.62-2.14-1-2-2.42 6.28 1.57 11.59 4.35 13.75 11 .57 3.67-1.54 5.83-4.39 7.39-9.26 5-26.2 2.08-33.38-5.8-1.46-1.56-2.75-3.36-2.03-5.79Z" style="fill:#f8993c"/><path d="M318.85 207.57c1.94 1.49 4.28 2.43 5.94 4.33 2.89 3.29 2.09 6.29-2.15 7.21a38.79 38.79 0 0 1-17.67-.43c-2.63-.64-5.13-2-5.65-4.63s1.26-4.81 3.78-6.1c.42-.21.67-.75 1-1.13a28.1 28.1 0 0 1 14.75.75Z" style="fill:#fbb060"/><path class="cls-38" d="M292.81 214.37c0 2.63 1.67 4.4 3.47 5.88 8.93 7.4 19.05 8.81 30 5.52a8.6 8.6 0 0 0 6.35-7.16c1.16 4.5-.38 7.8-4.78 10.09-5.75 3-11.89 3-18.06 2a23.79 23.79 0 0 1-14.53-7.42c-2.26-2.48-3.82-5.35-2.45-8.91Z"/><path d="M310.51 208.25c2.66.16 5.3.43 7.56 2.07.84.62 1.71 1.43 1.32 2.54-.45 1.3-1.68.93-2.64.67-2.72-.74-5.49-.33-8.24-.54a37.2 37.2 0 0 1-3.32-.43 1.78 1.78 0 0 1-1.68-1.54 1.86 1.86 0 0 1 1.56-2 13.93 13.93 0 0 1 5.44-.77Z" style="fill:#fffcf9"/></g></g></svg>