<svg width="36" height="36" viewBox="0 0 24 24" xmlns="http://www.w3.org/2000/svg" fill="currentColor">
  <path
    d="M11.9941 13.4534C13.0013 13.5067 13.8602 12.711 13.912 11.6759C13.9378 11.1463 13.7425 10.6288 13.3778 10.2515C13.0601 9.92503 12.6342 9.72914 12.1824 9.70496C11.1752 9.65175 10.3163 10.4474 10.2645 11.4825C10.2128 12.5175 10.987 13.4002 11.9941 13.4534Z" />
  <path 
    fill-rule="evenodd" clip-rule="evenodd"
    d="M12.8012 18.6892C10.7186 18.9093 8.65019 18.1524 7.17005 16.6336C5.86169 15.2938 5.12985 13.4752 5.1322 11.5768V4.89238C1.70834 8.65296 1.70834 14.4982 5.1322 18.2588C5.20515 18.3386 5.28045 18.4184 5.35575 18.4958C7.17005 20.3628 9.60323 21.3664 12.0905 21.3664C13.0506 21.3664 14.0178 21.2164 14.9614 20.9093C17.0134 20.2418 18.7853 18.8779 19.9878 17.0472L21.828 18.9383C21.1032 19.9516 20.2325 20.8489 19.2442 21.5937C13.8625 25.6542 6.29702 24.4643 2.34369 18.9359C-1.60728 13.4051 -0.451874 5.62999 4.93218 1.56711C4.99807 1.51632 5.06631 1.46554 5.13456 1.41717C5.79109 0.94075 6.49234 0.534462 7.22888 0.200726C7.38419 0.130593 7.54185 0.0628779 7.69951 0V6.03144C8.22427 5.59129 8.80786 5.23337 9.42674 4.96977C10.0456 4.70617 10.7022 4.53446 11.3775 4.46433C13.4295 4.24909 15.4697 4.97944 16.9475 6.46191L23.9976 13.705C23.8329 14.6917 23.5505 15.6542 23.1575 16.5707L19.0089 12.3071C18.91 13.3011 18.6112 14.2636 18.1264 15.1294C17.5075 16.237 16.6133 17.156 15.5332 17.7896C15.1144 18.0363 14.672 18.237 14.2131 18.3869C13.7566 18.5369 13.2836 18.6385 12.8012 18.6892ZM13.6389 7.35187C11.3681 6.474 8.83374 7.65175 7.97954 9.98549C7.37242 11.6445 7.7654 13.5139 8.98199 14.7666L9.01729 14.8029C9.45263 15.2406 9.97032 15.5792 10.5398 15.7993C12.8106 16.6796 15.3426 15.5018 16.2015 13.1681C17.0557 10.8343 15.9097 8.22975 13.6389 7.35187Z" />
</svg>