<svg width="256" height="315" xmlns="http://www.w3.org/2000/svg" preserveAspectRatio="xMidYMid"><path d="M213.8 167.03c.45 47.58 41.74 63.41 42.2 63.61-.35 1.12-6.6 22.57-21.76 44.72-13.1 19.15-26.7 38.24-48.13 38.63-21.05.39-27.82-12.48-51.89-12.48-24.06 0-31.58 12.09-51.5 12.87-20.68.78-36.43-20.71-49.65-39.8-27-39.03-47.63-110.3-19.92-158.4C26.9 92.29 51.5 77.16 78.2 76.78c20.31-.4 39.48 13.66 51.9 13.66 12.4 0 35.7-16.9 60.18-14.42 10.25.43 39.02 4.14 57.5 31.19-1.49.92-34.33 20.04-33.98 59.82M174.24 50.2C185.22 36.9 192.6 18.4 190.59 0c-15.82.64-34.96 10.55-46.31 23.83-10.17 11.76-19.08 30.59-16.68 48.63 17.64 1.37 35.66-8.96 46.64-22.26"/></svg>