<svg width="385" height="312" viewBox="0 0 385 312" fill="none" xmlns="http://www.w3.org/2000/svg">
<path d="M3.03179 149.519C6.13468 83.6574 7.68613 50.7267 25.8057 29.0431C31.5605 22.1565 38.3817 16.2365 46.0098 11.5084C70.0281 -3.37846 102.849 -0.278987 168.492 5.91995L273.5 15.8364C292.49 17.6298 307 33.5743 307 52.6492V52.6492C307 71.8084 321.635 87.7942 340.719 89.482L344.401 89.8076C365.019 91.631 381.048 108.531 381.777 129.217L383.849 187.959C384.594 209.102 384.967 219.674 383.349 228.587C377.683 259.794 354.923 285.149 324.506 294.138C315.818 296.705 305.268 297.471 284.166 299.003L165.222 307.64C95.0078 312.738 59.9005 315.287 35.5451 298.424C27.8345 293.085 21.0724 286.492 15.5394 278.92C-1.93772 255.001 -0.281218 219.84 3.03179 149.519V149.519Z" fill="white"/>
</svg>
