<svg xmlns="http://www.w3.org/2000/svg" viewBox="0 0 1027.28 1027.33">
  <defs>
    <style>
      .cls-3 {
        fill: #fff
      }
    </style>
  </defs>
  <g id="Layer_2" data-name="Layer 2">
    <g id="Round_fullscreen_logo" data-name="Round fullscreen logo">
      <rect width="1024" height="1024" x="3.28" fill="#3a3a3a" rx="206.22" />
      <path
        d="M942.47 586.35c-17.74 94.92-28.94 101-95.63 164.65l17.78 17.78C819.77 823.12 666.73 970.44 616.37 1024-32.87 1034.55-6.78 1058.2 3.28 410.89c14.9-14.27 220.38-222.06 229.39-227.66A433.35 433.35 0 0 1 357.8 108v270.87c.25-.05 111.46-112.13 111.46-112.13a252.82 252.82 0 0 1 99.45 1.5 248.59 248.59 0 0 1 95 43.19c74.73 65.06 208.01 206.93 278.76 274.92Z"
        opacity=".4" />
      <g id="logo_white" data-name="logo white">
        <path id="blob"
          d="M580.74 512c1.13 46.21-50.5 79.66-92.21 59.75-50.41-22-51.45-95.36-1.62-118.75 41.82-21.36 94.96 12 93.83 59Z"
          class="cls-3" />
        <path
          d="M798.6 702.76c-3.93 5.81-8 11.51-12.29 17a342.51 342.51 0 0 1-76.69 73.06c-130.48 92.62-318.51 77.07-432-35.65C159.16 644.94 139.61 454 232.8 320a344 344 0 0 1 33-41.22c.47 16.19-1.3 248.93 1.29 258.74a247.37 247.37 0 0 0 18.32 71.59c32.66 78.66 107.87 137.42 192.25 149.55C577.32 775 682.58 724.11 731.83 636l-69-69A158.12 158.12 0 0 1 588 651.68c-74.27 40.17-172.82 9.67-211.59-65.3a156.53 156.53 0 0 1-17.83-58.28c-.55-5.35-.8-10.71-.82-16.1V108C193.45 172.1 81.43 331.54 81.73 512c-4.27 414.46 543.59 591 782.89 256.78Z"
          class="cls-3" />
        <path id="main_Line"
          d="M942.48 586.35a431.11 431.11 0 0 1-30.15 100 1045161 1045161 0 0 0-148.85-148.83c-28.85-25.39-143.12-152.86-177.16-166.07a158.11 158.11 0 0 0-117.06-10.08v-94.63a252.63 252.63 0 0 1 99.45 1.5c.12.05.26 0 .37.09a248.31 248.31 0 0 1 94.6 43.1c74.76 65.06 208.04 206.93 278.8 274.92Z"
          class="cls-3" data-name="main Line" />
      </g>
    </g>
  </g>
</svg>