<svg id="Round_fullscreen_logo" data-name="Round fullscreen logo" xmlns="http://www.w3.org/2000/svg" width="1024" height="1024" viewBox="0 0 1024 1024">
  <defs>
    <style>
      .cls-1 {
        fill: #3a3a3a;
      }

      .cls-2 {
        opacity: 0.4;
      }

      .cls-3 {
        fill: #fff;
      }
    </style>
  </defs>
  <title>Kreslicí plátno 1</title>
  <path class="cls-1" d="M206.22,0H817.78A206.22,206.22,0,0,1,1024,206.22V817.78A206.22,206.22,0,0,1,817.78,1024H206.22A206.22,206.22,0,0,1,0,817.78V206.22A206.22,206.22,0,0,1,206.22,0Z"/>
  <path class="cls-2" d="M939.19,586.35a430.602,430.602,0,0,1-30.14,100l-.62-.62c-.3.73-.61,1.45-.92,2.16l-.61-.62c-.31.72-.62,1.45-.93005,2.15l-.61-.61c-.31.72-.62,1.44-.92,2.15l-.62-.61c-.31.72-.61,1.44-.92,2.15l-.62-.62c-.30005.73-.61005,1.45-.92,2.16l-.62-.62c-.3.73-.61,1.45-.92,2.16l-.61-.62c-.31.72-.62,1.45-.93,2.15l-.61005-.61c-.31.72-.62,1.44-.92,2.15l-.62-.61c-.31.72-.61,1.44-.92,2.15l-.62-.62c-.3.73-.61005,1.44995-.92,2.16l-.62-.62c-.3.73-.61,1.45-.92,2.16l-.61-.62c-.31.72-.62,1.45-.93,2.15l-.61005-.61c-.31.72-.62,1.44-.92,2.15l-.62-.61c-.31.72-.61,1.44-.92,2.15l-.62-.62c-.3.73-.61,1.45-.92,2.16l-.62-.62c-.3.73-.61,1.45-.92,2.16l-.61-.62c-.31.72-.62,1.45-.93,2.15l-.61-.61c-.31.72-.62,1.44-.92,2.15l-.62-.61c-.31.72-.61,1.44-.92,2.15l-.62-.62c-.3.73-.61,1.44995-.92,2.16l-.62-.62c-.3.73-.61,1.45-.92,2.16l-.61-.62c-.31.72-.62,1.45-.93,2.15l-.61-.61c-.31.72-.62,1.44-.92,2.15l-.62-.61c-.31.72-.61,1.44-.92,2.15l-.62-.62c-.30005.73-.61005,1.45-.92,2.16l-.62-.62c-.3.73-.61,1.45-.92,2.16l-.61-.62c-.31.72-.62,1.45-.93,2.15l-.61005-.61c-.31.72-.62,1.44-.92,2.15l-.62-.61c-.31.72-.61,1.44-.92,2.15l-.62-.62c-.3.73-.61005,1.45-.92,2.16l-.62-.62c-.3.73-.61,1.45-.92,2.16l-.61-.62c-.31.72-.62,1.45-.93,2.15l-.61005-.61c-.31.72-.62,1.44-.92,2.15l-.62-.61c-.31.72-.61,1.44-.92,2.15l-.62-.62c-.3.73-.61,1.45-.92,2.16l-.62-.62c-.3.73-.61,1.45-.92,2.16l-.61-.62c-.31.72-.62,1.45-.93,2.15l-.61-.61c-.31006.72-.62006,1.44-.92,2.15l-.62-.61c-.31.72-.61,1.44-.92,2.15l-.62-.62c-.3.73-.61,1.45-.92,2.16l-.62006-.62c-.3.73-.61,1.45-.92,2.16l-.61-.62c-.31.72-.62,1.45-.93,2.15l-.61-.61c-.09.23-.19.43-.28.67l17.78,17.78q-6.21,8.43-12.81,16.54L789.8,844.86,613.09,1024H206.22C92.33,1024,0,931.67,0,817.78V410.89L202.93,207.97c.13-.14.27-.27.4-.41l1.88995-1.88c.97-.97,1.94-1.94,2.92-2.9.98-.97,1.97-1.93,2.96-2.88.99005-.96,1.98-1.91,2.98-2.85,1-.95,2-1.89,3.01-2.82.95-.89,1.91-1.77,2.87-2.65.07-.07.15-.14.23-.22,1-.9,1.99-1.8,3-2.69,1.02-.92,2.05-1.83,3.09-2.74,1.03-.9,2.06995-1.8,3.11-2.7,2.08-1.8,4.19-3.57,6.31-5.32,1.06-.88,2.12-1.75,3.19-2.62,1.16-.94,2.32-1.88,3.48-2.8,2.07-1.64,4.14-3.26,6.24-4.87,2.19-1.67,4.39-3.33,6.61-4.96A433.021,433.021,0,0,1,354.52,107.95V378.87c.25-.05.48-.09.73-.12v-1.28c.5-.09,1.03-.17,1.54-.26v-1.28c.5-.09,1.03-.17,1.53-.26V374.4c.51-.1,1.03-.17,1.54-.27v-1.27c.51-.1,1.03-.17,1.54-.26v-1.28c.51-.09,1.03-.17005,1.54-.26v-1.28c.5-.09,1.03-.17,1.54-.26v-1.28c.5-.09,1.03-.17,1.53-.26v-1.27c.51-.1,1.03-.17,1.54-.27v-1.27c.51-.1,1.03-.17,1.54-.26v-1.28c.51-.09,1.03-.17,1.54-.26v-1.28c.5-.09,1.03-.17,1.54-.26v-1.28c.5-.09,1.03-.17,1.53-.26v-1.27c.51-.1,1.03-.17,1.54-.27v-1.27c.51-.1,1.03-.17,1.54-.26v-1.28c.51-.09,1.03-.17,1.54-.26V354.4c.5-.09,1.03-.17,1.54-.26v-1.28c.5-.09,1.03-.17,1.53-.26v-1.27c.51-.1,1.03-.17,1.54-.27v-1.27c.51-.1,1.03-.17,1.54-.26v-1.28c.51-.09,1.03-.17,1.54-.26v-1.28c.5-.09,1.03-.17,1.54-.26v-1.28c.5-.09,1.03-.17,1.53-.26v-1.27c.51-.1,1.03-.17,1.54-.27V342.1c.51-.1,1.03-.17,1.54-.26v-1.28c.51-.09,1.03-.17,1.54-.26v-1.28c.5-.09,1.03-.17,1.54-.26v-1.28c.5-.09,1.03-.17,1.53-.26v-1.27c.51-.1,1.03-.17,1.54-.27v-1.27c.51-.1,1.03-.17,1.54-.26v-1.28c.51-.09,1.03-.17,1.54-.26v-1.28c.5-.09,1.03-.17,1.54-.26v-1.28c.5-.09,1.03-.17,1.53-.26v-1.27c.51-.1,1.03-.17,1.54-.27v-1.27c.51-.1,1.03-.17,1.54-.26v-1.28c.51-.09,1.03-.17,1.54-.26v-1.28c.5-.09,1.03-.17,1.54-.26V322.1c.5-.09,1.03-.17,1.53-.26v-1.27c.51-.1,1.03-.17005,1.54-.27v-1.27c.51-.1,1.03-.17,1.54-.26v-1.28c.51-.09,1.03-.17,1.54-.26v-1.28c.5-.09,1.03-.17,1.54-.26v-1.28c.5-.09,1.03-.17,1.53-.26v-1.27c.51-.1,1.03-.17,1.54-.27v-1.27c.51-.1,1.03-.17,1.54-.26V309.8c.51-.09,1.03-.17,1.54-.26v-1.28c.5-.09,1.03-.17,1.54-.26v-1.28c.5-.09,1.03-.17,1.53-.26v-1.27c.51-.1,1.03-.17,1.54-.27v-1.27c.51-.1,1.03-.17,1.54-.26v-1.28c.51-.09,1.03-.17,1.54-.26v-1.28c.5-.09,1.03-.17005,1.54-.26v-1.28c.5-.09,1.03-.17,1.53-.26V297.5c.51-.1,1.03-.17,1.54-.27v-1.27c.51-.1,1.03-.17,1.54-.26v-1.28c.51-.09,1.03-.17,1.54-.26v-1.28c.5-.09,1.03-.17,1.54-.26v-1.28c.5-.09,1.03-.17,1.53-.26v-1.27c.51-.1,1.03-.17,1.54-.27v-1.27c.51-.1,1.03-.17,1.54-.26v-1.28c.51-.09,1.03-.17,1.54-.26v-1.28c.5-.09,1.03-.17,1.54-.26v-1.28c.5-.09,1.03-.17,1.53-.26v-1.27c.51-.1,1.03-.17,1.54-.27v-1.27c.51-.1,1.03-.17,1.54-.26v-1.28c.51-.09,1.03-.17,1.54-.26V277.5c.5-.09,1.03-.17,1.54-.26v-1.28c.5-.09,1.03-.17,1.53-.26v-1.27c.51-.1,1.03-.17,1.54-.27v-1.27c.51-.1,1.03-.17,1.54-.26v-1.28c.51-.09,1.03-.17,1.54-.26v-1.28c.5-.09,1.03-.17,1.54-.26v-1.28c.5-.09,1.03-.17,1.53-.26v-1.27a252.45214,252.45214,0,0,1,92.04,0,3.038,3.038,0,0,0,.32.06c1.2.23,2.4.46,3.58.72h.02c.17.02.34.06.51.09.69.14,1.38.28,2.06.43a5.48763,5.48763,0,0,1,.55.13.70008.70008,0,0,1,.14.03l.23.04a.05506.05506,0,0,0,.05.02,1.30457,1.30457,0,0,1,.27.06h.02c.01,0,.01,0,.03.01,1.15.25,2.29.51,3.44.77,1.42.34,2.83.68,4.25,1.05,1.28.32,2.55.66,3.81,1h.03c1.27.35,2.51.71,3.76,1.06.62994.17,1.24.35,1.87.54a.54243.54243,0,0,1,.1.03c.53.15,1.06.32,1.6.49.69.2,1.39.42,2.09.63.8.25,1.58.49,2.37.76q3.225,1.05,6.41,2.18c1.24.43,2.49.89,3.72,1.35,1.25.46,2.48.93,3.69,1.42,1.12.43,2.25.87,3.37,1.34.94.38,1.88.77,2.8,1.17.54.21,1.08.44,1.6.69.55.23,1.09.46,1.63.7.46.19.92.4,1.37994.62.48.22.94.43,1.4.63.94.42,1.86.85,2.79,1.28.75.35,1.5.7,2.26,1.07.5.25,1.01.5,1.52.74.03.02.06.03.11.06.63.31,1.27.62,1.89.94,2.31,1.16,4.61,2.35,6.89,3.59q2.31,1.24494,4.57,2.53c.69.4,1.4.8,2.09,1.2,1.38.82,2.77,1.63,4.14,2.46,2.96,1.8,5.9,3.66,8.79,5.6.57.39,1.13.76,1.68,1.14.12.08.25.17.37.26.58.39,1.17.79,1.75,1.19.85.57995,1.71,1.18,2.56006,1.8q1.95,1.38,3.87,2.81,1.545,1.125,3.06,2.31c.85.63,1.68,1.27,2.51,1.93,1.18005.93,2.35,1.87,3.51,2.8,1.18.97,2.35,1.94,3.52,2.93,1.24,1.06,2.49,2.12,3.72,3.21.61005.54,1.23,1.08,1.83,1.63,1.15,1.03,2.29,2.06,3.41,3.11q4.365,4.08,8.57,8.35l162.8,162.78Z"/>
  <g id="logo_white" data-name="logo white">
    <g id="blob">
      <path class="cls-3" d="M577.45725,512c0,1.215-.03079,2.41467-.10768,3.59886-.03079.89207-.10767,1.78413-.18455,2.67611q-.27683,2.86078-.78439,5.62913c-.18455.96894-.3845,1.92249-.59984,2.876-.13837.63054-.30753,1.26117-.46139,1.87631-.123.47687-.246.93825-.3845,1.38424a64.87214,64.87214,0,0,1-4.64469,11.75034c-.23074.47677-.47678.93815-.7383,1.39953a64.16576,64.16576,0,0,1-6.25967,9.45874c-.32292.41529-.66133.83048-.99964,1.23038s-.67673.79979-1.03044,1.19968a64.82725,64.82725,0,0,1-10.10466,9.36636c-.27683.21535-.55376.41529-.846.63064a65.73876,65.73876,0,0,1-8.52048,5.21374c-.46138.24614-.93816.47678-1.41493.70752-.53836.26143-1.07662.50756-1.63028.7536-.47678.21534-.95355.43069-1.44572.63063-.56906.246-1.1535.47678-1.738.70742-.39989.15386-.81518.30762-1.215.44608-.44608.16916-.90746.32292-1.35344.47678-.26153.09228-.523.18455-.7844.26143-.7536.246-1.5226.47678-2.2916.70752a66.94333,66.94333,0,0,1-13.10378,2.307c-1.01514.06149-2.03018.123-3.06061.15377-.58445,0-1.16889.01539-1.75334.01539s-1.16889-.01539-1.75334-.01539c-1.03043-.03079-2.04547-.09228-3.06061-.15377a66.94333,66.94333,0,0,1-13.10378-2.307c-.769-.23074-1.538-.46148-2.2916-.70752-.26144-.07688-.52287-.16915-.7844-.26143-.446-.15386-.90736-.30762-1.35344-.47678-.39981-.13846-.8151-.29222-1.215-.44608-.58445-.23064-1.16889-.46138-1.738-.70742-.49217-.19994-.96894-.41529-1.44572-.63063-.55366-.246-1.09192-.49217-1.63028-.7536-.47677-.23074-.95355-.46138-1.41493-.70752a62.94861,62.94861,0,0,1-8.50518-5.21374c-.29222-.19995-.58445-.41529-.86128-.63064a62.79828,62.79828,0,0,1-6.85941-5.90586l-.26153-.26153a65.38582,65.38582,0,0,1-11.27347-15.08777c-.769-1.38414-1.47651-2.81447-2.12244-4.26019-.66133-1.44572-1.26117-2.92224-1.81483-4.42945-.36911-.99973-.70751-2.01477-1.03053-3.0453A65.46578,65.46578,0,0,1,446.54275,512c0-1.21508.03079-2.41467.10768-3.599.03079-.89207.10767-1.784.19994-2.67611.16916-1.9071.43059-3.78351.769-5.629.18455-.969.3845-1.9225.59984-2.876.13837-.63064.30753-1.26117.46139-1.87641.123-.47678.246-.93816.3845-1.38424a64.87348,64.87348,0,0,1,4.64469-11.75024c.23074-.47678.47678-.93825.7383-1.39963.23065-.446.47678-.86128.72282-1.29187a62.94191,62.94191,0,0,1,5.53685-8.16677c.32292-.41529.66133-.83058.99964-1.23048s.67673-.79969,1.03044-1.19959a64.83271,64.83271,0,0,1,10.10466-9.36646c.27683-.21524.56906-.43059.86128-.63053a61.67835,61.67835,0,0,1,5.72141-3.70663c.41529-.246.84588-.47678,1.27656-.70742.49208-.27683.99965-.53836,1.50721-.79979.46138-.246.93816-.47678,1.41493-.70742.53836-.26153,1.07662-.50757,1.63028-.7537.47678-.21525.95355-.43059,1.44572-.63054.56906-.24613,1.1535-.47678,1.738-.70751.39989-.15377.81518-.30762,1.215-.446.44608-.16916.90746-.323,1.35344-.47678.26153-.09227.523-.18455.7844-.26143.7536-.24613,1.5226-.47678,2.2916-.70751a66.92924,66.92924,0,0,1,13.10378-2.307c1.01514-.06149,2.03018-.12307,3.06061-.15376.58445,0,1.16889-.0154,1.75334-.0154s1.16889.0154,1.75334.0154c1.03043.03069,2.04547.09227,3.06061.15376a66.92924,66.92924,0,0,1,13.10378,2.307c.769.23073,1.538.46138,2.2916.70751.26144.07688.52287.16916.7844.26143.446.15377.90736.30762,1.35344.47678.39981.13837.8151.29222,1.215.446.58445.23073,1.16889.46138,1.738.70751.49217.2.96894.41529,1.44572.63054.55366.24613,1.09192.49217,1.63028.7537.47677.23064.95355.46138,1.41493.70742.50756.26143,1.01513.523,1.50721.79979.43068.23064.86127.46138,1.27656.70742a65.27122,65.27122,0,0,1,5.73671,3.70663c.29222.21534.56915.41529.846.63053a62.46,62.46,0,0,1,6.33655,5.3984c.26143.24613.52286.50756.78439.769a65.388,65.388,0,0,1,11.27347,15.08777c.769,1.38423,1.47651,2.81456,2.12244,4.26028.66133,1.44573,1.26117,2.92224,1.81483,4.42945.36911.99964.70751,2.01477,1.03053,3.04521A65.466,65.466,0,0,1,577.45725,512Z"/>
    </g>
    <path class="cls-3" d="M795.31488,702.758c-1.26117,1.8764-2.5531,3.75274-3.86041,5.59832q-1.93789,2.79155-3.968,5.53681-1.54569,2.09938-3.13751,4.19879c-.43067.58441-.86127,1.1535-1.32276,1.72253,0,.01538-.01532.03083-.0307.04608-1.23034,1.615-2.47613,3.22986-3.75268,4.814-1.23041,1.538-2.46088,3.06061-3.70667,4.56787-.32293.3999-.66131.79974-.99963,1.19965-1.1228,1.36883-2.27631,2.72229-3.42981,4.0603-.29211.33844-.569.67676-.86127.99976-1.29187,1.49182-2.59924,2.9837-3.93725,4.46014q-.20755.25369-.46143.50757c-1.4303,1.59948-2.876,3.18365-4.35254,4.75244-1.1073,1.1842-2.23,2.36847-3.35284,3.522-1.12268,1.16889-2.24542,2.33783-3.39893,3.49133-1.13806,1.15351-2.29156,2.30695-3.44507,3.42969-1.1535,1.13812-2.32238,2.27619-3.49127,3.38361q-7.08252,6.7826-14.54956,13.11908c-1.19958,1.03045-2.41467,2.04559-3.62964,3.04529-1.24579,1.04583-2.507,2.07629-3.76813,3.0913-1.27655,1.01514-2.53759,2.01477-3.82959,3.01453-1.27655.99976-2.553,1.99939-3.86041,2.96832-.15375.12305-.30761.23078-.46136.33844-1.13813.87653-2.27619,1.73792-3.44507,2.5838-1.30737.96894-2.61462,1.92249-3.93732,2.86066s-2.64538,1.87634-3.98346,2.7992c0,.01538,0,.01538-.01538,0-1.33807.93811-2.67608,1.84558-4.02954,2.753q-1.984,1.338-3.968,2.63c-1.33807.87665-2.66082,1.73792-4.01428,2.5838-1.338.84589-2.69147,1.69178-4.04492,2.52234-.93817.58447-1.89172,1.1535-2.84528,1.738-3.13751,1.87628-6.32116,3.72192-9.5202,5.49066-1.32269.73822-2.64532,1.461-3.9834,2.1839q-3.82965,2.07622-7.70538,4.02954c-2.03015,1.04584-4.09113,2.04559-6.152,3.04523a3.67348,3.67348,0,0,1-.43072.19995q-3.29892,1.59183-6.64417,3.10681-9.66632,4.40625-19.64013,8.18213c-2.56855.98425-5.15241,1.92254-7.75159,2.84527a.2221.2221,0,0,1-.10767.03083c-1.30725.46136-2.62994.92273-3.9527,1.36883-.98425.33832-1.96856.66132-2.95294.98425-1.1842.38447-2.35309.769-3.53735,1.13807h-.01538c-1.10736.35382-2.19934.69214-3.30664,1.03051q-5.26008,1.615-10.59686,3.04523c-2.33777.63056-4.69086,1.23041-7.04407,1.81482-.90735.23077-1.81482.44611-2.73761.66138-1.61493.39984-3.22986.769-4.86011,1.1228-.95355.21521-1.9071.41516-2.86066.63049-1.26117.26148-2.53772.53827-3.81421.78443-1.1997.246-2.39929.47674-3.59893.70752-2.93756.569-5.89057,1.07647-8.85889,1.55328-1.06122.18457-2.10706.35382-3.16827.50757-1.04584.16913-2.10706.323-3.1529.47674-.99975.13849-2.01477.27686-3.01452.41535-1.87628.246-3.76813.49212-5.65979.7074q-2.07624.25387-4.15265.46148c-.43061.06147-.86127.09229-1.29187.13837-.63062.07684-1.27655.13843-1.92249.18451-1.21509.12311-2.43.23077-3.64508.33844-1.36883.123-2.72229.23065-4.09112.32294q-1.6149.11544-3.22974.23071c-.2,0-.41528.01538-.61523.03076-1.87635.123-3.75275.21527-5.629.29224-1.36884.0769-2.73773.123-4.12183.16919-1.56879.06146-3.15289.09228-4.73706.123q-1.03821.023-2.07629.04608c-1.615.01539-3.22986.03083-4.84473.03083s-3.22974-.01544-4.84473-.03083q-1.038-.02307-2.07629-.04608c-1.58417-.03076-3.16827-.06158-4.73706-.123-1.93787-.06153-3.86035-.13849-5.79816-.24616h-.12311c-1.8764-.09228-3.75268-.19983-5.6444-.33832-1.72254-.10766-3.46052-.246-5.183-.38446-.30762-.01544-.63061-.0462-.93823-.0769-1.27649-.10767-2.56848-.23071-3.845-.35382q-1.338-.11527-2.67609-.2768c-1.5072-.15381-2.99915-.32293-4.491-.49218-1.89166-.23066-3.7835-.46137-5.65979-.72284-2.49157-.33838-4.95239-.69208-7.42859-1.0766q-1.84551-.27685-3.69122-.59986-5.49069-.92267-10.90436-2.01477c-1.33807-.26141-2.6607-.53827-3.98346-.8305-.8305-.18451-1.661-.3537-2.47613-.53821-1.76874-.38452-3.53742-.7998-5.29071-1.23053-.93817-.21521-1.87634-.446-2.7992-.6767-1.19958-.29223-2.38391-.59973-3.58355-.90735-2.26081-.58447-4.50635-1.1997-6.75177-1.84564-2.47626-.67669-4.937-1.41491-7.39777-2.16852-1.16888-.35382-2.33777-.7229-3.50665-1.092s-2.32245-.7536-3.49134-1.13806q-1.10723-.36923-2.21459-.73822c-1.26117-.43072-2.52234-.86139-3.78351-1.30737-.30762-.09229-.59986-.19995-.90747-.323q-3.43744-1.22268-6.85944-2.5069-3.39129-1.29189-6.78259-2.66076c-1.12274-.446-2.24543-.90735-3.35285-1.38416-1.12274-.46148-2.24554-.93823-3.35284-1.415s-2.2301-.95355-3.322-1.44568q-8.3053-3.645-16.36432-7.7669c-.95355-.47675-1.90711-.96894-2.86066-1.46112a1.937,1.937,0,0,1-.35382-.18457,1.07422,1.07422,0,0,1-.26141-.13837c-3.79895-1.98407-7.567-4.02954-11.27356-6.152-1.90711-1.092-3.79883-2.184-5.67523-3.30676-3.53742-2.107-7.044-4.27557-10.4892-6.52106-.36908-.23077-.73822-.46142-1.09192-.70752-1.56879-1.03045-3.13757-2.06085-4.69086-3.10669-.13849-.09228-.27691-.18457-.41528-.29223-1.70715-1.15351-3.38361-2.307-5.06-3.49127l-.27691-.18458c-1.738-1.2304-3.46051-2.47613-5.16767-3.72192-1.13812-.83057-2.27618-1.67645-3.39892-2.53772-.78437-.58447-1.56879-1.16894-2.33777-1.76874-.323-.24609-.64594-.49212-.95355-.73822-1.10743-.84588-2.19935-1.70715-3.29132-2.56842-.27686-.21539-.5691-.446-.86133-.67675-1.338-1.0766-2.67609-2.15326-3.99872-3.24518-.52295-.41529-1.03052-.846-1.538-1.27655-1.19964-.98432-2.384-1.98395-3.56817-3.01453q-3.06829-2.60686-6.05969-5.306c-1.415-1.26117-2.83-2.53778-4.21412-3.82971q-2.0072-1.84562-3.96807-3.73737c-.55365-.52282-1.092-1.04577-1.6457-1.584-1.27655-1.23041-2.53772-2.47626-3.7835-3.722-1.3534-1.35333-2.70685-2.72217-4.02955-4.10644-1.338-1.36884-2.6607-2.76837-3.96795-4.16791q-8.0745-8.6283-15.54926-17.81006c-.79968-.98431-1.5841-1.96869-2.36847-2.95294-2.56842-3.21442-5.07537-6.49042-7.50543-9.79712-.67676-.892-1.33807-1.79944-1.984-2.70679-1.35345-1.861-2.67621-3.722-3.96808-5.61377-.78436-1.12268-1.55334-2.24548-2.32238-3.3836q-4.63705-6.85172-8.93573-13.93427c-1.215-1.99939-2.3993-3.99878-3.56818-6.02893q-3.48359-5.99826-6.72107-12.15021c-.58447-1.12274-1.16888-2.23016-1.73791-3.35284-.46143-.89209-.90741-1.76868-1.33808-2.64533-.4306-.86126-.86126-1.72253-1.27655-2.5838-.81512-1.64569-1.61493-3.30676-2.39929-4.96783-.49219-1.04584-.98425-2.10706-1.46106-3.16828-.38446-.81506-.75366-1.61486-1.10736-2.43-.38452-.8305-.7536-1.67639-1.12274-2.50683-.43067-.98438-.84589-1.95331-1.26117-2.93763-.44605-1.01507-.86127-2.03021-1.29193-3.04522-.50751-1.21509-1.01508-2.4455-1.5072-3.67585s-.98438-2.46075-1.46113-3.70654c-.35376-.89209-.69213-1.76874-1.01507-2.64538-.47675-1.24579-.95355-2.49158-1.3996-3.75275-.49219-1.30725-.95355-2.61463-1.415-3.93726a338.31331,338.31331,0,0,1-11.30426-39.63427c-.21533-.9228-.41528-1.86091-.59979-2.79908-.38452-1.76873-.7536-3.55279-1.092-5.33691-.246-1.24579-.47675-2.47614-.7074-3.72192-.12311-.66132-.24615-1.33808-.35382-1.99939-.23065-1.24579-.446-2.507-.64593-3.75275-.23072-1.36884-.446-2.75305-.66132-4.12183-.15387-1.0459-.323-2.09173-.46136-3.13757-.13849-.96893-.27686-1.92249-.39991-2.89142-.0462-.29224-.0769-.56909-.1231-.86127-.12305-.90741-.23072-1.81488-.3537-2.73761-.13843-1.092-.26154-2.184-.38446-3.27594-.16919-1.43035-.32306-2.86065-.46143-4.30639-.15381-1.3996-.27692-2.7992-.3999-4.19879a.42553.42553,0,0,1-.01538-.13837c-.12305-1.43036-.2461-2.86078-.3537-4.29108-.10767-1.27649-.18463-2.56842-.27692-3.845-.1076-1.61487-.19983-3.24512-.27685-4.86q-.06912-1.4535-.13837-2.90686c-.03076-.67676-.04614-1.35346-.07684-2.0456-.04621-1.39953-.09229-2.79907-.12311-4.19867-.07684-2.79919-.10767-5.61377-.10767-8.42822,0-1.4765.01544-2.93762.03083-4.41406.01525-1.32276.0307-2.63.06146-3.93726.03082-1.04584.06152-2.09173.09228-3.12219.03076-.63055.04621-1.26117.07691-1.89172.07684-2.21473.18451-4.42945.323-6.62879.04608-.96893.10766-1.92248.16912-2.876.07691-1.13806.15387-2.2763.24616-3.41436.09228-1.19959.18457-2.3993.29223-3.59888.15375-1.83026.32294-3.64508.52283-5.46q.18466-1.93781.41535-3.87573c.10766-.92286.21533-1.861.33831-2.78376.03077-.323.06153-.63061.10767-.93823.09222-.79974.2-1.58411.30762-2.36853.06146-.446.10766-.892.16913-1.338.13848-.92279.26141-1.84564.3999-2.76837q.34606-2.39941.73822-4.79859c.18457-1.29193.3999-2.5838.63061-3.86041.07691-.50757.16919-.99969.26142-1.5072.32306-1.90717.67676-3.81427,1.04583-5.706q.06932-.34606.13849-.69213c.32294-1.63025.64594-3.24512.99964-4.87543.43066-2.10706.89209-4.18341,1.38421-6.275.246-1.10736.50757-2.19934.769-3.29138.15374-.61511.30761-1.24579.46136-1.8609.24609-.99975.49219-2.01477.7536-3.01453,1.06122-4.10644,2.184-8.19757,3.399-12.24249.52289-1.75323,1.04584-3.49121,1.59949-5.22912.63067-1.99939,1.27661-3.99891,1.9533-5.98285.66132-1.96863,1.33808-3.93726,2.0456-5.89057a.20466.20466,0,0,1,.04608-.123c.58441-1.67646,1.19965-3.33753,1.8302-4.99848.16919-.523.36908-1.04583.58447-1.58423.64594-1.69171,1.30725-3.3836,1.96869-5.05993.769-1.93793,1.56867-3.8758,2.36847-5.7829.81506-1.92249,1.63025-3.82959,2.47614-5.73669.83056-1.89185,1.69189-3.78357,2.56842-5.67524.69213-1.49194,1.38427-2.98376,2.10717-4.46026.32294-.69208.66132-1.36884.99964-2.06085.569-1.15351,1.13812-2.307,1.72253-3.44519,1.21509-2.41468,2.46088-4.82929,3.73737-7.21326.7229-1.3534,1.44568-2.69147,2.184-4.0141q1.9378-3.52973,3.98334-7.01331c.81518-1.41491,1.64569-2.81457,2.49157-4.21411.21534-.3537.43067-.70752.646-1.0766.93817-1.538,1.89172-3.076,2.86066-4.59863,1.09191-1.7533,2.19934-3.47589,3.33746-5.19843,1.12268-1.72253,2.26086-3.4143,3.399-5.10614,0-.01544.01538-.01544.0307-.0307a.32248.32248,0,0,1,.06158-.0924c1.215-1.784,2.46076-3.56806,3.70654-5.3368.06159-.0769.10767-.16918.16913-.246,1.13825-1.58417,2.27631-3.16827,3.44525-4.73706,1.3841-1.89172,2.79908-3.78351,4.24476-5.64447,2.56854-3.33752,5.19848-6.64416,7.90533-9.874.27685-.36908.58447-.72278.90747-1.09192.87671-1.06122,1.78406-2.12244,2.69153-3.18366.63049-.7536,1.27643-1.49188,1.92248-2.2301,1.015-1.16888,2.04548-2.32239,3.076-3.47589.21533-.246.43061-.47681.66132-.72284,1.36883-1.538,2.76837-3.04529,4.168-4.55249V512q0,4.84461.18457,9.64319c.0307.73828.06146,1.49188.09228,2.2301q.25369,5.42157.73816,10.766c.07691.95355.16919,1.92255.27686,2.8761.10766,1.04578.21533,2.09174.33838,3.13757.18457,1.69178.39984,3.38349.63055,5.07538.09229.73822.2,1.46112.30762,2.19928.09228.66138.2,1.3227.29224,1.99939.123.78443.246,1.58423.38452,2.38391q.25368,1.638.55365,3.27594c.13842.81519.27679,1.63025.446,2.44544q1.015,5.44455,2.26093,10.81213c.41528,1.84558.87664,3.67584,1.35339,5.506q.32308,1.315.69214,2.63c.55365,2.10705,1.1535,4.19873,1.76867,6.275q.4152,1.36121.83057,2.72229c.32288,1.04584.66132,2.09168.99963,3.13758.30762.96887.63062,1.9378.95356,2.90673.33838.969.66131,1.92255.99975,2.89148.33832.95356.69208,1.92249,1.0304,2.876.3537.95355.70752,1.90711,1.07666,2.86078q1.08417,2.86065,2.2608,5.72131c.3692.90741.73828,1.8302,1.13819,2.73767q3.55269,8.39731,7.69,16.47193c.90735,1.78412,1.84552,3.56811,2.81445,5.33685.47681.87671.96893,1.76868,1.46112,2.64533.96893,1.75335,1.96869,3.50671,2.99915,5.22924,1.015,1.72254,2.06085,3.44513,3.12207,5.13684,1.06122,1.70728,2.13781,3.399,3.24524,5.07538,1.1073,1.67652,2.23,3.32215,3.36822,4.96784.84589,1.24579,1.72254,2.46075,2.59924,3.67584.87659,1.23035,1.75324,2.43,2.66071,3.62964q1.79938,2.39924,3.645,4.75238c.769.98431,1.538,1.95331,2.33783,2.92224q3.52963,4.36029,7.25928,8.582c.8305.93817,1.66107,1.861,2.507,2.76837q3.78351,4.12948,7.75147,8.12061,6.48267,6.45969,13.396,12.44244c.38452.33832.769.67676,1.16894.99976,1.44568,1.24579,2.9068,2.46075,4.38324,3.66034,1.61487,1.30737,3.22986,2.59924,4.87555,3.86041.36908.30762.7536.58447,1.13806.87665,1.01508.78442,2.03021,1.5534,3.06061,2.307.90741.67676,1.81482,1.35346,2.73761,1.99939.90747.66144,1.8302,1.30738,2.75305,1.95331s1.84564,1.29193,2.78381,1.92249q1.3841.94592,2.81446,1.89172c.93823.61524,1.8764,1.23047,2.82995,1.84558,1.90711,1.21509,3.82959,2.41468,5.75214,3.56818.96893.58447,1.93787,1.16888,2.92218,1.738a247.581,247.581,0,0,0,31.49823,15.56452c1.23035.50757,2.46088.99975,3.7066,1.4765h.01532c1.23047.49219,2.46088.95355,3.70661,1.415.89209.33832,1.79944.6767,2.69153.98431.10766.04608.2.07691.29223.10767q3.36815,1.19952,6.78253,2.307c.23072.0769.44605.15374.6767.21527,1.19971.38446,2.38391.75366,3.58356,1.1228q3.73737,1.15347,7.52087,2.16852h.0307c1.26117.3537,2.53772.69214,3.81427.99975,1.26117.33832,2.53766.64594,3.82959.93817,2.89148.69208,5.7829,1.32264,8.72046,1.89167.98432.19995,1.984.3999,2.98371.56909.63067.12305,1.26117.24609,1.89172.35376.69214.123,1.36883.246,2.061.35376.246.04614.47675.09222.72278.123.26154.04608.50757.09228.769.123.93824.16925,1.87641.323,2.83.446h.01538c.01538,0,.01538,0,.03076.01538,1.18421.18457,2.38391.35376,3.56812.5075,1.59955.23072,3.21448.43067,4.82934.61524q1.24586.16149,2.49152.27679c1.16888.13849,2.32239.24616,3.49133.35376.93811.09229,1.87629.16925,2.82984.2461s1.92248.1538,2.89148.21533q1.4534.11535,2.9068.18457c.96893.06152,1.93792.123,2.90686.15375q5.83666.27685,11.71954.27685a249.93456,249.93456,0,0,0,25.51544-1.29187h.01532c.3999-.0462.79981-.077,1.21509-.13849,1.338-.123,2.64532-.27679,3.95264-.446.86126-.09223,1.69177-.21533,2.53766-.323s1.69183-.23065,2.53771-.3537c.12311-.01538.26148-.03076.39991-.0462,1.5534-.23065,3.10669-.47675,4.66009-.72278.07691-.01544.16913-.03082.26142-.0462q4.614-.76118,9.18194-1.70716c.61524-.123,1.215-.246,1.81482-.36908q4.59091-.9689,9.0896-2.12249,5.55981-1.3841,11.012-3.02991c1.35346-.41516,2.70691-.84589,4.045-1.27643,1.015-.30762,2.01477-.64606,3.02978-.98437.7229-.246,1.44574-.49219,2.15326-.73822,1.63025-.55372,3.26056-1.13807,4.89079-1.73792,1.61489-.59985,3.22982-1.21509,4.82937-1.84564,1.61486-.63049,3.19909-1.27655,4.78314-1.93787,1.58423-.64593,3.16827-1.32269,4.73706-2.03021,1.56872-.69208,3.13751-1.39954,4.69092-2.12244q4.66012-2.16852,9.21258-4.537c1.46112-.75373,2.92224-1.52271,4.368-2.307,1.538-.846,3.09137-1.70728,4.6294-2.58392.53827-.30756,1.07647-.61518,1.61487-.93818q7.47463-4.33712,14.59558-9.16638l.03082-.03082c.72278-.47675,1.44568-.98431,2.16852-1.4765,1.32263-.90735,2.63-1.8302,3.92187-2.78375,1.13812-.79981,2.26093-1.63031,3.38361-2.4762.23077-.16913.46136-.33838.69214-.52295,1.09192-.81506,2.16851-1.64569,3.24511-2.49158.27686-.19989.53827-.41516.81519-.63049,1.16882-.90747,2.307-1.81482,3.44513-2.75311,1.1842-.95356,2.36847-1.93781,3.522-2.92212,1.07666-.92285,2.15326-1.8302,3.21448-2.76837.79968-.70752,1.61487-1.415,2.41467-2.13788,1.12268-.9997,2.23-2.01477,3.3374-3.04517,1.538-1.44574,3.07605-2.90686,4.59864-4.38336q4.08343-4.01413,7.98224-8.19757a.71549.71549,0,0,0,.10766-.10761c1.27655-1.36883,2.52234-2.73767,3.75269-4.12188q2.976-3.34506,5.8136-6.78253c.55377-.64594,1.0766-1.292,1.59961-1.95331.46136-.569.92273-1.13813,1.36871-1.70716q5.21383-6.52879,9.98169-13.41131l.01532-.01538c.33838-.47681.66144-.96894.99975-1.44574.41529-.63062.84589-1.24579,1.26117-1.87641.52283-.7843,1.06122-1.5841,1.584-2.39929.53839-.79968,1.06122-1.61487,1.5534-2.41467,1.13813-1.784,2.24555-3.56806,3.32215-5.36755.86127-1.415,1.70715-2.8299,2.53766-4.27564.03076-.07684.077-.13843.10766-.19995q-34.46658-34.48965-68.96386-68.96393-.36915,1.03821-.78437,2.07636c-.26147.63055-.50757,1.27649-.769,1.9071-.61529,1.538-1.26123,3.06061-1.93793,4.58325-.38452.892-.78436,1.76874-1.1997,2.64539a2.178,2.178,0,0,1-.12293.27685q-.39229.87663-.83063,1.7533c-1.12268,2.32233-2.29156,4.62933-3.55273,6.90564-.06152.123-.123.26141-.19995.38446-.50751.93817-1.04584,1.89172-1.58411,2.82989-.47674.84589-.98431,1.69184-1.49188,2.52234-.59979,1.03046-1.215,2.03015-1.861,3.02979-.29218.47687-.58441.93829-.892,1.39966-.58447.90735-1.16888,1.81482-1.78406,2.70691-.70752,1.04583-1.415,2.07623-2.15326,3.10669-.06146.09228-.123.16925-.16913.24609-.523.73822-1.06121,1.46112-1.58416,2.16858q-.48441.66906-.969,1.29193c-.46136.61517-.90735,1.19958-1.38409,1.79944a149.39609,149.39609,0,0,1-9.76636,11.38122c-.41522.46143-.86127.90741-1.30725,1.36884q-1.01514,1.06119-2.07629,2.12237c-.83057.83057-1.67646,1.6457-2.52234,2.46088a.5178.5178,0,0,0-.09229.09229c-.63061.59979-1.29193,1.19958-1.93786,1.784-.26148.26154-.523.49219-.78443.73835-.63049.58441-1.27655,1.15344-1.93786,1.72253-.93818.8305-1.89173,1.661-2.86066,2.44537q-.69205.59987-1.38428,1.15351c-.12292.10766-.246.21533-.38446.323-.59973.49219-1.215.98432-1.83026,1.46112-1.44568,1.13813-2.90674,2.26081-4.39862,3.33741-.83051.61523-1.66107,1.215-2.507,1.79944a2.10308,2.10308,0,0,1-.32294.23077c-.70752.50757-1.43042.99963-2.15319,1.49182q-3.13752,2.12247-6.39808,4.10651c-1.07659.64593-2.16864,1.29187-3.26062,1.92248-.79968.46137-1.61486.92279-2.41461,1.35346q-.66906.39211-1.338.73822c-.63062.33832-1.24585.67669-1.8764.98431a.015.015,0,0,1-.01538.01532c-.10773.06159-.23066.12305-.35376.18463-.36908.19989-.75361.38452-1.12268.56909a1.953,1.953,0,0,1-.35383.18451c-.72277.36914-1.44574.72284-2.16851,1.07666-.41529.21521-.84589.41516-1.27655.59974-.53827.27679-1.092.53833-1.6457.78436l-.09228.0462c-.52289.246-1.0766.49219-1.61487.73822-3.09143,1.36884-6.24426,2.66071-9.428,3.845-3.75268,1.38428-7.58227,2.63-11.45807,3.73737-.86126.24609-1.70715.49212-2.56842.70752-.18457.06146-.36914.10766-.55371.15375-.61523.15386-1.23034.323-1.861.46136-2.09167.53839-4.19873,1.01514-6.32117,1.44574-.61523.13843-1.2304.26154-1.861.36908q-3.02215.59985-6.09039,1.06122c-.75373.12311-1.50733.23077-2.27631.32306-.33832.06146-.67676.10766-1.03045.13842-.41529.06153-.84589.123-1.26117.16919-.81507.09223-1.63025.2-2.44538.2768-.47687.06152-.96893.10766-1.44574.13849-1.39959.15374-2.79913.26141-4.19879.3537-.7536.06146-1.5072.123-2.2608.15374-.59986.03083-1.19971.06159-1.81482.09229-2.39929.10766-4.814.16925-7.244.16925s-4.84473-.06159-7.244-.16925c-.61511-.0307-1.215-.06146-1.81482-.09229-.7536-.0307-1.5072-.09228-2.2608-.15374-1.39966-.09229-2.7992-.2-4.19879-.3537-.47681-.03083-.96887-.077-1.44574-.13849-.81513-.07684-1.63031-.18457-2.44538-.2768-.41528-.0462-.84588-.10766-1.26117-.16919-.35369-.03076-.69213-.077-1.03045-.13842-.769-.09229-1.52258-.19995-2.27631-.32306q-3.0682-.46125-6.09039-1.06122c-.63062-.10754-1.24579-.23065-1.861-.36908-2.12244-.4306-4.2295-.90735-6.32117-1.44574-.63062-.13837-1.24573-.3075-1.861-.46136-.15381-.04609-.30762-.07691-.446-.12305-1.07666-.29224-2.15326-.58447-3.21447-.892-1.18421-.33838-2.35309-.69208-3.522-1.06122-.09228-.03076-.18457-.04614-.26147-.07684q-1.47648-.46143-2.953-.96894c-.95356-.32305-1.90711-.64605-2.84528-.99975-.55365-.18457-1.092-.38452-1.63025-.59985q-.85363-.29994-1.70715-.64594c-.49219-.18457-.99976-.38452-1.492-.58447-.123-.04608-.246-.09223-.38446-.15375-.90741-.35376-1.83026-.73828-2.73761-1.1228s-1.81482-.769-2.72229-1.18421c-.46136-.19995-.92279-.3999-1.36883-.61523q-5.14454-2.35319-10.10468-5.05994c-.96887-.53839-1.92248-1.07666-2.89135-1.63031-2.58393-1.4765-5.10614-3.0299-7.59772-4.66015-.99976-.66138-1.98407-1.3227-2.96845-1.99939-3.44507-2.35321-6.79791-4.84473-10.02765-7.49-.56909-.44611-1.13812-.90748-1.69189-1.36884q-1.43032-1.17663-2.81445-2.39929c-.769-.66132-1.52271-1.33808-2.26093-2.01477-1.35345-1.215-2.69147-2.47614-3.99872-3.73731l-.33844-.33844c-.09228-.09228-.2-.19995-.30761-.29223-.04609-.04609-.07685-.09229-.123-.13837a.99123.99123,0,0,0-.13843-.123l-.21533-.21533-.47681-.47681c-2.29156-2.27618-4.4909-4.62927-6.62878-7.05932-.55365-.61524-1.1073-1.26117-1.64563-1.89185-.30756-.33832-.59979-.692-.892-1.04577-.59985-.70746-1.18432-1.415-1.76874-2.13776-.32293-.38452-.64593-.79981-.969-1.19971-.46136-.569-.90735-1.13812-1.338-1.72253-.38452-.46143-.73822-.93817-1.09192-1.415-.59986-.78436-1.18433-1.56879-1.75336-2.36853-.21533-.26147-.3999-.53827-.59985-.81512q-.92286-1.29191-1.79944-2.58381c-.96893-1.38427-1.90711-2.79919-2.83-4.22949-1.35345-2.13788-2.67608-4.30639-3.93725-6.49042-.769-1.32263-1.5072-2.6607-2.23011-4.01416-.3999-.7536-.79974-1.49182-1.1842-2.2608-.66132-1.26117-1.30737-2.55316-1.92248-3.845q-1.66115-3.43754-3.153-6.96716c-.38446-.89209-.73822-1.76874-1.09192-2.66071-.29223-.70752-.569-1.4303-.84588-2.13782-.16926-.41528-.323-.8305-.47675-1.24579-.21533-.58447-.43073-1.1535-.63062-1.738-.36914-.9997-.72284-1.99939-1.06127-3.01447q-2.46844-7.31322-4.24488-14.934c-.246-1.06121-.47674-2.107-.692-3.16827-.53833-2.53772-.99976-5.10614-1.39966-7.69-.07685-.49213-.15375-.98432-.23072-1.49189-.09228-.569-.16912-1.12274-.23065-1.69177-.13843-.90747-.26141-1.81482-.3537-2.73767-.123-.892-.21533-1.78406-.30761-2.69153-.13849-1.30725-.24616-2.61456-.35382-3.92187v-.09229c-.07685-.99969-.13837-1.98394-.19983-2.9837,0-.06146-.01538-.13843-.01538-.19995-.03083-.6767-.06159-1.36884-.09229-2.06085-.06158-1.10743-.09228-2.23011-.10767-3.35291-.03082-1.1535-.0462-2.32233-.0462-3.49121V107.95215A433.724,433.724,0,0,0,78.45337,512c0,239.43573,194.1109,433.54663,433.54663,433.54663a431.53415,431.53415,0,0,0,256.3537-83.88251q7.59-5.58288,14.934-11.45813a435.92093,435.92093,0,0,0,65.24188-64.88818q6.62109-8.09748,12.81159-16.53351Z"/>
    <path id="main_Line" data-name="main Line" class="cls-3" d="M939.1947,586.34685a430.56062,430.56062,0,0,1-30.14485,100.00074l-71.33232-71.33241-77.5152-77.49981V537.5L623.35119,400.64883q-1.61493-1.61493-3.27595-3.18367c-.24613-.23064-.47678-.446-.72291-.66133-1.215-1.1535-2.46076-2.27621-3.72193-3.36822-.446-.39989-.89207-.78439-1.35345-1.16889q-2.46851-2.1455-5.06-4.15253c-.646-.50756-1.292-1.01513-1.95329-1.5073a1.28594,1.28594,0,0,0-.246-.18455c-.50757-.3845-1.01513-.769-1.5227-1.13811a154.54713,154.54713,0,0,0-22.45475-13.85739c-.92276-.47677-1.84562-.92276-2.76838-1.36884-.83058-.3998-1.66106-.79969-2.50695-1.18419-.79979-.36911-1.59957-.72291-2.41467-1.07662q-3.50667-1.56875-7.10554-2.92224c-.87668-.33831-1.75335-.67672-2.64541-.98425-.969-.36919-1.9532-.70751-2.93754-1.03052-.53826-.18456-1.07662-.36911-1.63028-.53827-.64593-.23073-1.292-.43068-1.93789-.63063-.26143-.07688-.52287-.16916-.79979-.246-1.015-.323-2.03008-.61523-3.0606-.90746-.23065-.06148-.46138-.13836-.69212-.19985-.61514-.16925-1.23038-.33841-1.86092-.50757-.24613-.06158-.49217-.13846-.7536-.19994-.55376-.13847-1.10741-.29223-1.67647-.41529-2.09165-.53827-4.1987-1.015-6.32115-1.44573-.50757-.10767-.99974-.21534-1.5226-.30762-.92286-.18455-1.83023-.35371-2.75308-.50747-1.215-.23074-2.44537-.43068-3.67575-.61524-1.092-.16915-2.19942-.323-3.30674-.46138-.35371-.04618-.7229-.10767-1.07661-.13846-.969-.123-1.9379-.246-2.92215-.33831-.3845-.04619-.769-.07688-1.1535-.10767-.86127-.09228-1.70725-.16916-2.56852-.23074-.53826-.04609-1.09192-.09228-1.63028-.123a1.3752,1.3752,0,0,0-.35371-.03079c-.63063-.04619-1.26117-.09228-1.9071-.12307h-.04619c-.58444-.0307-1.16889-.06149-1.76864-.09228-1.19968-.06148-2.39927-.09227-3.61435-.123-1.19959-.03079-2.41467-.04618-3.62966-.04618s-2.43007.01539-3.62966.04618c-1.21508.0307-2.41467.06149-3.61435.123-.59975.03079-1.1842.06158-1.76864.09228h-.04619c-.64593.03079-1.27647.07688-1.9071.12307a1.3752,1.3752,0,0,0-.35371.03079c-.53836.03069-1.092.07688-1.63028.123-.86127.06158-1.70725.13846-2.56852.23074-.3845.03079-.769.06148-1.1535.10767-.98425.09227-1.9532.21534-2.92215.33831-.35371.03079-.7229.09228-1.07661.13846-1.10732.13837-2.21473.29223-3.30674.46138-1.23038.18456-2.46076.3845-3.67575.61524-.92285.15376-1.83022.32292-2.75308.50747-.52286.09228-1.015.2-1.5226.30762-2.12245.43069-4.2295.90746-6.32115,1.44573-.56906.12306-1.12271.27682-1.67647.41529-1.03043.27682-2.06086.55365-3.09129.84588-.56915.15376-1.1535.323-1.72265.50756-.43059.10767-.86128.246-1.27647.36911V266.73522a252.44647,252.44647,0,0,1,92.03382,0,2.38515,2.38515,0,0,0,.323.06158c1.19959.23065,2.39927.46138,3.58356.72282h.0153c.16925.01539.33841.06148.50757.09227.69212.13846,1.38423.27683,2.061.43069.18455.03069.3691.07688.55366.123.04618.01539.09227.01539.13846.03079l.23064.04618a.05677.05677,0,0,0,.04619.01531,1.786,1.786,0,0,1,.27682.06158h.0154c.0153,0,.0153,0,.0307.01539,1.15349.246,2.2916.50747,3.4451.769,1.415.33832,2.83.67672,4.24489,1.04583,1.27657.32292,2.55313.66133,3.8143.99964h.0307c1.26117.35381,2.507.70752,3.75272,1.06123.63063.16925,1.24578.3538,1.87641.53835.0307.0154.06149.0154.09228.0307.53826.15385,1.06122.323,1.59948.49217.69212.2,1.39963.41529,2.09166.63063.79979.246,1.58418.49217,2.36858.75361,2.15314.70751,4.291,1.43032,6.41343,2.18393,1.24577.43068,2.49155.89206,3.72193,1.35344,1.24578.46139,2.47625.92277,3.69124,1.41494q1.68405.646,3.36822,1.33805c.93815.3845,1.87631.769,2.79917,1.16889.53826.21535,1.07662.44608,1.59948.69212.55366.23074,1.092.46138,1.63028.70752.46138.18455.92285.39989,1.38424.61514.47677.21534.93815.43068,1.39953.63063.93816.4152,1.861.84588,2.78378,1.27647.7536.35381,1.5073.70752,2.26091,1.07662q.76121.36919,1.5226.73831a.86727.86727,0,0,1,.10767.06148c.63054.30762,1.27647.61524,1.89171.93816,2.307,1.1535,4.614,2.35318,6.89021,3.58356q2.307,1.24574,4.5679,2.53774c.69212.3998,1.39954.7997,2.09166,1.19959,1.38424.81518,2.76838,1.63028,4.13722,2.46076q4.4525,2.6993,8.79741,5.59834c.569.3845,1.12271.75361,1.67636,1.13811.12307.077.24614.16925.36911.26152.58445.3845,1.16889.7843,1.75334,1.1842.84588.58445,1.70716,1.18429,2.553,1.79953q1.961,1.38414,3.87579,2.81447c1.03043.7536,2.04556,1.5226,3.0606,2.307.846.63063,1.67646,1.27656,2.507,1.93789,1.18429.92286,2.35318,1.861,3.50668,2.79917,1.1842.969,2.35309,1.93789,3.522,2.92224,1.24578,1.06122,2.49156,2.12244,3.72194,3.21436.61523.53836,1.23047,1.07662,1.83022,1.63028,1.1535,1.03052,2.2917,2.061,3.41441,3.10679q4.36026,4.08342,8.56666,8.35132L853.32817,500.48042Z"/>
  </g>
</svg>
