<svg xmlns="http://www.w3.org/2000/svg" fill="none">
  <symbol id="emblem">
    <path
      d="M61.26 59.378a14.901 14.901 0 0 0-1.039-4.53 22.181 22.181 0 0 0-1.897-4.196 44.892 44.892 0 0 0-3.641-5.455 21.533 21.533 0 0 0-6.41-5.554 33.801 33.801 0 0 0-6.32-3.221 22.558 22.558 0 0 0-8.629-1.358c-1.513.16-3.077-.111-4.577.074-2.27.284-4.513.778-6.756 1.234-.103 0-.193.099-.295.148-1.052.531-2.141 1.025-3.154 1.617a42.122 42.122 0 0 0-5.36 3.382 27.107 27.107 0 0 0-6.627 7.677A21.335 21.335 0 0 0 3.99 55.12a29.995 29.995 0 0 0-1.193 6.529c.116 9.763 0 19.538.116 29.313.078.515.229 1.017.448 1.493.234-.468.394-.968.475-1.481V70.708c.047-.64.145-1.275.295-1.9 1.077 1.406.91 2.875.884 4.405-.09 6.073 0 12.145 0 18.218 0 .333.334.678.526 1.011.167-.345.487-.703.487-1.06V73.706c.069-.428.203-.844.397-1.234.52.22 1.01.497 1.462.827.201.304.287.666.244 1.024v4.727c0 4.049-.09 8.097-.103 12.145.039.397.134.788.282 1.16h.423c.073-.408.12-.82.141-1.234V75.077c0-.58 0-1.234.782-1.123.27 0 .641.716.654 1.099V91.43c.037.346.119.686.244 1.012h.41c.09-.406.15-.819.18-1.234V75.682c0-.605 0-1.234.897-1.234.177 0 .353.034.515.102.163.068.31.168.43.293.12.126.212.274.27.435.059.161.081.332.067.503-.077 5.171-.09 10.342-.115 15.514.063.324.18.636.346.925h.346c.088-.36.143-.728.167-1.098 0-5.134-.103-10.269-.09-15.403 0-.457.538-.913.82-1.37.257.407.744.827.744 1.234v15.305c0 .505.09 1.024.128 1.53h.551c.081-.454.137-.91.167-1.37V75.633c0-.667 0-1.37 1-1.395 1-.025 1.09.63 1.09 1.395v15.625a2.071 2.071 0 0 0 0 .753.742.742 0 0 0 .462.346s.281-.21.32-.346c.038-.25.038-.504 0-.753V74.88c0-.358.448-.691.692-1.025.229.313.439.639.628.975V91.295c.076.433.227.85.45 1.234.153-.395.32-.778.473-1.234a.901.901 0 0 0 0-.321V73.658c0-.26.41-.691.629-.691.169.03.328.1.462.203.134.103.24.237.307.39.105.402.131.82.077 1.233 0 5.456-.103 10.923-.116 16.378 0 .321.308.642.475.95.18-.332.513-.678.525-1.011v-6.887c0-2.296-.102-4.666-.166-6.998a19.919 19.919 0 0 1 0-3.604c.074-.346.236-.669.47-.94.235-.271.536-.483.876-.615.795-.136.602.79.602 1.32v17.576c-.01.356.024.712.103 1.06 0 .174.256.31.397.458.167-.16.398-.297.488-.494.067-.203.089-.418.064-.63V72.843c0-.592-.27-1.333.615-1.629a6.06 6.06 0 0 1 .513 1.617v18.217a2.08 2.08 0 0 0 0 .753c.133.218.302.414.5.58.141-.222.397-.432.41-.654v-2.259c0-5.208.022-10.42.064-15.637 0-1.235-.474-2.666.808-3.703.128-.111 0-.432.167-.605.186-.215.397-.41.628-.58.154.26.41.506.436.765 0 .494-.103 1-.116 1.494-.154 5.39-.299 10.774-.436 16.156 0 1.086-.076 2.16 0 3.233.003.49.187.961.518 1.332.331.37.788.616 1.29.692.433.019.857-.115 1.195-.377.337-.26.564-.631.639-1.042a4.75 4.75 0 0 0 0-.963c-.154-6.887-.308-13.773-.424-20.648 0-.26.436-.592.744-.728s.68.382.654.469c-.449 1.234.487 2.172.449 3.406-.206 5.418 0 10.837 0 16.267 0 .79-.116 1.58-.077 2.37 0 .296.346.58.525.864.24-.258.45-.54.628-.84.04-.212.04-.43 0-.641V78.274c0-1.79-.076-3.58 0-5.369.044-.465.212-.912.488-1.296.09-.148.718-.197.756-.111.278.398.45.856.5 1.333v18.513c.052.34.147.67.282.988h.436c0-.58.116-1.148.116-1.728v-17.28c.084-.46.253-.904.5-1.308.367.241.748.464 1.14.667.36.16.795.432 1.129.358 1.282-.309 1.487-.21 1.487 1.11v16.81c.074.487.22.961.436 1.407.219-.438.374-.903.461-1.382V74.941a9.71 9.71 0 0 1 .282-1.69h.487c.247.465.416.965.5 1.48v16.045c.029.534.088 1.066.18 1.593h.449a4.45 4.45 0 0 0 .32-1.099v-3.234c0-4.307 0-8.64-.077-12.934 0-.74 0-1.308.949-1.333.949-.025 1.167.444 1.167 1.234v16.045c.082.466.242.916.474 1.333a4.8 4.8 0 0 0 .423-1.32V75.014c0-.394.385-.79.603-1.234.18.37.525.753.525 1.136v15.946a5.29 5.29 0 0 0 .462 1.518 5.359 5.359 0 0 0 .564-1.543V74.793c0-.345.192-.925.41-.987a1.666 1.666 0 0 1 1.205.284c.193.136.193.605.193.925 0 .321-.141.63-.141.95V91.16c0 .32.307.642.487.963.18-.334.526-.667.526-1 0-5.492-.065-10.985-.09-16.477.007-.498.107-.992.295-1.456a.797.797 0 0 1 .303-.269.833.833 0 0 1 .402-.09c.218 0 .436.347.525.581.046.245.046.496 0 .74v17.033c.036.418.118.832.244 1.234h.474c.087-.457.142-.919.167-1.382V73.349a2.57 2.57 0 0 1 .077-.95 3.12 3.12 0 0 1 .692-.728c.231.284.59.53.667.851.044.464.044.931 0 1.395v16.921a2.102 2.102 0 0 0 0 .753c.131.223.295.427.487.605.199-.18.368-.388.5-.617.045-.212.045-.43 0-.642V70.893c.006-.57.147-1.131.41-1.641a4.01 4.01 0 0 0 .455-1.852 4.01 4.01 0 0 0-.455-1.85 3.89 3.89 0 0 1-.448-1.235c-.154-2.037-.257-4.085-.372-6.171a3.229 3.229 0 0 0-.154-1.062 29.976 29.976 0 0 0-1.898-4.159 47.332 47.332 0 0 0-4.487-6.603 26.767 26.767 0 0 0-8.64-6.085 10.149 10.149 0 0 0-2.642-1.024c-2.448-.444-4.91-.827-7.384-1.074A23.534 23.534 0 0 0 21.17 40.31a39.92 39.92 0 0 0-5.859 3.703 24.938 24.938 0 0 0-6.872 7.887 8.04 8.04 0 0 0-1.051 2.221c-.449 1.827-1.59 3.518-1.282 5.505 0 .109-.03.216-.09.308-.897 1.37-.666 2.876-.654 4.382-.06 1.03-.21 2.054-.448 3.06h-.5a11.355 11.355 0 0 1-.27-1.715 48.292 48.292 0 0 1 .077-6.245 31.365 31.365 0 0 1 1.282-5.233c.263-.934.633-1.836 1.103-2.69a28.793 28.793 0 0 1 2.77-4.357 39.816 39.816 0 0 1 4.986-5.11 40.233 40.233 0 0 1 5.129-3.246 11.636 11.636 0 0 1 5.256-1.851c.324-.062.642-.153.949-.272.717-.233 1.45-.418 2.192-.555.77-.111 1.564 0 2.346-.087 3.809-.329 7.647.091 11.282 1.234a24.273 24.273 0 0 1 3.846 1.74 23.206 23.206 0 0 1 4.167 2.58 44.397 44.397 0 0 1 5.564 5.53 27.822 27.822 0 0 1 3.32 5.628 22.336 22.336 0 0 1 1.437 4.653c.43 1.616.687 3.27.769 4.936v28.671c.033.415.097.828.192 1.234h.41c.115-.37.193-.75.231-1.135-.115-10.503-.09-21.105-.192-31.707Zm-43.128 4.32c0 .11-.552.136-.693 0a3.352 3.352 0 0 1-.525-.889c.263-.732.58-1.446.948-2.135.125-.141.284-.25.463-.317.179-.066.373-.09.563-.066a.968.968 0 0 1 .362.356.923.923 0 0 1 .125.483c-.35.884-.766 1.742-1.243 2.568Zm2.987.851c-.128.173-.91.124-1.167-.086a1.221 1.221 0 0 1-.3-.525 1.19 1.19 0 0 1-.008-.598 2.84 2.84 0 0 1 .808-1.234 1.191 1.191 0 0 1 .974-.186c.308.075.552.37.77.544-.304.7-.664 1.377-1.077 2.024v.061Zm8.32-7.245c-.102.112-.397.741-.73.766-.86 0-1.282-.642-1.193-1.37a1.22 1.22 0 0 1 .284-.534c.138-.153.314-.27.511-.343.68-.123 1.205.235 1.128 1.42v.061Zm1.282 2.913c-.371.297-.692.778-1.102.84-.86.148-1.154-.457-1.154-1.235 0-.777.077-1.16.846-1.135.77.025 1.23.444 1.423 1.469l-.013.061Zm-3-5.258a1.13 1.13 0 0 1-.504-.054 1.094 1.094 0 0 1-.424-.268 1.04 1.04 0 0 1-.252-.424 1.01 1.01 0 0 1-.025-.488c0-.358.423-.703.552-.913 1.076 0 1.512.358 1.371 1.05-.115.37-.41.999-.705 1.036l-.013.061Zm-2.487-4.862c.91.345 1.282-1.37 2.192-.58.257.222.244.728.308.938-.128.913-.269 1.839-1.218 1.629-.666-.148-1.18-.914-1.73-1.432.012-.123.371-.617.461-.617l-.013.062Zm-1.154-.506c-.474-.457-1.102-.79-1.282-1.235-.18-.444.308-1.073 1.052-1.234.743-.16 1.09-.543 1.68-.654.589-.111 1.46-.234 1.794 0 .127.122.222.273.274.44a1.012 1.012 0 0 1-.204.973 1.089 1.089 0 0 1-.429.303c-.82.444-1.756.827-2.872 1.345l-.013.062Zm4.077-5.752a2.047 2.047 0 0 1-.636.908c-.293.241-.65.4-1.03.462a21.26 21.26 0 0 0-3.718 1.42c-.36.148-.68.358-1.218.641a8.68 8.68 0 0 1-1.372-1.123c-.359-.444-.167-.814.436-1.049 1.282-.481 2.384-1.123 3.615-1.567a16.666 16.666 0 0 1 3.128-.728c.731-.16 1.09.345.808.975l-.013.061ZM23.03 65.907a1.28 1.28 0 0 1-.51-.355 1.215 1.215 0 0 1-.272-.546c-.077-1.086.718-2.037 1.59-1.95.359 0 .666.42.859.543-.026 1.037-1.064 2.382-1.705 2.246l.038.062Zm3.577.815c-.295.259-.641.654-.949.641a1.316 1.316 0 0 1-.593-.184 1.256 1.256 0 0 1-.432-.433c-.129-.259.205-.716.359-1.061.139-.326.315-.637.525-.926.29-.301.598-.585.923-.852.488.408 1.013.655 1.154 1.037.141.383-.256.753-.461 1.123a2.943 2.943 0 0 1-.565.593l.039.062Zm1.538 2.184c-.615 0-.974-.308-.91-.95.09-.889 1.795-2.641 2.705-2.604.334 0 .628.567.757.69-.052 1.173-1.705 2.827-2.59 2.802l.038.062Zm7.693-.16a9.071 9.071 0 0 1-2.346-1.975c-.193-.198 0-.913.23-1.234.231-.321.808-.124 1.141 0 1.282.567 2.154 1.53 2.154 2.234 0 .703-.564 1.283-1.243.864l.064.11Zm3.705-2.469c-.165.35-.463.624-.834.766a1.183 1.183 0 0 1-.858-.235 2.427 2.427 0 0 1-.667-.716c-.192-.296-.551-.728-.449-.938.103-.21.616-.518.77-.617.897-.062 2.179 1.148 1.974 1.716l.064.024Zm1.59-.407h-.513a3.331 3.331 0 0 1-.693-1.05.726.726 0 0 1 .167-.764.811.811 0 0 1 .782-.21c.434.137.84.341 1.205.605-.371.48-.692.913-1.012 1.394l.064.025Zm-2.103-13.762a2.572 2.572 0 0 1 .115-1.53.731.731 0 0 1 .29-.194.758.758 0 0 1 .352-.04c.58.236 1.14.512 1.679.826.128.075.18.284.359.556-.487.432-.91 1.049-1.462 1.234-.55.185-1.18-.469-1.397-.876l.064.024Zm2.885-1.79a14.11 14.11 0 0 1-2.129-1.456 1.611 1.611 0 0 1-.153-1.234c.064-.259.513-.42.705-.58l2.564 1.407c.117.084.228.175.333.272.398.308 1.18.395.731 1.16-.229.319-.577.54-.972.615a1.601 1.601 0 0 1-1.143-.208l.064.025Zm1.692 14.28c-.333-.407-.692-.653-.692-.913 0-.259.371-.728.525-.703.154.025.834.333.846.543.013.21-.423.58-.743 1.049l.064.025Zm1.449-15.896c-.36-.197-.654-.481-1.013-.666-1.154-.642-2.346-1.235-3.462-1.901a6.913 6.913 0 0 1-1.282-1.32c.193-.852.577-1.16 1.193-.926 1.221.467 2.415.999 3.577 1.592.782.395 1.435 1 2.192 1.431.513.284 1.128.482.628 1.16-.5.68-1.038 1.074-1.897.605l.064.025Zm1.115 14.81-.795-.814c.32-.288.69-.521 1.09-.691.18-.062.5.32.77.506l-1.065 1Zm2.564-.863c-.243-.309-.64-.605-.666-.938-.026-.334.333-.642.512-.963h.423c.18.333.552.703.5.987-.05.284-.59.556-.859.852l.09.062Zm6.346-9.775a16.003 16.003 0 0 1 2.565 9.676c0 .271-.385.53-.59.79a4.216 4.216 0 0 1-.693-.74 1.537 1.537 0 0 1-.115-.741 13.196 13.196 0 0 0-1.718-5.863 2.993 2.993 0 0 1-.232-1.654c.082-.562.321-1.09.694-1.53l.09.062Zm-1.18 3.924c.169.224.31.464.424.716.359 1.234.744 2.358 1.013 3.567 0 .321-.244.728-.385 1.099-.564-.26-1.397-.395-1.602-.815a12.795 12.795 0 0 1-.847-3.024 1.273 1.273 0 0 1 .26-1.1c.126-.152.285-.277.466-.365.18-.087.38-.135.582-.14l.09.062Zm-1.525 4.308c0 .26-.423.852-.743.9-.744.124-1.41-.653-1.385-1.53.077-.617.115-1.394 1.141-1.32 1.295.05.757 1.185.898 1.888l.09.062ZM38.042 40.248c.115-.124.262-.218.426-.272a1.05 1.05 0 0 1 .51-.037c1.382.377 2.728.864 4.026 1.456 1.569.778 3.07 1.678 4.487 2.691a42.712 42.712 0 0 1 3.68 3.073c.14.124.191.593.114.642a6.99 6.99 0 0 1-1.282.47 11.736 11.736 0 0 1-2.564-1.531 15.484 15.484 0 0 0-5.756-3.468 8.724 8.724 0 0 1-3.423-2.123c-.167-.247-.346-.753-.218-.901Zm.513 12.848 1.282 1.123a9.093 9.093 0 0 1-1.616 1.11c-.115 0-.794-.641-.73-.777a6.97 6.97 0 0 1 1.09-1.48l-.026.024Zm-1.436 2.839c.282 0 .5.444.59.53 0 1.074-.654 1.79-1.36 1.679a1.052 1.052 0 0 1-.397-.268 1.001 1.001 0 0 1-.23-.411c-.09-.728.781-1.679 1.397-1.555v.025ZM35.31 58.76l.718.605c0 1.234-.526 1.876-1.282 1.777a1.693 1.693 0 0 1-.795-.63c.398-.654.885-1.221 1.36-1.752Zm-3.14 4.16c.268-.334.41-.68.666-.803.42-.24.897-.367 1.384-.37.206 0 .552.63.5.913-.05.284-.397 1.11-.692 1.136a24.95 24.95 0 0 1-3.962 0c-.256 0-.666-.618-.666-.95.001-.216.054-.428.154-.62.1-.193.245-.361.423-.492a1.856 1.856 0 0 1 1.282.173c.359.21.551.617.91 1.012ZM16.156 44.16c.782-.47 1.59-.865 2.372-1.322 2.474-1.444 4.949-2.838 7.936-3.023a11.069 11.069 0 0 0 1.59-.47 14.447 14.447 0 0 1 2.18-.295.695.695 0 0 1 .333.13.658.658 0 0 1 .217.277c0 .16-.179.407-.333.58-1.359 1.592-3.32 1.715-5.23 2.098a15.712 15.712 0 0 0-3.526 1.432c-.885.42-1.654 1.061-2.564 1.444-.638.188-1.296.3-1.962.333v-.111a3.52 3.52 0 0 1-.885 0 2.293 2.293 0 0 1-.653-.457c.166-.222.295-.494.513-.617h.012Zm.628 14.6c.282.37.5 1.234.282 1.456a2.685 2.685 0 0 0-.63.91 2.6 2.6 0 0 0-.203 1.077c0 .26-.628.531-.795.654-1 0-1.384-.394-1.192-1.036.32-1.02.749-2.005 1.282-2.938.051-.197 1.103-.271 1.256-.123Zm-2.717-2.234c.423.195.805.463 1.128.79-.141.432-.18.605-.244.777-.577 1.383-1.115 2.79-1.77 4.147a1.281 1.281 0 0 1-.5.35 1.327 1.327 0 0 1-.614.082 1.149 1.149 0 0 1-.396-.44 1.1 1.1 0 0 1-.117-.572 50.945 50.945 0 0 1 1.654-4.48c.115-.26.653-.679.859-.617v-.037Zm-1.013-1.494c-.023.317-.12.625-.282.902a10.702 10.702 0 0 0-1.77 4.751 4.482 4.482 0 0 1-.935 1.9c-.09.149-.59.285-.641.21a8.273 8.273 0 0 1-.744-1.233c.667-1.79 1.359-3.629 2.026-5.48.175-.433.312-.879.41-1.333a.96.96 0 0 1 .12-.385.998.998 0 0 1 .27-.306 1.042 1.042 0 0 1 .79-.198c.769.074.807.654.756 1.197v-.025Zm-7.026 7.505c.218-1.763.57-3.508 1.051-5.221.693-1.962 1.795-3.777 2.641-5.69.423-.95.744-1.925 2.026-2.382a5.98 5.98 0 0 1-.872 4.246c-.782 1.345-1.218 2.876-1.91 4.27a11.114 11.114 0 0 0-.962 5.06 1.09 1.09 0 0 1-.121.476 1.133 1.133 0 0 1-.321.38 1.188 1.188 0 0 1-.968.218c-.884-.05-.654-.777-.564-1.32v-.037ZM26.965 12.33c.462.474.89.977 1.282 1.505l-.205.321c-.47-.095-.933-.223-1.385-.382a3.627 3.627 0 0 0-2.764-.044c-.44.173-.838.43-1.172.756a3.37 3.37 0 0 0-.769 1.14 1.87 1.87 0 0 0-.115 1.147c.449 1.74 3.205 3.085 4.743 2.061.43-.176.892-.272 1.36-.284a19.604 19.604 0 0 1-1.885 3.049c-.258.367-.39.803-.376 1.246.014.443.172.87.453 1.222.222.437.58.798 1.021 1.035.443.236.95.336 1.453.286a3.553 3.553 0 0 0 1.962-.828 3.334 3.334 0 0 0 1.09-1.776 5.34 5.34 0 0 1 .64-1.136c.282.295.532.618.744.963a4.716 4.716 0 0 0 2.256 2.567 2.749 2.749 0 0 0 1.81.13 2.652 2.652 0 0 0 1.472-1.019 3.469 3.469 0 0 0-.205-3.702l-1.436-1.815.231-.296c.398.111.795.21 1.167.346 1.846.666 4.307-.42 4.628-2.05a2.214 2.214 0 0 0-.014-1.355 2.299 2.299 0 0 0-.806-1.112 3.413 3.413 0 0 0-1.745-.91 3.493 3.493 0 0 0-1.973.194c-.464.18-.94.328-1.423.444l-.193-.407c.395-.523.823-1.022 1.282-1.494.362-.364.635-.801.801-1.279a3.31 3.31 0 0 0 .16-1.485 2.164 2.164 0 0 0-.422-1.323 2.303 2.303 0 0 0-1.154-.825 2.335 2.335 0 0 0-1.475-.198c-.5.096-.952.353-1.282.729a24.662 24.662 0 0 0-1.59 2.295c-.218.261-.458.505-.717.729-.231-.296-.475-.568-.68-.877a13.375 13.375 0 0 0-1.41-2.234 2.585 2.585 0 0 0-.883-.511 2.656 2.656 0 0 0-2.016.127 2.55 2.55 0 0 0-.806.619c-.3.304-.53.664-.675 1.058a2.896 2.896 0 0 0 .19 2.423c.205.37.488.693.831.95ZM37.926 120.472c.975-1.235.244-2.975-.679-3.999-.41-.457-.756-.988-1.128-1.481l.269-.247c.641.173 1.282.37 1.923.481a3.58 3.58 0 0 0 2.123-.204 3.418 3.418 0 0 0 1.595-1.363 2.848 2.848 0 0 0 .206-1.522 2.898 2.898 0 0 0-.616-1.416 3.693 3.693 0 0 0-1.732-.937 3.792 3.792 0 0 0-1.986.073c-.605.193-1.222.35-1.846.469.897-1.394 1.654-2.468 2.23-3.566a2.548 2.548 0 0 0-.02-1.638 2.648 2.648 0 0 0-1.018-1.312 2.73 2.73 0 0 0-2.936 0 3.78 3.78 0 0 0-1.204 1.109c-.312.45-.518.96-.604 1.495a3.46 3.46 0 0 1-.294.839l-.36.099c-.358-.555-.666-1.123-1.064-1.642a7.965 7.965 0 0 0-1.628-1.95 2.65 2.65 0 0 0-2.279-.24 2.58 2.58 0 0 0-.98.627c-.273.28-.473.616-.587.983a3.04 3.04 0 0 0-.116 1.795c.144.596.465 1.139.924 1.562.415.473.784.981 1.102 1.519l-.166.271c-.462-.111-.936-.197-1.385-.346a3.917 3.917 0 0 0-2.064-.051 3.798 3.798 0 0 0-1.782 1.002 2.443 2.443 0 0 0-.528.877 2.38 2.38 0 0 0 .196 1.974 2.5 2.5 0 0 0 .69.765 3.71 3.71 0 0 0 1.633.772 3.787 3.787 0 0 0 1.817-.081c.487-.111.961-.247 1.435-.37l.218.222c-.282.42-.59.839-.846 1.234a11.344 11.344 0 0 0-1.205 2.345 2.286 2.286 0 0 0-.027 1.071c.076.355.235.687.465.973.23.286.525.518.863.677a2.53 2.53 0 0 0 1.084.241 3.579 3.579 0 0 0 1.945-.659c.564-.403.99-.96 1.221-1.599a9.82 9.82 0 0 1 1.065-1.679l.371.124c.073.262.167.517.282.765a11.8 11.8 0 0 0 1.282 2.296c.286.26.625.46.997.584a2.859 2.859 0 0 0 2.272-.196c.343-.187.64-.441.872-.746ZM58.657 114.572l-9.602.074a1.62 1.62 0 0 0-.668.044 1.57 1.57 0 0 0-.587.31c-.17.144-.304.321-.395.52a1.447 1.447 0 0 0-.132.632c-.68 5.541-3.552 9.429-9.129 11.305-.559.278-1.08.623-1.55 1.025l.14.333c.342.071.69.113 1.039.123 2.487-.086 4.987-.234 7.474-.271 3.11.005 6.14-.942 8.654-2.703a14.696 14.696 0 0 0 4.084-4.336 14.119 14.119 0 0 0 1.967-5.538 1.188 1.188 0 0 0-.256-1.068 1.275 1.275 0 0 0-.465-.342 1.327 1.327 0 0 0-.574-.108ZM24.337 126.889a13.657 13.657 0 0 1-4.718-3.859 13.029 13.029 0 0 1-2.487-5.459 9.049 9.049 0 0 0-.641-2.172 1.56 1.56 0 0 0-.46-.531 1.639 1.639 0 0 0-.656-.284c-3.23-.061-6.41 0-9.705 0a1.329 1.329 0 0 0-.634.08c-.2.078-.378.203-.515.365a1.191 1.191 0 0 0-.223 1.172 36.065 36.065 0 0 0 1.616 4.764c1.366 2.732 3.652 4.937 6.487 6.258a16.719 16.719 0 0 0 7.372 1.481c2.154.061 4.308.222 6.41.308.577-.03 1.15-.096 1.718-.197a7.869 7.869 0 0 0-1.154-.951c-.743-.37-1.64-.567-2.41-.975ZM47.042 11.034c.782 3.147.602 3.196 4.038 3.209h7.488c.692 0 1.5 0 1.384-.963a14.162 14.162 0 0 0-.756-3.702 14.227 14.227 0 0 0-4.064-5.814A13.432 13.432 0 0 0 47.914.42c-3.32-.321-6.68-.346-10.026-.482a5.067 5.067 0 0 0-.859.087l-.23.407c.42.358.89.657 1.397.889a13.053 13.053 0 0 1 5.825 3.673 12.328 12.328 0 0 1 3.02 6.04ZM6.03 14.33h9.153a1.33 1.33 0 0 0 .983-.244c.138-.103.253-.232.337-.379a1.2 1.2 0 0 0 .154-.476 32.597 32.597 0 0 1 1.552-4.937 11.54 11.54 0 0 1 3.021-4.297 12.119 12.119 0 0 1 4.67-2.59c.504-.241.97-.548 1.386-.913l-.244-.408A5.213 5.213 0 0 0 26.17 0c-2.564.074-5.051.222-7.59.247a14.193 14.193 0 0 0-8.14 2.468A14.157 14.157 0 0 0 6.336 6.91a13.587 13.587 0 0 0-1.987 5.433c-.18 1.58.077 1.987 1.68 1.987Z" />
    <path
      d="M64.016 76.274v-11.96a30.616 30.616 0 0 0-1.282-9.873 26.68 26.68 0 0 0-2.205-5.653 52.919 52.919 0 0 0-3.961-5.862c-3.163-3.993-7.434-7.043-12.32-8.8-1.719-.605-3.398-1.37-5.13-1.802a21.835 21.835 0 0 0-5.55-.79c-2.82 0-5.641.47-8.462.74a3.06 3.06 0 0 0-.32.087c-1.052.333-2.103.642-3.142.987-1 .24-1.97.578-2.897 1.013-2.14 1.234-4.243 2.468-6.295 3.9a24.568 24.568 0 0 0-6.307 6.294 24.966 24.966 0 0 0-4.488 8.936c-.359 1.715-.602 3.443-.884 5.171-.103.556-.167 1.123-.27 1.691-.19.646-.318 1.307-.384 1.975v28.67c-.045.212-.045.43 0 .642.14.213.309.408.5.58.167-.197.461-.394.487-.604 0-.47-.115-.938-.102-1.395.269-11.404-.718-22.833.846-34.2.03-.25.081-.498.153-.74.321-.976.654-1.95.975-2.926.054-.282.135-.559.243-.826.872-1.556 1.693-3.148 2.693-4.617a42.219 42.219 0 0 1 3.68-4.788 25.276 25.276 0 0 1 6.871-5.307 19.643 19.643 0 0 1 6.859-2.74c.214-.056.424-.126.628-.21.705-.21 1.41-.457 2.141-.617.949-.185 1.91-.321 2.86-.457a16.874 16.874 0 0 1 3.307-.37c1.615.11 3.205.605 4.82.728 2.317.28 4.577.891 6.706 1.814.603.157 1.194.355 1.769.593a47.416 47.416 0 0 1 4.166 2.592 37.962 37.962 0 0 1 4.488 3.616 35.654 35.654 0 0 1 3.846 4.566 23.28 23.28 0 0 1 2.32 4.098 37.29 37.29 0 0 1 1.282 4.048c0 .173.167.321.231.481.268.528.458 1.089.564 1.667.205 5.344.436 10.676.513 16.045.077 6.072 0 12.144 0 18.216-.01.355.037.71.141 1.05a.687.687 0 0 0 .526.26c.128-.001.32-.186.359-.335.06-.242.081-.491.064-.74v-14.81l-.039-.038Z" />
    <path
      d="M40.375 91.122c0 .272.41.543.629.815a2.42 2.42 0 0 0 .384-.89c0-.74-.154-1.492-.154-2.245V75.447a8.435 8.435 0 0 0-.192-1.357h-.487a9.29 9.29 0 0 0-.167 1.234v7.405c-.013 2.802-.051 5.653-.013 8.393Z" />
  </symbol>
</svg>