<svg xmlns="http://www.w3.org/2000/svg" width="240" height="159" fill="none">
  <g stroke="#65654B" stroke-miterlimit="10">
    <path
      d="M186.41 147.45a21.64 21.64 0 0 0-11.71 5.17 22.646 22.646 0 0 1-13.39 5.5 22.692 22.692 0 0 0 16.42-5.5 21.64 21.64 0 0 1 11.71-5.17l-1.21-.05c-.59.04-1.21.06-1.82.05ZM237.13 70.86a22.722 22.722 0 0 0-9.21-28.34 21.68 21.68 0 0 1-10-13.72 22.722 22.722 0 0 0-23.68-17.53 22.72 22.72 0 0 1 20.65 17.53 21.684 21.684 0 0 0 10 13.72 22.72 22.72 0 0 1 9.21 28.34 21.687 21.687 0 0 0 0 16.95 22.717 22.717 0 0 1-9.21 28.35 21.678 21.678 0 0 0-10 13.72 22.719 22.719 0 0 1-20.65 17.53 22.723 22.723 0 0 0 23.68-17.53 21.69 21.69 0 0 1 10-13.72 22.719 22.719 0 0 0 9.21-28.34 21.676 21.676 0 0 1 0-16.96ZM186.41 11.22c.61 0 1.22 0 1.82.05.4 0 .81 0 1.21-.05a21.642 21.642 0 0 1-11.71-5.17 22.69 22.69 0 0 0-16.42-5.5 22.65 22.65 0 0 1 13.39 5.5 21.642 21.642 0 0 0 11.71 5.17Z" />
    <path
      d="M171.64 6.05a21.643 21.643 0 0 0 11.71 5.17c.61 0 1.22 0 1.82.05.4 0 .81 0 1.21-.05a21.643 21.643 0 0 1-11.71-5.17 22.65 22.65 0 0 0-13.39-5.5 21.74 21.74 0 0 0-3 0 22.652 22.652 0 0 1 13.36 5.5ZM214.93 129.87a21.69 21.69 0 0 1 10-13.72 22.719 22.719 0 0 0 9.21-28.34 21.687 21.687 0 0 1 0-16.95 22.722 22.722 0 0 0-9.21-28.34 21.678 21.678 0 0 1-10-13.72 22.72 22.72 0 0 0-20.65-17.53 23.425 23.425 0 0 0-3 0 22.721 22.721 0 0 1 20.64 17.53 21.651 21.651 0 0 0 10 13.72 22.716 22.716 0 0 1 9.2 28.34 21.687 21.687 0 0 0 0 16.95 22.717 22.717 0 0 1-9.2 28.34 21.666 21.666 0 0 0-10 13.72 22.718 22.718 0 0 1-20.64 17.53c.999.064 2.001.064 3 0a22.72 22.72 0 0 0 20.65-17.53ZM186.41 147.45l-1.21-.05c-.6 0-1.21.06-1.82.05a21.64 21.64 0 0 0-11.74 5.17 22.646 22.646 0 0 1-13.38 5.5c.999.069 2.001.069 3 0a22.646 22.646 0 0 0 13.39-5.5 21.637 21.637 0 0 1 11.76-5.17Z" />
    <path
      d="M168.64 6.05a21.642 21.642 0 0 0 11.71 5.17c.61 0 1.22 0 1.82.05.4 0 .81 0 1.21-.05a21.64 21.64 0 0 1-11.74-5.17 22.651 22.651 0 0 0-13.38-5.5 21.89 21.89 0 0 0-3 0 22.629 22.629 0 0 1 13.38 5.5ZM211.9 129.87a21.66 21.66 0 0 1 10-13.72 22.72 22.72 0 0 0 9.2-28.34 21.687 21.687 0 0 1 0-16.95 22.717 22.717 0 0 0-9.2-28.34 21.654 21.654 0 0 1-10-13.72 22.723 22.723 0 0 0-20.64-17.53c-.61 0-1.21-.06-1.82-.05-.4 0-.81 0-1.21.05a22.72 22.72 0 0 1 20.64 17.53 21.701 21.701 0 0 0 10 13.72 22.72 22.72 0 0 1 9.2 28.34 21.777 21.777 0 0 0 0 16.95 22.722 22.722 0 0 1-9.23 28.35 21.7 21.7 0 0 0-10 13.72 22.724 22.724 0 0 1-20.64 17.53l1.21.05c.61 0 1.21 0 1.82-.05a22.72 22.72 0 0 0 20.67-17.54ZM171.64 152.62a21.64 21.64 0 0 1 11.71-5.17l-1.21-.05c-.6 0-1.21.06-1.82.05a21.64 21.64 0 0 0-11.68 5.17 22.628 22.628 0 0 1-13.38 5.5c.999.069 2.001.069 3 0a22.646 22.646 0 0 0 13.38-5.5Z" />
    <path
      d="M186.41 11.22c-.4 0-.81 0-1.21.05a22.699 22.699 0 0 1 20.64 17.53 21.7 21.7 0 0 0 10 13.72 22.728 22.728 0 0 1 9.21 28.34 21.67 21.67 0 0 0 0 16.95 22.73 22.73 0 0 1-9.24 28.35 21.703 21.703 0 0 0-10 13.72 22.702 22.702 0 0 1-20.64 17.53l1.21.05c.61 0 1.22 0 1.82-.05a22.72 22.72 0 0 0 20.64-17.53 21.705 21.705 0 0 1 10-13.72 22.72 22.72 0 0 0 9.2-28.34 21.777 21.777 0 0 1 0-16.95 22.717 22.717 0 0 0-9.2-28.34 21.705 21.705 0 0 1-10-13.72 22.723 22.723 0 0 0-20.64-17.53c-.56-.05-1.18-.07-1.79-.06ZM165.64 6.05a21.642 21.642 0 0 0 11.71 5.17c.61 0 1.22 0 1.82.05.41 0 .81 0 1.21-.05a21.64 21.64 0 0 1-11.74-5.17 22.629 22.629 0 0 0-13.38-5.5 21.89 21.89 0 0 0-3 0 22.629 22.629 0 0 1 13.38 5.5ZM168.64 152.62a21.64 21.64 0 0 1 11.71-5.17l-1.21-.05c-.6 0-1.21.06-1.82.05a21.64 21.64 0 0 0-11.68 5.17 22.628 22.628 0 0 1-13.38 5.5c.999.069 2.001.069 3 0a22.628 22.628 0 0 0 13.38-5.5Z" />
    <path
      d="M162.58 6.05a21.63 21.63 0 0 0 11.72 5.17c.61 0 1.21 0 1.81.05.41 0 .81 0 1.21-.05a21.638 21.638 0 0 1-11.68-5.17 22.629 22.629 0 0 0-13.38-5.5 21.89 21.89 0 0 0-3 0 22.6 22.6 0 0 1 13.32 5.5ZM165.64 152.62a21.64 21.64 0 0 1 11.71-5.17l-1.21-.05c-.6 0-1.2.06-1.81.05a21.635 21.635 0 0 0-11.72 5.17 22.6 22.6 0 0 1-13.38 5.5c.999.069 2.001.069 3 0a22.632 22.632 0 0 0 13.41-5.5ZM205.84 129.87a21.705 21.705 0 0 1 10-13.72 22.73 22.73 0 0 0 9.21-28.34 21.67 21.67 0 0 1 0-16.95 22.73 22.73 0 0 0-9.21-28.34 21.706 21.706 0 0 1-10-13.72 22.7 22.7 0 0 0-20.64-17.53c-.6 0-1.21-.06-1.82-.05-.4 0-.81 0-1.21.05a22.698 22.698 0 0 1 20.64 17.53 21.701 21.701 0 0 0 10 13.72 22.72 22.72 0 0 1 9.21 28.34 21.67 21.67 0 0 0 0 16.95 22.722 22.722 0 0 1-9.24 28.35 21.703 21.703 0 0 0-10 13.72 22.702 22.702 0 0 1-20.64 17.53l1.21.05c.61 0 1.22 0 1.82-.05a22.699 22.699 0 0 0 20.67-17.54Z" />
    <path
      d="M159.55 6.05a21.63 21.63 0 0 0 11.72 5.17c.61 0 1.21 0 1.81.05.41 0 .81 0 1.22-.05a21.63 21.63 0 0 1-11.72-5.17A22.6 22.6 0 0 0 149.2.55a21.89 21.89 0 0 0-3 0 22.6 22.6 0 0 1 13.35 5.5ZM162.58 152.62a21.635 21.635 0 0 1 11.72-5.17l-1.22-.05c-.6 0-1.2.06-1.81.05a21.635 21.635 0 0 0-11.72 5.17 22.6 22.6 0 0 1-13.38 5.5c.999.069 2.001.069 3 0a22.596 22.596 0 0 0 13.41-5.5ZM202.81 129.87a21.705 21.705 0 0 1 10-13.72 22.719 22.719 0 0 0 9.21-28.34 21.67 21.67 0 0 1 0-16.95 22.722 22.722 0 0 0-9.21-28.34 21.706 21.706 0 0 1-10-13.72 22.7 22.7 0 0 0-20.64-17.53c-.6 0-1.21-.06-1.82-.05-.4 0-.8 0-1.21.05a22.698 22.698 0 0 1 20.64 17.53 21.72 21.72 0 0 0 10 13.72 22.72 22.72 0 0 1 9.21 28.34 21.67 21.67 0 0 0 0 16.95 22.722 22.722 0 0 1-9.24 28.35 21.738 21.738 0 0 0-10 13.72 22.702 22.702 0 0 1-20.64 17.53l1.21.05c.61 0 1.22 0 1.82-.05a22.699 22.699 0 0 0 20.67-17.54Z" />
    <path
      d="M156.52 6.05a21.67 21.67 0 0 0 11.72 5.17c.61 0 1.21 0 1.81.05.41 0 .81 0 1.22-.05a21.63 21.63 0 0 1-11.72-5.17 22.6 22.6 0 0 0-13.38-5.5 21.89 21.89 0 0 0-3 0 22.6 22.6 0 0 1 13.35 5.5ZM159.55 152.62a21.635 21.635 0 0 1 11.72-5.17l-1.22-.05c-.6 0-1.2.06-1.81.05a21.703 21.703 0 0 0-11.72 5.17 22.602 22.602 0 0 1-13.38 5.54c.999.069 2.001.069 3 0a22.607 22.607 0 0 0 13.41-5.54ZM199.78 129.87a21.735 21.735 0 0 1 10-13.72 22.719 22.719 0 0 0 9.21-28.34 21.687 21.687 0 0 1 0-16.95 22.722 22.722 0 0 0-9.21-28.34 21.732 21.732 0 0 1-10-13.72 22.694 22.694 0 0 0-20.64-17.53c-.6 0-1.21-.06-1.82-.05-.4 0-.8 0-1.21.05a22.698 22.698 0 0 1 20.64 17.53 21.736 21.736 0 0 0 10 13.72 22.72 22.72 0 0 1 9.21 28.34 21.687 21.687 0 0 0 0 16.95 22.722 22.722 0 0 1-9.24 28.35 21.738 21.738 0 0 0-10 13.72 22.696 22.696 0 0 1-20.64 17.53l1.21.05c.61 0 1.22 0 1.82-.05a22.699 22.699 0 0 0 20.67-17.54Z" />
    <path
      d="M153.5 6.05a21.642 21.642 0 0 0 11.71 5.17c.61 0 1.21 0 1.82.05.4 0 .8 0 1.21-.05a21.67 21.67 0 0 1-11.72-5.17 22.6 22.6 0 0 0-13.38-5.5 21.89 21.89 0 0 0-3 0 22.652 22.652 0 0 1 13.36 5.5ZM156.52 152.62a21.706 21.706 0 0 1 11.72-5.17l-1.21-.05c-.61 0-1.21.06-1.82.05a21.64 21.64 0 0 0-11.71 5.17 22.644 22.644 0 0 1-13.39 5.5c.999.069 2.001.069 3 0a22.596 22.596 0 0 0 13.41-5.5ZM196.75 129.87a21.735 21.735 0 0 1 10-13.72 22.719 22.719 0 0 0 9.21-28.34 21.687 21.687 0 0 1 0-16.95 22.722 22.722 0 0 0-9.21-28.34 21.732 21.732 0 0 1-10-13.72 22.7 22.7 0 0 0-20.64-17.53c-.6 0-1.2-.06-1.81-.05-.41 0-.81 0-1.22.05a22.72 22.72 0 0 1 20.65 17.53 21.684 21.684 0 0 0 10 13.72 22.72 22.72 0 0 1 9.21 28.34 21.687 21.687 0 0 0 0 16.95 22.722 22.722 0 0 1-9.25 28.35 21.678 21.678 0 0 0-10 13.72 22.719 22.719 0 0 1-20.65 17.53l1.22.05c.61 0 1.21 0 1.81-.05a22.702 22.702 0 0 0 20.68-17.54Z" />
    <path
      d="M150.47 6.05a21.642 21.642 0 0 0 11.71 5.17c.61 0 1.22 0 1.82.05.4 0 .81 0 1.21-.05a21.642 21.642 0 0 1-11.71-5.17 22.648 22.648 0 0 0-13.39-5.5 21.89 21.89 0 0 0-3 0 22.65 22.65 0 0 1 13.36 5.5ZM153.5 152.62a21.64 21.64 0 0 1 11.71-5.17l-1.21-.05c-.6 0-1.21.06-1.82.05a21.64 21.64 0 0 0-11.71 5.17 22.646 22.646 0 0 1-13.39 5.5c.999.069 2.001.069 3 0a22.65 22.65 0 0 0 13.42-5.5ZM193.73 129.87a21.69 21.69 0 0 1 10-13.72 22.719 22.719 0 0 0 9.21-28.34 21.687 21.687 0 0 1 0-16.95 22.722 22.722 0 0 0-9.21-28.34 21.68 21.68 0 0 1-10-13.72 22.72 22.72 0 0 0-20.65-17.53c-.6 0-1.2-.06-1.81-.05-.41 0-.81 0-1.22.05A22.72 22.72 0 0 1 190.7 28.8a21.684 21.684 0 0 0 10 13.72 22.72 22.72 0 0 1 9.21 28.34 21.687 21.687 0 0 0 0 16.95 22.721 22.721 0 0 1-9.27 28.35 21.678 21.678 0 0 0-10 13.72 22.719 22.719 0 0 1-20.65 17.53l1.22.05c.61 0 1.21 0 1.81-.05a22.72 22.72 0 0 0 20.71-17.54Z" />
    <path
      d="M147.44 6.05a21.643 21.643 0 0 0 11.71 5.17c.61 0 1.22 0 1.82.05.4 0 .81 0 1.21-.05a21.643 21.643 0 0 1-11.71-5.17 22.65 22.65 0 0 0-13.39-5.5 21.74 21.74 0 0 0-3 0 22.65 22.65 0 0 1 13.36 5.5ZM150.47 152.62a21.64 21.64 0 0 1 11.71-5.17l-1.21-.05c-.6 0-1.21.06-1.82.05a21.64 21.64 0 0 0-11.71 5.17 22.646 22.646 0 0 1-13.38 5.5c.999.069 2.001.069 3 0a22.647 22.647 0 0 0 13.41-5.5ZM190.7 129.87a21.68 21.68 0 0 1 9.94-13.71 22.719 22.719 0 0 0 9.21-28.34 21.687 21.687 0 0 1 0-16.95 22.722 22.722 0 0 0-9.21-28.35 21.68 21.68 0 0 1-10-13.72 22.72 22.72 0 0 0-20.65-17.53c-.6 0-1.2-.06-1.81-.05-.41 0-.81 0-1.21.05a22.721 22.721 0 0 1 20.67 17.53 21.651 21.651 0 0 0 10 13.72 22.72 22.72 0 0 1 9.2 28.34 21.687 21.687 0 0 0 0 16.95 22.715 22.715 0 0 1 .698 15.894 22.714 22.714 0 0 1-9.898 12.456 21.666 21.666 0 0 0-10 13.72A22.718 22.718 0 0 1 167 147.41l1.21.05c.61 0 1.21 0 1.81-.05a22.717 22.717 0 0 0 20.68-17.54Z" />
    <path
      d="M144.41 6.05a21.642 21.642 0 0 0 11.71 5.17c.61 0 1.22 0 1.82.05.4 0 .81 0 1.21-.05a21.642 21.642 0 0 1-11.71-5.17 22.651 22.651 0 0 0-13.38-5.5 21.89 21.89 0 0 0-3 0 22.63 22.63 0 0 1 13.35 5.5ZM147.44 152.62a21.64 21.64 0 0 1 11.71-5.17l-1.21-.05c-.6 0-1.21.06-1.82.05a21.64 21.64 0 0 0-11.71 5.17 22.628 22.628 0 0 1-13.38 5.5c.999.069 2.001.069 3 0a22.647 22.647 0 0 0 13.41-5.5ZM187.64 129.87a21.66 21.66 0 0 1 10-13.71 22.72 22.72 0 0 0 9.2-28.34 21.687 21.687 0 0 1 0-16.95 22.717 22.717 0 0 0-9.2-28.34 21.654 21.654 0 0 1-10-13.72A22.717 22.717 0 0 0 167 11.28c-.61 0-1.21-.06-1.82-.05-.4 0-.81 0-1.21.05a22.721 22.721 0 0 1 20.67 17.52 21.702 21.702 0 0 0 10 13.72 22.72 22.72 0 0 1 9.2 28.34 21.777 21.777 0 0 0 0 16.95 22.715 22.715 0 0 1 .698 15.894 22.714 22.714 0 0 1-9.898 12.456 21.7 21.7 0 0 0-10 13.72A22.718 22.718 0 0 1 164 147.41l1.21.05c.61 0 1.21 0 1.82-.05a22.716 22.716 0 0 0 13.201-5.367 22.714 22.714 0 0 0 7.409-12.173Z" />
    <path
      d="M141.38 6.05a21.642 21.642 0 0 0 11.71 5.17c.61 0 1.22 0 1.82.05.41 0 .81 0 1.21-.05a21.642 21.642 0 0 1-11.71-5.17 22.629 22.629 0 0 0-13.38-5.5 21.89 21.89 0 0 0-3 0 22.63 22.63 0 0 1 13.35 5.5ZM144.41 152.62a21.64 21.64 0 0 1 11.71-5.17l-1.21-.05c-.6 0-1.21.06-1.82.05a21.64 21.64 0 0 0-11.71 5.17 22.628 22.628 0 0 1-13.38 5.5c.999.069 2.001.069 3 0a22.632 22.632 0 0 0 13.41-5.5ZM184.64 129.87a21.698 21.698 0 0 1 10-13.71 22.72 22.72 0 0 0 9.2-28.34 21.777 21.777 0 0 1 0-16.95 22.717 22.717 0 0 0-9.2-28.34 21.701 21.701 0 0 1-10-13.72A22.717 22.717 0 0 0 164 11.28c-.6 0-1.21-.06-1.82-.05-.4 0-.81 0-1.21.05a22.708 22.708 0 0 1 20.67 17.52 21.702 21.702 0 0 0 10 13.72 22.72 22.72 0 0 1 9.2 28.34 21.777 21.777 0 0 0 0 16.95 22.717 22.717 0 0 1-9.2 28.34 21.7 21.7 0 0 0-10 13.72A22.702 22.702 0 0 1 161 147.4l1.21.05c.61 0 1.22 0 1.82-.05a22.72 22.72 0 0 0 20.61-17.53Z" />
    <path
      d="M138.35 6.05a21.642 21.642 0 0 0 11.71 5.17c.62 0 1.22 0 1.82.05.41 0 .81 0 1.21-.05a21.642 21.642 0 0 1-11.71-5.17A22.629 22.629 0 0 0 128 .55a21.89 21.89 0 0 0-3 0 22.6 22.6 0 0 1 13.35 5.5ZM141.38 152.62a21.64 21.64 0 0 1 11.71-5.17l-1.21-.05c-.6 0-1.2.06-1.81.05a21.635 21.635 0 0 0-11.72 5.17 22.6 22.6 0 0 1-13.38 5.5c.999.069 2.001.069 3 0a22.632 22.632 0 0 0 13.41-5.5ZM181.64 129.87a21.705 21.705 0 0 1 10-13.72 22.72 22.72 0 0 0 9.2-28.34 21.777 21.777 0 0 1 0-16.95 22.717 22.717 0 0 0-9.2-28.34 21.706 21.706 0 0 1-10-13.72A22.71 22.71 0 0 0 161 11.27c-.6 0-1.21-.06-1.82-.05-.4 0-.81 0-1.21.05a22.698 22.698 0 0 1 20.64 17.53 21.701 21.701 0 0 0 10 13.72 22.728 22.728 0 0 1 9.21 28.34 21.687 21.687 0 0 0 0 16.95 22.73 22.73 0 0 1-9.27 28.35 21.703 21.703 0 0 0-10 13.72 22.702 22.702 0 0 1-20.64 17.53l1.21.05c.61 0 1.22 0 1.82-.05a22.703 22.703 0 0 0 20.7-17.54Z" />
    <path
      d="M150.06 11.22c-.4 0-.8 0-1.21.05-.6 0-1.2-.06-1.81-.05a21.63 21.63 0 0 1-11.72-5.17 22.6 22.6 0 0 0-13.38-5.5 21.89 21.89 0 0 1 3 0 22.6 22.6 0 0 1 13.38 5.5 21.64 21.64 0 0 0 11.74 5.17ZM138.35 152.62a21.635 21.635 0 0 1 11.72-5.17l-1.22-.05c-.6 0-1.2.06-1.81.05a21.635 21.635 0 0 0-11.72 5.17 22.602 22.602 0 0 1-13.38 5.54c.999.069 2.001.069 3 0a22.607 22.607 0 0 0 13.41-5.54ZM178.58 129.87a21.705 21.705 0 0 1 10-13.72 22.73 22.73 0 0 0 9.21-28.34 21.687 21.687 0 0 1 0-16.95 22.73 22.73 0 0 0-9.21-28.34 21.706 21.706 0 0 1-10-13.72 22.7 22.7 0 0 0-20.64-17.53c-.6 0-1.21-.06-1.82-.05-.4 0-.8 0-1.21.05a22.698 22.698 0 0 1 20.64 17.53 21.736 21.736 0 0 0 10 13.72 22.72 22.72 0 0 1 9.21 28.34 21.67 21.67 0 0 0 0 16.95 22.722 22.722 0 0 1-9.24 28.35 21.738 21.738 0 0 0-10 13.72 22.702 22.702 0 0 1-20.64 17.53l1.21.05c.61 0 1.22 0 1.82-.05a22.699 22.699 0 0 0 20.67-17.54Z" />
    <path
      d="M147.04 147.45a21.635 21.635 0 0 0-11.72 5.17 22.602 22.602 0 0 1-13.38 5.54c-.739.04-1.481.04-2.22 0v-.11a22.557 22.557 0 0 0 12.57-5.43 21.703 21.703 0 0 1 11.72-5.17c.61 0 1.21 0 1.81-.05l1.22.05ZM175.55 129.87a21.735 21.735 0 0 1 10-13.72 22.719 22.719 0 0 0 9.21-28.34 21.687 21.687 0 0 1 0-16.95 22.722 22.722 0 0 0-9.21-28.34 21.732 21.732 0 0 1-10-13.72 22.694 22.694 0 0 0-20.64-17.53c-.6 0-1.21-.06-1.82-.05-.4 0-.8 0-1.21.05a22.698 22.698 0 0 1 20.64 17.53 21.736 21.736 0 0 0 10 13.72 22.72 22.72 0 0 1 9.21 28.34 21.687 21.687 0 0 0 0 16.95 22.722 22.722 0 0 1-9.24 28.35 21.738 21.738 0 0 0-10 13.72 22.696 22.696 0 0 1-20.64 17.53l1.21.05c.61 0 1.22 0 1.82-.05a22.699 22.699 0 0 0 20.67-17.54Z" />
    <path
      d="M144.01 147.45a21.703 21.703 0 0 0-11.72 5.17 22.557 22.557 0 0 1-12.57 5.43v-.52a22.355 22.355 0 0 0 9.54-4.91 21.703 21.703 0 0 1 11.72-5.17c.61 0 1.21 0 1.82-.05l1.21.05ZM172.52 129.87a21.735 21.735 0 0 1 10-13.72 22.719 22.719 0 0 0 9.21-28.34 21.687 21.687 0 0 1 0-16.95 22.722 22.722 0 0 0-9.21-28.34 21.732 21.732 0 0 1-10-13.72 22.694 22.694 0 0 0-20.64-17.53c-.6 0-1.2-.06-1.82-.05-.4 0-.8 0-1.21.05A22.72 22.72 0 0 1 169.5 28.8a21.684 21.684 0 0 0 10 13.72 22.72 22.72 0 0 1 9.14 28.34 21.687 21.687 0 0 0 0 16.95 22.716 22.716 0 0 1-9.18 28.35 21.678 21.678 0 0 0-10 13.72 22.719 22.719 0 0 1-20.65 17.53l1.22.05c.61 0 1.21 0 1.81-.05a22.7 22.7 0 0 0 20.68-17.54Z" />
    <path
      d="M188.64 87.81a22.716 22.716 0 0 1-9.18 28.35 21.678 21.678 0 0 0-10 13.72 22.719 22.719 0 0 1-20.65 17.53c-.6 0-1.2.06-1.81.05l-1.22-.05a22.72 22.72 0 0 0 20.65-17.53 21.69 21.69 0 0 1 10-13.72 22.716 22.716 0 0 0 9.21-28.35 21.687 21.687 0 0 1 0-16.95 22.722 22.722 0 0 0-9.21-28.34 21.68 21.68 0 0 1-10-13.72 22.72 22.72 0 0 0-20.65-17.53c.41 0 .81 0 1.22-.05.61 0 1.21 0 1.81.05a22.72 22.72 0 0 1 20.65 17.53 21.685 21.685 0 0 0 10 13.72 22.722 22.722 0 0 1 9.18 28.34 21.687 21.687 0 0 0 0 16.95Z" />
    <path
      d="M185.64 87.81a22.72 22.72 0 0 1-9.21 28.35 21.678 21.678 0 0 0-10 13.72 22.719 22.719 0 0 1-20.65 17.53c-.6 0-1.2.06-1.81.05l-1.21-.05a22.72 22.72 0 0 0 20.64-17.53 21.652 21.652 0 0 1 10-13.72 22.728 22.728 0 0 0 9.2-28.34 21.687 21.687 0 0 1 0-16.95 22.73 22.73 0 0 0-9.2-28.34 21.654 21.654 0 0 1-10-13.72 22.716 22.716 0 0 0-20.64-17.53c.4 0 .8 0 1.21-.05.61 0 1.21 0 1.81.05a22.72 22.72 0 0 1 20.65 17.53 21.684 21.684 0 0 0 10 13.72 22.72 22.72 0 0 1 9.21 28.33 21.687 21.687 0 0 0 0 16.95Z" />
    <path
      d="M182.64 87.81a22.731 22.731 0 0 1-9.2 28.34 21.666 21.666 0 0 0-10 13.72 22.718 22.718 0 0 1-20.64 17.53c-.61 0-1.21.06-1.82.05l-1.21-.05a22.72 22.72 0 0 0 20.64-17.53 21.69 21.69 0 0 1 10-13.72 22.72 22.72 0 0 0 9.2-28.34 21.687 21.687 0 0 1 0-16.95 22.717 22.717 0 0 0-9.2-28.34 21.701 21.701 0 0 1-10-13.72 22.717 22.717 0 0 0-20.64-17.53c.4 0 .81 0 1.21-.05.61 0 1.21 0 1.82.05a22.72 22.72 0 0 1 20.64 17.53 21.652 21.652 0 0 0 10 13.72 22.728 22.728 0 0 1 9.2 28.34 21.687 21.687 0 0 0 0 16.95ZM53.03 11.22a21.71 21.71 0 0 0 11.71-5.17A22.65 22.65 0 0 1 78.13.55a22.64 22.64 0 0 0-16.42 5.5A21.71 21.71 0 0 1 50 11.22c.4 0 .81 0 1.21.05.6-.04 1.21-.06 1.82-.05ZM2.31 87.81a22.721 22.721 0 0 0 9.21 28.35 21.7 21.7 0 0 1 10 13.71A22.701 22.701 0 0 0 45.2 147.4a22.71 22.71 0 0 1-20.65-17.53 21.695 21.695 0 0 0-10-13.71 22.719 22.719 0 0 1-9.21-28.34 21.71 21.71 0 0 0 0-17 22.71 22.71 0 0 1 9.21-28.33 21.73 21.73 0 0 0 10-13.72A22.71 22.71 0 0 1 45.2 11.24a22.7 22.7 0 0 0-23.68 17.53 21.728 21.728 0 0 1-10 13.72 22.71 22.71 0 0 0-9.21 28.33 21.71 21.71 0 0 1 0 16.99ZM53.03 147.44H50a21.723 21.723 0 0 1 11.71 5.18 22.73 22.73 0 0 0 16.42 5.5 22.719 22.719 0 0 1-13.39-5.5 21.723 21.723 0 0 0-11.71-5.18Z" />
    <path
      d="M67.77 152.62a21.723 21.723 0 0 0-11.71-5.18H53.03a21.723 21.723 0 0 1 11.71 5.18 22.719 22.719 0 0 0 13.39 5.5c1 .059 2 .059 3 0a22.722 22.722 0 0 1-13.36-5.5ZM24.51 28.8a21.731 21.731 0 0 1-10 13.72A22.71 22.71 0 0 0 5.3 70.85a21.71 21.71 0 0 1 0 17 22.72 22.72 0 0 0 9.25 28.31 21.7 21.7 0 0 1 10 13.71A22.715 22.715 0 0 0 48.2 147.4a22.696 22.696 0 0 1-20.66-17.54 21.677 21.677 0 0 0-10-13.71 22.72 22.72 0 0 1-9.2-28.34 21.71 21.71 0 0 0 0-17 22.7 22.7 0 0 1 9.2-28.33 21.71 21.71 0 0 0 10-13.72 22.7 22.7 0 0 1 20.64-17.53 21.765 21.765 0 0 0-3 0A22.71 22.71 0 0 0 24.51 28.8ZM53.03 11.22c.4 0 .81 0 1.21.05.6 0 1.21-.06 1.82-.05a21.71 21.71 0 0 0 11.71-5.17A22.65 22.65 0 0 1 81.15.55a21.74 21.74 0 0 0-3 0 22.65 22.65 0 0 0-13.39 5.5 21.71 21.71 0 0 1-11.73 5.17Z" />
    <path
      d="M70.8 152.62a21.723 21.723 0 0 0-11.71-5.18H56.06a21.723 21.723 0 0 1 11.71 5.18 22.724 22.724 0 0 0 13.38 5.5c1 .059 2 .059 3 0a22.692 22.692 0 0 1-13.35-5.5ZM27.54 28.8a21.71 21.71 0 0 1-10 13.72 22.7 22.7 0 0 0-9.2 28.33 21.71 21.71 0 0 1 0 17 22.721 22.721 0 0 0 9.2 28.34 21.68 21.68 0 0 1 10 13.71 22.7 22.7 0 0 0 20.64 17.53c.61 0 1.21.06 1.82 0h1.21a22.704 22.704 0 0 1-20.64-17.53 21.707 21.707 0 0 0-9.93-13.74 22.72 22.72 0 0 1-9.2-28.34 21.79 21.79 0 0 0 0-17 22.7 22.7 0 0 1 9.2-28.33 21.75 21.75 0 0 0 10-13.72 22.7 22.7 0 0 1 20.64-17.53c-.4 0-.81 0-1.21-.05-.61 0-1.21 0-1.82.05A22.7 22.7 0 0 0 27.54 28.8ZM67.77 6.05a21.71 21.71 0 0 1-11.71 5.17c.4 0 .8 0 1.21.05.6 0 1.21-.06 1.82-.05A21.71 21.71 0 0 0 70.8 6.05 22.63 22.63 0 0 1 84.18.55a21.89 21.89 0 0 0-3 0 22.65 22.65 0 0 0-13.41 5.5Z" />
    <path
      d="M53.03 147.44h1.21a22.68 22.68 0 0 1-20.6-17.58 21.705 21.705 0 0 0-10-13.7 22.732 22.732 0 0 1-9.21-28.34 21.711 21.711 0 0 0 0-17 22.72 22.72 0 0 1 9.21-28.3 21.75 21.75 0 0 0 10-13.72 22.68 22.68 0 0 1 20.64-17.53c-.4 0-.81 0-1.21-.05-.61 0-1.22 0-1.82.05A22.7 22.7 0 0 0 30.61 28.8a21.75 21.75 0 0 1-10 13.72 22.7 22.7 0 0 0-9.2 28.33 21.79 21.79 0 0 1 0 17 22.72 22.72 0 0 0 9.23 28.31 21.691 21.691 0 0 1 10 13.71 22.701 22.701 0 0 0 20.64 17.53c.53.03 1.14.05 1.75.04ZM73.83 152.62a21.723 21.723 0 0 0-11.71-5.18H59.09a21.723 21.723 0 0 1 11.71 5.18 22.688 22.688 0 0 0 13.38 5.5c1 .059 2 .059 3 0a22.691 22.691 0 0 1-13.35-5.5ZM70.8 6.05a21.71 21.71 0 0 1-11.71 5.17c.4 0 .8 0 1.21.05.6 0 1.21-.06 1.82-.05a21.71 21.71 0 0 0 11.71-5.17A22.63 22.63 0 0 1 87.21.55a21.89 21.89 0 0 0-3 0 22.63 22.63 0 0 0-13.41 5.5Z" />
    <path
      d="M76.86 152.62a21.721 21.721 0 0 0-11.72-5.18h-3.02a21.723 21.723 0 0 1 11.71 5.18 22.688 22.688 0 0 0 13.38 5.5c1 .059 2.001.059 3 0a22.662 22.662 0 0 1-13.35-5.5ZM73.83 6.05a21.71 21.71 0 0 1-11.71 5.17c.4 0 .8 0 1.21.05.6 0 1.2-.06 1.81-.05a21.71 21.71 0 0 0 11.72-5.17A22.6 22.6 0 0 1 90.24.55a21.89 21.89 0 0 0-3 0 22.63 22.63 0 0 0-13.41 5.5ZM33.64 28.8a21.751 21.751 0 0 1-10 13.72 22.72 22.72 0 0 0-9.21 28.33 21.71 21.71 0 0 1 0 17 22.73 22.73 0 0 0 9.21 28.31 21.69 21.69 0 0 1 10 13.71 22.676 22.676 0 0 0 20.64 17.53c.6 0 1.21.06 1.82 0h1.21a22.682 22.682 0 0 1-20.67-17.54 21.703 21.703 0 0 0-10-13.7 22.732 22.732 0 0 1-9.21-28.34 21.71 21.71 0 0 0 0-17 22.72 22.72 0 0 1 9.21-28.3 21.75 21.75 0 0 0 10-13.72 22.68 22.68 0 0 1 20.64-17.53c-.41 0-.81 0-1.21-.05-.61 0-1.22 0-1.82.05A22.68 22.68 0 0 0 33.64 28.8Z" />
    <path
      d="M79.89 152.62a21.721 21.721 0 0 0-11.72-5.18H65.14a21.721 21.721 0 0 1 11.72 5.18 22.66 22.66 0 0 0 13.38 5.54c.999.059 2 .059 3 0a22.664 22.664 0 0 1-13.35-5.54ZM76.86 6.05a21.71 21.71 0 0 1-11.72 5.17c.41 0 .81 0 1.22.05.6 0 1.2-.06 1.81-.05a21.71 21.71 0 0 0 11.72-5.17A22.6 22.6 0 0 1 93.27.55a21.89 21.89 0 0 0-3 0 22.6 22.6 0 0 0-13.41 5.5ZM36.64 28.8a21.751 21.751 0 0 1-10 13.72 22.72 22.72 0 0 0-9.21 28.33 21.71 21.71 0 0 1 0 17 22.73 22.73 0 0 0 9.21 28.31 21.69 21.69 0 0 1 10 13.71 22.682 22.682 0 0 0 20.64 17.53c.6 0 1.21.06 1.82 0h1.21a22.682 22.682 0 0 1-20.67-17.54 21.736 21.736 0 0 0-10-13.71 22.719 22.719 0 0 1-9.21-28.34 21.71 21.71 0 0 0 0-17 22.71 22.71 0 0 1 9.21-28.33 21.782 21.782 0 0 0 10-13.72 22.68 22.68 0 0 1 20.64-17.53c-.41 0-.81 0-1.21-.05-.61 0-1.22 0-1.82.05A22.68 22.68 0 0 0 36.64 28.8Z" />
    <path
      d="M82.92 152.62a21.756 21.756 0 0 0-11.72-5.18H68.17a21.721 21.721 0 0 1 11.72 5.18 22.659 22.659 0 0 0 13.38 5.5c1 .059 2 .059 3 0a22.662 22.662 0 0 1-13.35-5.5ZM79.89 6.05a21.71 21.71 0 0 1-11.72 5.17c.41 0 .81 0 1.22.05.6 0 1.2-.06 1.81-.05a21.74 21.74 0 0 0 11.72-5.17A22.6 22.6 0 0 1 96.3.55a21.89 21.89 0 0 0-3 0 22.6 22.6 0 0 0-13.41 5.5ZM39.64 28.8a21.78 21.78 0 0 1-10 13.72 22.71 22.71 0 0 0-9.21 28.33 21.71 21.71 0 0 1 0 17 22.72 22.72 0 0 0 9.26 28.31 21.743 21.743 0 0 1 10 13.71 22.675 22.675 0 0 0 20.64 17.53c.6 0 1.21.06 1.82 0h1.21a22.682 22.682 0 0 1-20.64-17.53 21.739 21.739 0 0 0-10-13.71 22.718 22.718 0 0 1-9.21-28.34 21.71 21.71 0 0 0 0-17 22.71 22.71 0 0 1 9.21-28.33 21.78 21.78 0 0 0 10-13.72 22.68 22.68 0 0 1 20.64-17.53c-.41 0-.81 0-1.21-.05-.61 0-1.22 0-1.82.05A22.68 22.68 0 0 0 39.64 28.8Z" />
    <path
      d="M85.94 152.62a21.723 21.723 0 0 0-11.71-5.18H71.2a21.756 21.756 0 0 1 11.72 5.18 22.658 22.658 0 0 0 13.38 5.5c1 .059 2 .059 3 0a22.722 22.722 0 0 1-13.36-5.5ZM82.92 6.05a21.74 21.74 0 0 1-11.72 5.17c.4 0 .81 0 1.21.05.61 0 1.21-.06 1.82-.05a21.71 21.71 0 0 0 11.71-5.17A22.65 22.65 0 0 1 99.33.55a21.89 21.89 0 0 0-3 0 22.6 22.6 0 0 0-13.41 5.5ZM42.69 28.8a21.78 21.78 0 0 1-10 13.72 22.71 22.71 0 0 0-9.21 28.33 21.71 21.71 0 0 1 0 17 22.72 22.72 0 0 0 9.24 28.31 21.743 21.743 0 0 1 10 13.71 22.675 22.675 0 0 0 20.64 17.53c.6 0 1.2.06 1.81 0h1.22a22.71 22.71 0 0 1-20.65-17.53 21.695 21.695 0 0 0-10-13.71 22.719 22.719 0 0 1-9.21-28.34 21.71 21.71 0 0 0 0-17 22.71 22.71 0 0 1 9.21-28.33 21.732 21.732 0 0 0 10-13.72 22.71 22.71 0 0 1 20.65-17.53c-.41 0-.81 0-1.22-.05-.61 0-1.21 0-1.81.05A22.68 22.68 0 0 0 42.69 28.8Z" />
    <path
      d="M88.97 152.62a21.723 21.723 0 0 0-11.71-5.18H74.23a21.723 21.723 0 0 1 11.71 5.18 22.719 22.719 0 0 0 13.39 5.5c.999.059 2.001.059 3 0a22.722 22.722 0 0 1-13.36-5.5ZM85.94 6.05a21.71 21.71 0 0 1-11.71 5.17c.4 0 .81 0 1.21.05.6 0 1.21-.06 1.82-.05a21.71 21.71 0 0 0 11.71-5.17 22.65 22.65 0 0 1 13.39-5.5 21.89 21.89 0 0 0-3 0 22.65 22.65 0 0 0-13.42 5.5ZM45.71 28.8a21.731 21.731 0 0 1-10 13.72 22.71 22.71 0 0 0-9.21 28.33 21.71 21.71 0 0 1 0 17 22.72 22.72 0 0 0 9.25 28.31 21.69 21.69 0 0 1 10 13.71A22.711 22.711 0 0 0 66.4 147.4c.6 0 1.2.06 1.81 0h1.22a22.712 22.712 0 0 1-20.69-17.54 21.695 21.695 0 0 0-10-13.71 22.719 22.719 0 0 1-9.21-28.34 21.71 21.71 0 0 0 0-17 22.71 22.71 0 0 1 9.21-28.33 21.732 21.732 0 0 0 10-13.72 22.71 22.71 0 0 1 20.65-17.53c-.41 0-.81 0-1.22-.05-.61 0-1.21 0-1.81.05A22.71 22.71 0 0 0 45.71 28.8Z" />
    <path
      d="M92 152.62a21.723 21.723 0 0 0-11.71-5.18H77.26a21.723 21.723 0 0 1 11.71 5.18 22.719 22.719 0 0 0 13.39 5.5c.999.059 2.001.059 3 0a22.723 22.723 0 0 1-13.36-5.5ZM88.97 6.05a21.71 21.71 0 0 1-11.71 5.17c.4 0 .81 0 1.21.05.6 0 1.21-.06 1.82-.05A21.71 21.71 0 0 0 92 6.05a22.65 22.65 0 0 1 13.38-5.5 21.74 21.74 0 0 0-3 0 22.65 22.65 0 0 0-13.41 5.5ZM48.74 28.8a21.731 21.731 0 0 1-10 13.72 22.71 22.71 0 0 0-9.21 28.33 21.71 21.71 0 0 1 0 17 22.72 22.72 0 0 0 9.25 28.31 21.7 21.7 0 0 1 10 13.71 22.714 22.714 0 0 0 20.65 17.53c.6 0 1.2.06 1.81 0h1.21a22.703 22.703 0 0 1-20.64-17.53 21.67 21.67 0 0 0-10-13.71 22.72 22.72 0 0 1-9.2-28.34 21.71 21.71 0 0 0 0-17 22.7 22.7 0 0 1 9.2-28.33 21.709 21.709 0 0 0 10-13.72 22.7 22.7 0 0 1 20.64-17.53c-.4 0-.81 0-1.21-.05-.61 0-1.21 0-1.81.05A22.71 22.71 0 0 0 48.74 28.8Z" />
    <path
      d="M95.03 152.62a21.723 21.723 0 0 0-11.71-5.18H80.29A21.723 21.723 0 0 1 92 152.62a22.725 22.725 0 0 0 13.38 5.5c.999.059 2.001.059 3 0a22.692 22.692 0 0 1-13.35-5.5ZM92 6.05a21.71 21.71 0 0 1-11.71 5.17c.4 0 .8 0 1.21.05.6 0 1.21-.06 1.82-.05a21.71 21.71 0 0 0 11.71-5.17 22.629 22.629 0 0 1 13.38-5.5 21.89 21.89 0 0 0-3 0A22.65 22.65 0 0 0 92 6.05ZM51.77 28.8a21.71 21.71 0 0 1-10 13.72 22.7 22.7 0 0 0-9.2 28.33 21.711 21.711 0 0 1 0 17 22.72 22.72 0 0 0 9.2 28.34 21.68 21.68 0 0 1 10 13.71 22.701 22.701 0 0 0 20.64 17.53c.61 0 1.21.06 1.82 0h1.21A22.704 22.704 0 0 1 54.8 129.9a21.702 21.702 0 0 0-10-13.71 22.72 22.72 0 0 1-9.2-28.34 21.79 21.79 0 0 0 0-17 22.7 22.7 0 0 1 9.2-28.33 21.75 21.75 0 0 0 10-13.72 22.7 22.7 0 0 1 20.64-17.53c-.4 0-.81 0-1.21-.05-.61 0-1.21 0-1.82.05A22.7 22.7 0 0 0 51.77 28.8Z" />
    <path
      d="M98.06 152.62a21.723 21.723 0 0 0-11.71-5.18H83.32a21.723 21.723 0 0 1 11.71 5.18 22.687 22.687 0 0 0 13.38 5.5c.999.059 2.001.059 3 0a22.693 22.693 0 0 1-13.35-5.5ZM95.03 6.05a21.71 21.71 0 0 1-11.71 5.17c.4 0 .8 0 1.21.05.6 0 1.21-.06 1.82-.05a21.71 21.71 0 0 0 11.71-5.17 22.628 22.628 0 0 1 13.38-5.5 21.89 21.89 0 0 0-3 0 22.63 22.63 0 0 0-13.41 5.5ZM54.8 28.8a21.751 21.751 0 0 1-10 13.72 22.7 22.7 0 0 0-9.2 28.33 21.79 21.79 0 0 1 0 17 22.72 22.72 0 0 0 9.2 28.34 21.69 21.69 0 0 1 10 13.71 22.701 22.701 0 0 0 20.64 17.53c.6 0 1.21.06 1.82 0h1.21a22.692 22.692 0 0 1-20.64-17.53 21.7 21.7 0 0 0-10-13.71 22.72 22.72 0 0 1-9.2-28.34 21.79 21.79 0 0 0 0-17 22.7 22.7 0 0 1 9.2-28.33 21.751 21.751 0 0 0 10-13.72 22.68 22.68 0 0 1 20.64-17.53c-.4 0-.81 0-1.21-.05-.61 0-1.22 0-1.82.05A22.7 22.7 0 0 0 54.8 28.8Z" />
    <path
      d="M101.09 152.62a21.722 21.722 0 0 0-11.71-5.18H86.35a21.723 21.723 0 0 1 11.71 5.18 22.69 22.69 0 0 0 13.38 5.54c.999.059 2.001.059 3 0a22.665 22.665 0 0 1-13.35-5.54ZM98.06 6.05a21.71 21.71 0 0 1-11.71 5.17c.4 0 .8 0 1.21.05.6 0 1.2-.06 1.81-.05a21.71 21.71 0 0 0 11.72-5.17 22.6 22.6 0 0 1 13.38-5.5 21.89 21.89 0 0 0-3 0 22.63 22.63 0 0 0-13.41 5.5ZM57.83 28.8a21.75 21.75 0 0 1-10 13.72 22.7 22.7 0 0 0-9.2 28.33 21.79 21.79 0 0 1 0 17 22.72 22.72 0 0 0 9.2 28.34 21.692 21.692 0 0 1 10 13.71 22.694 22.694 0 0 0 20.64 17.53c.6 0 1.21.06 1.82 0h1.21a22.682 22.682 0 0 1-20.64-17.53 21.702 21.702 0 0 0-10-13.71 22.73 22.73 0 0 1-9.22-28.38 21.71 21.71 0 0 0 0-17 22.72 22.72 0 0 1 9.21-28.33 21.75 21.75 0 0 0 10-13.72 22.68 22.68 0 0 1 20.64-17.53c-.41 0-.81 0-1.21-.05-.61 0-1.22 0-1.82.05A22.68 22.68 0 0 0 57.83 28.8Z" />
    <path
      d="M104.12 152.62a21.722 21.722 0 0 0-11.72-5.18h-3.02a21.723 21.723 0 0 1 11.71 5.18 22.658 22.658 0 0 0 13.38 5.5c.999.059 2.001.059 3 0a22.66 22.66 0 0 1-13.35-5.5ZM117.5.55a22.6 22.6 0 0 0-13.38 5.5c-.42.36-.84.71-1.28 1a22.53 22.53 0 0 1-2 1.35c-.23.14-.47.27-.71.39l-.6.31c-.583.29-1.18.55-1.79.78-.29.12-.58.22-.87.32-.29.1-.76.25-1.15.35-.39.1-.59.16-.88.22a4.254 4.254 0 0 1-.49.1c-.25.065-.504.115-.76.15h-.08c-.35.07-.71.12-1.07.16-.61 0-1.21 0-1.81.05-.41 0-.81 0-1.22-.05a21.71 21.71 0 0 0 11.72-5.17 22.6 22.6 0 0 1 13.38-5.5 21.892 21.892 0 0 1 2.99.04ZM60.86 28.8a21.75 21.75 0 0 1-10 13.72 22.72 22.72 0 0 0-9.22 28.33 21.712 21.712 0 0 1 0 17 22.73 22.73 0 0 0 9.25 28.31 21.693 21.693 0 0 1 10 13.71 22.675 22.675 0 0 0 20.64 17.53c.6 0 1.21.06 1.82 0h1.21a22.682 22.682 0 0 1-20.64-17.53 21.739 21.739 0 0 0-10-13.71 22.718 22.718 0 0 1-9.21-28.34 21.71 21.71 0 0 0 0-17 22.71 22.71 0 0 1 9.21-28.33 21.778 21.778 0 0 0 10-13.72 22.68 22.68 0 0 1 20.64-17.53c-.41 0-.81 0-1.21-.05-.61 0-1.22 0-1.82.05A22.68 22.68 0 0 0 60.86 28.8Z" />
    <path
      d="M92.4 147.45c.41 0 .81 0 1.22-.05.6 0 1.2.06 1.81.05a21.673 21.673 0 0 1 11.72 5.17 22.557 22.557 0 0 0 12.57 5.43v.11c-.74.04-1.481.04-2.22 0a22.6 22.6 0 0 1-13.38-5.5 21.628 21.628 0 0 0-11.72-5.21ZM147.04 11.22c-.41 0-.81 0-1.22.05-.6 0-1.2-.06-1.81-.05a21.667 21.667 0 0 1-11.72-5.17A17.268 17.268 0 0 0 119.72.618a17.262 17.262 0 0 0-12.57 5.432 21.703 21.703 0 0 1-11.72 5.17c-.61 0-1.21 0-1.81.05-.41 0-.81 0-1.22-.05.36 0 .71-.09 1.07-.16h.08c.25 0 .51-.09.76-.15.165-.024.329-.057.49-.1.29-.06.59-.14.88-.22.29-.08.77-.22 1.15-.35.38-.13.58-.2.87-.32.61-.23 1.207-.49 1.79-.78l.6-.31c.24-.12.48-.25.71-.39a22.53 22.53 0 0 0 2-1.35c.44-.32.86-.67 1.28-1a22.6 22.6 0 0 1 13.38-5.5 61.63 61.63 0 0 1 4.44 0 22.6 22.6 0 0 1 13.38 5.5 21.63 21.63 0 0 0 11.76 5.13ZM63.89 28.8a21.78 21.78 0 0 1-10 13.72 22.71 22.71 0 0 0-9.21 28.33 21.71 21.71 0 0 1 0 17 22.72 22.72 0 0 0 9.24 28.31 21.743 21.743 0 0 1 10 13.71 22.675 22.675 0 0 0 20.64 17.53c.6 0 1.21.06 1.82 0h1.21a22.682 22.682 0 0 1-20.64-17.53 21.739 21.739 0 0 0-10-13.71 22.718 22.718 0 0 1-9.21-28.34 21.71 21.71 0 0 0 0-17 22.71 22.71 0 0 1 9.21-28.33 21.778 21.778 0 0 0 10-13.72 22.68 22.68 0 0 1 20.64-17.53c-.41 0-.81 0-1.21-.05-.61 0-1.22 0-1.82.05A22.68 22.68 0 0 0 63.89 28.8Z" />
    <path
      d="M119.72 157.53v.52a22.564 22.564 0 0 1-12.57-5.43 21.67 21.67 0 0 0-11.72-5.17h1.21c.61 0 1.21.06 1.82.05a21.703 21.703 0 0 1 11.72 5.17 22.346 22.346 0 0 0 9.54 4.86ZM144.01 11.22c-.41 0-.81 0-1.21.05-.61 0-1.21-.06-1.82-.05a21.698 21.698 0 0 1-11.72-5.17 22.352 22.352 0 0 0-9.54-4.91 22.346 22.346 0 0 0-9.54 4.91 21.698 21.698 0 0 1-11.72 5.17c-.61 0-1.21 0-1.82.05-.4 0-.81 0-1.21-.05a21.699 21.699 0 0 0 11.72-5.17 17.258 17.258 0 0 1 25.14 0 21.67 21.67 0 0 0 11.72 5.17ZM66.92 28.8a21.78 21.78 0 0 1-10 13.72 22.71 22.71 0 0 0-9.21 28.33 21.71 21.71 0 0 1 0 17 22.72 22.72 0 0 0 9.24 28.31 21.743 21.743 0 0 1 10 13.71 22.676 22.676 0 0 0 20.64 17.53c.6 0 1.2.06 1.82 0h1.21a22.71 22.71 0 0 1-20.68-17.54 21.695 21.695 0 0 0-10-13.71 22.719 22.719 0 0 1-9.21-28.34 21.71 21.71 0 0 0 0-17 22.71 22.71 0 0 1 9.21-28.33 21.732 21.732 0 0 0 10-13.72 22.71 22.71 0 0 1 20.7-17.49c-.41 0-.81 0-1.22-.05-.61 0-1.21 0-1.81.05A22.68 22.68 0 0 0 66.92 28.8Z" />
    <path
      d="M140.98 147.45a21.703 21.703 0 0 0-11.72 5.17 22.355 22.355 0 0 1-9.54 4.91 22.349 22.349 0 0 1-9.54-4.91 21.703 21.703 0 0 0-11.72-5.17h1.21c.61 0 1.21.06 1.82.05a21.64 21.64 0 0 1 11.71 5.17 22.57 22.57 0 0 0 6.52 4 22.311 22.311 0 0 0 6.52-4 21.64 21.64 0 0 1 11.71-5.17c.61 0 1.22 0 1.82-.05h1.21ZM140.98 11.22c-.4 0-.81 0-1.21.05-.61 0-1.21-.06-1.82-.05a21.643 21.643 0 0 1-11.71-5.17 22.573 22.573 0 0 0-6.52-4A22.32 22.32 0 0 0 113.2 6a21.643 21.643 0 0 1-11.71 5.17c-.61 0-1.22 0-1.82.05-.4 0-.81 0-1.21-.05A21.699 21.699 0 0 0 110.18 6a22.346 22.346 0 0 1 9.54-4.91A22.352 22.352 0 0 1 129.26 6a21.698 21.698 0 0 0 11.72 5.22ZM93.64 147.39H90.61a22.707 22.707 0 0 1-20.67-17.53 21.695 21.695 0 0 0-10-13.71 22.719 22.719 0 0 1-9.21-28.34 21.71 21.71 0 0 0 0-17 22.71 22.71 0 0 1 9.21-28.33 21.73 21.73 0 0 0 10-13.72 22.71 22.71 0 0 1 20.7-17.49c.6 0 1.2-.06 1.81-.05.41 0 .81 0 1.22.05A22.71 22.71 0 0 0 73.02 28.8a21.73 21.73 0 0 1-10 13.72 22.71 22.71 0 0 0-9.21 28.33 21.71 21.71 0 0 1 0 17 22.722 22.722 0 0 0 9.2 28.31 21.698 21.698 0 0 1 10 13.71 22.712 22.712 0 0 0 20.63 17.52Z" />
    <path
      d="M137.95 147.45a21.64 21.64 0 0 0-11.71 5.17 22.311 22.311 0 0 1-6.52 4 22.57 22.57 0 0 1-6.52-4 21.64 21.64 0 0 0-11.71-5.17c.55 0 1.09 0 1.64-.07h.26a21.698 21.698 0 0 1 12.84 5.25 22.488 22.488 0 0 0 3.49 2.49 21.786 21.786 0 0 0 3.49-2.49 21.698 21.698 0 0 1 12.84-5.25h.26c.55.05 1.09.06 1.64.07ZM137.95 11.22c-.55 0-1.09 0-1.64.07h-.26a21.7 21.7 0 0 1-12.84-5.25 22.457 22.457 0 0 0-3.49-2.49 21.848 21.848 0 0 0-3.49 2.49 21.7 21.7 0 0 1-12.84 5.25h-.26c-.55 0-1.09-.06-1.64-.07a21.643 21.643 0 0 0 11.71-5.17 22.32 22.32 0 0 1 6.52-3.95 22.572 22.572 0 0 1 6.52 4 21.64 21.64 0 0 0 11.71 5.12ZM96.64 147.39H93.61a22.71 22.71 0 0 1-20.65-17.53 21.695 21.695 0 0 0-10-13.71 22.718 22.718 0 0 1-9.21-28.34 21.71 21.71 0 0 0 0-17 22.71 22.71 0 0 1 9.21-28.33 21.73 21.73 0 0 0 10-13.72 22.71 22.71 0 0 1 20.68-17.49c.6 0 1.2-.06 1.81-.05l1.21.05A22.7 22.7 0 0 0 76.02 28.8a21.71 21.71 0 0 1-10 13.72 22.71 22.71 0 0 0-9.2 28.33 21.711 21.711 0 0 1 0 17 22.73 22.73 0 0 0 9.2 28.34 21.68 21.68 0 0 1 10 13.71 22.71 22.71 0 0 0 20.62 17.49Z" />
    <path
      d="M136.05 147.37a21.698 21.698 0 0 0-12.84 5.25 21.912 21.912 0 0 1-3.49 2.49 22.488 22.488 0 0 1-3.49-2.49 21.698 21.698 0 0 0-12.84-5.25 21.749 21.749 0 0 1 15.87 5.25c.15.13.3.26.46.38.16-.12.31-.25.46-.38a21.734 21.734 0 0 1 15.87-5.25ZM136.05 11.3a21.74 21.74 0 0 1-15.87-5.25c-.15-.13-.3-.26-.46-.38-.16.12-.31.25-.46.38a21.746 21.746 0 0 1-15.87 5.25 21.7 21.7 0 0 0 12.84-5.25 21.848 21.848 0 0 1 3.49-2.49c1.24.717 2.409 1.55 3.49 2.49a21.7 21.7 0 0 0 12.84 5.25ZM99.3 147.36h.37-2.98a22.71 22.71 0 0 1-20.65-17.53 21.679 21.679 0 0 0-10-13.71 22.73 22.73 0 0 1-9.2-28.34 21.711 21.711 0 0 0 0-17 22.71 22.71 0 0 1 9.2-28.33 21.71 21.71 0 0 0 10-13.72 22.7 22.7 0 0 1 20.6-17.46c.61 0 1.21-.06 1.82-.05.4 0 .81 0 1.21.05A22.72 22.72 0 0 0 79.03 28.8a21.6 21.6 0 0 1-5.69 10.36l-.78.76a22.005 22.005 0 0 1-3.5 2.62 22.72 22.72 0 0 0-9.2 28.34 21.68 21.68 0 0 1 0 16.95 22.72 22.72 0 0 0 9.2 28.34 21.699 21.699 0 0 1 10 13.72 22.54 22.54 0 0 0 6.17 11l.72.69c.25.22.5.44.76.65l.22.17.17.14.39.3c.26.2.53.39.8.58l.82.54.84.5.85.46.75.36h.08c.063.038.13.068.2.09h.09l.38.16.57.23c.24.1.49.19.75.28.26.09.6.21.91.3.07.031.144.051.22.06.25.08.5.15.76.21s.69.17 1.05.24l.75.14.37.06h.06l.45.05h.11c.26 0 .54.07.81.09h.14l.05.17Z" />
    <path
      d="M179.58 87.81a22.717 22.717 0 0 1-9.2 28.34 21.703 21.703 0 0 0-10 13.72 22.724 22.724 0 0 1-20.64 17.53c-.6 0-1.21.06-1.82.05-.61-.01-1.09 0-1.64-.07h-.26a21.749 21.749 0 0 0-15.87 5.25c-.15.13-.3.26-.46.38-.16-.12-.31-.25-.46-.38a21.743 21.743 0 0 0-15.87-5.25h-.26c-.55 0-1.09.06-1.64.07-.55.01-1.21 0-1.82-.05h-1.43l-.45-.05h-.06l-.37-.06-.75-.14a12.98 12.98 0 0 1-1.05-.24c-.26-.06-.51-.13-.76-.21a.767.767 0 0 1-.22-.06c-.31-.09-.61-.19-.91-.3-.3-.11-.51-.18-.75-.28l-.57-.23-.38-.16h-.09l-.2-.09h-.08l-.75-.36-.85-.46-.84-.5-.82-.54c-.27-.19-.54-.38-.8-.58l-.39-.3-.17-.14-.08-.06-.13-.1c-.26-.21-.51-.43-.76-.65l-.72-.69a22.542 22.542 0 0 1-6.17-11 21.704 21.704 0 0 0-10-13.72 22.72 22.72 0 0 1-9.2-28.34 21.68 21.68 0 0 0 0-16.95 22.72 22.72 0 0 1 9.2-28.34 21.995 21.995 0 0 0 3.5-2.62c.27-.24.53-.5.78-.76a21.6 21.6 0 0 0 5.69-10.34 22.72 22.72 0 0 1 20.58-17.86c.6 0 1.21-.06 1.82-.05.61.01 1.09 0 1.64.07h.26a21.74 21.74 0 0 0 15.87-5.25c.15-.13.3-.26.46-.38.16.12.31.25.46.38a21.737 21.737 0 0 0 15.87 5.25h.26c.55 0 1.09-.06 1.64-.07.55-.01 1.21 0 1.82.05a22.721 22.721 0 0 1 20.64 17.53 21.7 21.7 0 0 0 10 13.72 22.72 22.72 0 0 1 9.2 28.34 21.687 21.687 0 0 0 0 16.95Z" />
    <path d="M99.64 147.39a22.648 22.648 0 0 1-14.4-6.5 22.698 22.698 0 0 0 14.4 6.5Z" />
  </g>
</svg>