<svg viewBox="0 0 258 171" fill="none" xmlns="http://www.w3.org/2000/svg">
  <g clip-path="url(#clip0_19_71)">
  <path d="M100.786 158.721C105.23 154.861 111.05 152.97 116.913 153.481C128.189 154.464 138.467 146.996 141.017 135.969C142.343 130.234 145.94 125.283 150.984 122.25C160.684 116.418 164.61 104.335 160.191 93.9147C157.892 88.496 157.892 82.3766 160.191 76.9579C164.61 66.538 160.684 54.4547 150.984 48.6223C145.94 45.5893 142.343 40.6386 141.017 34.904C138.467 23.8767 128.189 16.4087 116.913 17.3917C111.05 17.9028 105.23 16.0118 100.786 12.1517C92.242 4.72898 79.5368 4.72898 70.9926 12.1517C66.5492 16.0118 60.7293 17.9028 54.8657 17.3917C43.5902 16.4087 33.3115 23.8767 30.762 34.904C29.4362 40.6386 25.8393 45.5893 20.7951 48.6223C11.0953 54.4547 7.16917 66.538 11.5883 76.9579C13.8864 82.3765 13.8864 88.496 11.5883 93.9147C7.16916 104.335 11.0953 116.418 20.7951 122.25C25.8393 125.283 29.4362 130.234 30.762 135.969C33.3115 146.996 43.5902 154.464 54.8657 153.481C60.7293 152.97 66.5492 154.861 70.9925 158.721C79.5368 166.144 92.242 166.144 100.786 158.721Z" fill="#FCECD3" stroke="#65654B"/>
  <path d="M103.815 158.721C108.259 154.861 114.079 152.97 119.942 153.481C131.218 154.464 141.496 146.996 144.046 135.969C145.372 130.234 148.969 125.283 154.013 122.25C163.713 116.418 167.639 104.335 163.22 93.9147C160.921 88.496 160.921 82.3766 163.22 76.9579C167.639 66.538 163.713 54.4547 154.013 48.6223C148.969 45.5893 145.372 40.6386 144.046 34.904C141.496 23.8767 131.218 16.4087 119.942 17.3917C114.079 17.9028 108.259 16.0118 103.815 12.1517C95.2711 4.72898 82.5659 4.72898 74.0216 12.1517C69.5783 16.0118 63.7583 17.9028 57.8947 17.3917C46.6193 16.4087 36.3406 23.8767 33.7911 34.904C32.4653 40.6386 28.8683 45.5893 23.8241 48.6223C14.1243 54.4547 10.1982 66.538 14.6173 76.9579C16.9155 82.3765 16.9155 88.496 14.6173 93.9147C10.1982 104.335 14.1243 116.418 23.8241 122.25C28.8683 125.283 32.4653 130.234 33.7911 135.969C36.3405 146.996 46.6193 154.464 57.8947 153.481C63.7583 152.97 69.5783 154.861 74.0216 158.721C82.5659 166.144 95.271 166.144 103.815 158.721Z" fill="#FCECD3" stroke="#65654B"/>
  <path d="M106.844 158.721C111.287 154.861 117.107 152.97 122.971 153.481C134.246 154.464 144.525 146.996 147.075 135.969C148.4 130.234 151.997 125.283 157.042 122.25C166.741 116.418 170.668 104.335 166.248 93.9147C163.95 88.496 163.95 82.3766 166.248 76.9579C170.668 66.538 166.741 54.4547 157.042 48.6223C151.997 45.5893 148.4 40.6386 147.075 34.904C144.525 23.8767 134.246 16.4087 122.971 17.3917C117.107 17.9028 111.287 16.0118 106.844 12.1517C98.2999 4.72898 85.5947 4.72898 77.0504 12.1517C72.6071 16.0118 66.7872 17.9028 60.9235 17.3917C49.6481 16.4087 39.3694 23.8767 36.8199 34.904C35.4941 40.6386 31.8972 45.5893 26.8529 48.6223C17.1531 54.4547 13.227 66.538 17.6462 76.9579C19.9443 82.3765 19.9443 88.496 17.6462 93.9147C13.227 104.335 17.1531 116.418 26.8529 122.25C31.8971 125.283 35.4941 130.234 36.8199 135.969C39.3694 146.996 49.6481 154.464 60.9235 153.481C66.7871 152.97 72.6071 154.861 77.0504 158.721C85.5947 166.144 98.2999 166.144 106.844 158.721Z" fill="#FCECD3" stroke="#65654B"/>
  <path d="M109.873 158.721C114.316 154.861 120.136 152.97 126 153.481C137.275 154.464 147.554 146.996 150.103 135.969C151.429 130.234 155.026 125.283 160.07 122.25C169.77 116.418 173.696 104.335 169.277 93.9147C166.979 88.496 166.979 82.3766 169.277 76.9579C173.696 66.538 169.77 54.4547 160.07 48.6223C155.026 45.5893 151.429 40.6386 150.103 34.904C147.554 23.8767 137.275 16.4087 126 17.3917C120.136 17.9028 114.316 16.0118 109.873 12.1517C101.328 4.72898 88.6233 4.72898 80.079 12.1517C75.6357 16.0118 69.8157 17.9028 63.9521 17.3917C52.6766 16.4087 42.3979 23.8767 39.8485 34.904C38.5226 40.6386 34.9257 45.5893 29.8815 48.6223C20.1817 54.4547 16.2556 66.538 20.6747 76.9579C22.9728 82.3765 22.9728 88.496 20.6747 93.9147C16.2556 104.335 20.1817 116.418 29.8815 122.25C34.9257 125.283 38.5226 130.234 39.8485 135.969C42.3979 146.996 52.6766 154.464 63.9521 153.481C69.8157 152.97 75.6357 154.861 80.079 158.721C88.6232 166.144 101.328 166.144 109.873 158.721Z" fill="#FCECD3" stroke="#65654B"/>
  <path d="M112.902 158.721C117.345 154.861 123.165 152.97 129.028 153.481C140.304 154.464 150.583 146.996 153.132 135.969C154.458 130.234 158.055 125.283 163.099 122.25C172.799 116.418 176.725 104.335 172.306 93.9147C170.008 88.496 170.008 82.3766 172.306 76.9579C176.725 66.538 172.799 54.4547 163.099 48.6223C158.055 45.5893 154.458 40.6386 153.132 34.904C150.583 23.8767 140.304 16.4087 129.028 17.3917C123.165 17.9028 117.345 16.0118 112.902 12.1517C104.357 4.72898 91.6521 4.72898 83.1078 12.1517C78.6645 16.0118 72.8445 17.9028 66.9809 17.3917C55.7055 16.4087 45.4267 23.8767 42.8773 34.904C41.5514 40.6386 37.9545 45.5893 32.9103 48.6223C23.2105 54.4547 19.2844 66.538 23.7035 76.9579C26.0016 82.3765 26.0016 88.496 23.7035 93.9147C19.2844 104.335 23.2105 116.418 32.9103 122.25C37.9545 125.283 41.5514 130.234 42.8773 135.969C45.4267 146.996 55.7054 154.464 66.9809 153.481C72.8445 152.97 78.6645 154.861 83.1078 158.721C91.652 166.144 104.357 166.144 112.902 158.721Z" fill="#FCECD3" stroke="#65654B"/>
  <path d="M115.93 158.721C120.374 154.861 126.194 152.97 132.057 153.481C143.333 154.464 153.611 146.996 156.161 135.969C157.487 130.234 161.084 125.283 166.128 122.25C175.828 116.418 179.754 104.335 175.335 93.9147C173.036 88.496 173.036 82.3766 175.335 76.9579C179.754 66.538 175.828 54.4547 166.128 48.6223C161.084 45.5893 157.487 40.6386 156.161 34.904C153.611 23.8767 143.333 16.4087 132.057 17.3917C126.194 17.9028 120.374 16.0118 115.93 12.1517C107.386 4.72898 94.6809 4.72898 86.1366 12.1517C81.6933 16.0118 75.8733 17.9028 70.0097 17.3917C58.7343 16.4087 48.4555 23.8767 45.9061 34.904C44.5803 40.6386 40.9833 45.5893 35.9391 48.6223C26.2393 54.4547 22.3132 66.538 26.7323 76.9579C29.0304 82.3765 29.0304 88.496 26.7323 93.9147C22.3132 104.335 26.2393 116.418 35.9391 122.25C40.9833 125.283 44.5802 130.234 45.9061 135.969C48.4555 146.996 58.7343 154.464 70.0097 153.481C75.8733 152.97 81.6933 154.861 86.1366 158.721C94.6809 166.144 107.386 166.144 115.93 158.721Z" fill="#FCECD3" stroke="#65654B"/>
  <path d="M118.959 158.721C123.402 154.861 129.222 152.97 135.086 153.481C146.361 154.464 156.64 146.996 159.19 135.969C160.515 130.234 164.112 125.283 169.157 122.25C178.856 116.418 182.783 104.335 178.363 93.9147C176.065 88.496 176.065 82.3766 178.363 76.9579C182.783 66.538 178.856 54.4547 169.157 48.6223C164.112 45.5893 160.515 40.6386 159.19 34.904C156.64 23.8767 146.361 16.4087 135.086 17.3917C129.222 17.9028 123.402 16.0118 118.959 12.1517C110.415 4.72898 97.7097 4.72898 89.1654 12.1517C84.7221 16.0118 78.9021 17.9028 73.0385 17.3917C61.7631 16.4087 51.4844 23.8767 48.9349 34.904C47.6091 40.6386 44.0121 45.5893 38.9679 48.6223C29.2681 54.4547 25.342 66.538 29.7611 76.9579C32.0593 82.3765 32.0593 88.496 29.7611 93.9147C25.342 104.335 29.2681 116.418 38.9679 122.25C44.0121 125.283 47.6091 130.234 48.9349 135.969C51.4843 146.996 61.7631 154.464 73.0385 153.481C78.9021 152.97 84.7221 154.861 89.1654 158.721C97.7097 166.144 110.415 166.144 118.959 158.721Z" fill="#FCECD3" stroke="#65654B"/>
  <path d="M121.988 158.721C126.431 154.861 132.251 152.97 138.115 153.481C149.39 154.464 159.669 146.996 162.218 135.969C163.544 130.234 167.141 125.283 172.185 122.25C181.885 116.418 185.811 104.335 181.392 93.9147C179.094 88.496 179.094 82.3766 181.392 76.9579C185.811 66.538 181.885 54.4547 172.185 48.6223C167.141 45.5893 163.544 40.6386 162.218 34.904C159.669 23.8767 149.39 16.4087 138.115 17.3917C132.251 17.9028 126.431 16.0118 121.988 12.1517C113.444 4.72898 100.738 4.72898 92.1942 12.1517C87.7509 16.0118 81.931 17.9028 76.0673 17.3917C64.7919 16.4087 54.5132 23.8767 51.9637 34.904C50.6379 40.6386 47.041 45.5893 41.9967 48.6223C32.2969 54.4547 28.3708 66.538 32.79 76.9579C35.0881 82.3765 35.0881 88.496 32.79 93.9147C28.3708 104.335 32.2969 116.418 41.9967 122.25C47.0409 125.283 50.6379 130.234 51.9637 135.969C54.5132 146.996 64.7919 154.464 76.0673 153.481C81.9309 152.97 87.7509 154.861 92.1942 158.721C100.738 166.144 113.444 166.144 121.988 158.721Z" fill="#FCECD3" stroke="#65654B"/>
  <path d="M125.017 158.721C129.46 154.861 135.28 152.97 141.144 153.481C152.419 154.464 162.698 146.996 165.247 135.969C166.573 130.234 170.17 125.283 175.214 122.25C184.914 116.418 188.84 104.335 184.421 93.9147C182.123 88.496 182.123 82.3766 184.421 76.9579C188.84 66.538 184.914 54.4547 175.214 48.6223C170.17 45.5893 166.573 40.6386 165.247 34.904C162.698 23.8767 152.419 16.4087 141.144 17.3917C135.28 17.9028 129.46 16.0118 125.017 12.1517C116.472 4.72898 103.767 4.72898 95.223 12.1517C90.7797 16.0118 84.9598 17.9028 79.0961 17.3917C67.8207 16.4087 57.542 23.8767 54.9925 34.904C53.6667 40.6386 50.0698 45.5893 45.0255 48.6223C35.3258 54.4547 31.3996 66.538 35.8188 76.9579C38.1169 82.3765 38.1169 88.496 35.8188 93.9147C31.3996 104.335 35.3257 116.418 45.0255 122.25C50.0698 125.283 53.6667 130.234 54.9925 135.969C57.542 146.996 67.8207 154.464 79.0961 153.481C84.9597 152.97 90.7797 154.861 95.223 158.721C103.767 166.144 116.472 166.144 125.017 158.721Z" fill="#FCECD3" stroke="#65654B"/>
  <path d="M128.045 158.721C132.489 154.861 138.309 152.97 144.172 153.481C155.448 154.464 165.726 146.996 168.276 135.969C169.602 130.234 173.199 125.283 178.243 122.25C187.943 116.418 191.869 104.335 187.45 93.9147C185.151 88.496 185.151 82.3766 187.45 76.9579C191.869 66.538 187.943 54.4547 178.243 48.6223C173.199 45.5893 169.602 40.6386 168.276 34.904C165.726 23.8767 155.448 16.4087 144.172 17.3917C138.309 17.9028 132.489 16.0118 128.045 12.1517C119.501 4.72898 106.796 4.72898 98.2516 12.1517C93.8083 16.0118 87.9883 17.9028 82.1247 17.3917C70.8492 16.4087 60.5705 23.8767 58.0211 34.904C56.6952 40.6386 53.0983 45.5893 48.0541 48.6223C38.3543 54.4547 34.4282 66.538 38.8473 76.9579C41.1454 82.3765 41.1454 88.496 38.8473 93.9147C34.4282 104.335 38.3543 116.418 48.0541 122.25C53.0983 125.283 56.6952 130.234 58.0211 135.969C60.5705 146.996 70.8492 154.464 82.1247 153.481C87.9883 152.97 93.8083 154.861 98.2516 158.721C106.796 166.144 119.501 166.144 128.045 158.721Z" fill="#FCECD3" stroke="#65654B"/>
  <path d="M131.074 158.721C135.517 154.861 141.337 152.97 147.201 153.481C158.476 154.464 168.755 146.996 171.305 135.969C172.63 130.234 176.227 125.283 181.272 122.25C190.971 116.418 194.898 104.335 190.478 93.9147C188.18 88.496 188.18 82.3766 190.478 76.9579C194.898 66.538 190.971 54.4547 181.272 48.6223C176.227 45.5893 172.63 40.6386 171.305 34.904C168.755 23.8767 158.476 16.4087 147.201 17.3917C141.337 17.9028 135.517 16.0118 131.074 12.1517C122.53 4.72898 109.825 4.72898 101.28 12.1517C96.8371 16.0118 91.0171 17.9028 85.1535 17.3917C73.8781 16.4087 63.5993 23.8767 61.0499 34.904C59.7241 40.6386 56.1271 45.5893 51.0829 48.6223C41.3831 54.4547 37.457 66.538 41.8761 76.9579C44.1742 82.3765 44.1742 88.496 41.8761 93.9147C37.457 104.335 41.3831 116.418 51.0829 122.25C56.1271 125.283 59.724 130.234 61.0499 135.969C63.5993 146.996 73.8781 154.464 85.1535 153.481C91.0171 152.97 96.8371 154.861 101.28 158.721C109.825 166.144 122.53 166.144 131.074 158.721Z" fill="#FCECD3" stroke="#65654B"/>
  <path d="M134.103 158.721C138.546 154.861 144.366 152.97 150.23 153.481C161.505 154.464 171.784 146.996 174.333 135.969C175.659 130.234 179.256 125.283 184.3 122.25C194 116.418 197.926 104.335 193.507 93.9147C191.209 88.496 191.209 82.3766 193.507 76.9579C197.926 66.538 194 54.4547 184.3 48.6223C179.256 45.5893 175.659 40.6386 174.333 34.904C171.784 23.8767 161.505 16.4087 150.23 17.3917C144.366 17.9028 138.546 16.0118 134.103 12.1517C125.559 4.72898 112.853 4.72898 104.309 12.1517C99.8659 16.0118 94.0459 17.9028 88.1823 17.3917C76.9069 16.4087 66.6282 23.8767 64.0787 34.904C62.7529 40.6386 59.1559 45.5893 54.1117 48.6223C44.4119 54.4547 40.4858 66.538 44.9049 76.9579C47.2031 82.3765 47.2031 88.496 44.9049 93.9147C40.4858 104.335 44.4119 116.418 54.1117 122.25C59.1559 125.283 62.7529 130.234 64.0787 135.969C66.6281 146.996 76.9069 154.464 88.1823 153.481C94.0459 152.97 99.8659 154.861 104.309 158.721C112.853 166.144 125.559 166.144 134.103 158.721Z" fill="#FCECD3" stroke="#65654B"/>
  <path d="M137.132 158.721C141.575 154.861 147.395 152.97 153.259 153.481C164.534 154.464 174.813 146.996 177.362 135.969C178.688 130.234 182.285 125.283 187.329 122.25C197.029 116.418 200.955 104.335 196.536 93.9147C194.238 88.496 194.238 82.3766 196.536 76.9579C200.955 66.538 197.029 54.4547 187.329 48.6223C182.285 45.5893 178.688 40.6386 177.362 34.904C174.813 23.8767 164.534 16.4087 153.259 17.3917C147.395 17.9028 141.575 16.0118 137.132 12.1517C128.587 4.72898 115.882 4.72898 107.338 12.1517C102.895 16.0118 97.0748 17.9028 91.2111 17.3917C79.9357 16.4087 69.657 23.8767 67.1075 34.904C65.7817 40.6386 62.1847 45.5893 57.1405 48.6223C47.4407 54.4547 43.5146 66.538 47.9338 76.9579C50.2319 82.3765 50.2319 88.496 47.9338 93.9147C43.5146 104.335 47.4407 116.418 57.1405 122.25C62.1847 125.283 65.7817 130.234 67.1075 135.969C69.657 146.996 79.9357 154.464 91.2111 153.481C97.0747 152.97 102.895 154.861 107.338 158.721C115.882 166.144 128.587 166.144 137.132 158.721Z" fill="#FCECD3" stroke="#65654B"/>
  <path d="M140.161 158.721C144.604 154.861 150.424 152.97 156.287 153.481C167.563 154.464 177.842 146.996 180.391 135.969C181.717 130.234 185.314 125.283 190.358 122.25C200.058 116.418 203.984 104.335 199.565 93.9147C197.267 88.496 197.267 82.3766 199.565 76.9579C203.984 66.538 200.058 54.4547 190.358 48.6223C185.314 45.5893 181.717 40.6386 180.391 34.904C177.842 23.8767 167.563 16.4087 156.287 17.3917C150.424 17.9028 144.604 16.0118 140.161 12.1517C131.616 4.72898 118.911 4.72898 110.367 12.1517C105.923 16.0118 100.104 17.9028 94.2399 17.3917C82.9645 16.4087 72.6858 23.8767 70.1363 34.904C68.8105 40.6386 65.2136 45.5893 60.1693 48.6223C50.4696 54.4547 46.5434 66.538 50.9626 76.9579C53.2607 82.3765 53.2607 88.496 50.9626 93.9147C46.5434 104.335 50.4695 116.418 60.1693 122.25C65.2136 125.283 68.8105 130.234 70.1363 135.969C72.6858 146.996 82.9645 154.464 94.2399 153.481C100.104 152.97 105.923 154.861 110.367 158.721C118.911 166.144 131.616 166.144 140.161 158.721Z" fill="#FCECD3" stroke="#65654B"/>
  <path d="M143.189 158.721C147.632 154.861 153.452 152.97 159.316 153.481C170.591 154.464 180.87 146.996 183.42 135.969C184.745 130.234 188.342 125.283 193.387 122.25C203.086 116.418 207.012 104.335 202.593 93.9147C200.295 88.496 200.295 82.3766 202.593 76.9579C207.012 66.538 203.086 54.4547 193.387 48.6223C188.342 45.5893 184.745 40.6386 183.42 34.904C180.87 23.8767 170.591 16.4087 159.316 17.3917C153.452 17.9028 147.632 16.0118 143.189 12.1517C134.645 4.72898 121.94 4.72898 113.395 12.1517C108.952 16.0118 103.132 17.9028 97.2685 17.3917C85.993 16.4087 75.7143 23.8767 73.1649 34.904C71.839 40.6386 68.2421 45.5893 63.1979 48.6223C53.4981 54.4547 49.572 66.538 53.9911 76.9579C56.2892 82.3765 56.2892 88.496 53.9911 93.9147C49.572 104.335 53.4981 116.418 63.1979 122.25C68.2421 125.283 71.839 130.234 73.1649 135.969C75.7143 146.996 85.993 154.464 97.2685 153.481C103.132 152.97 108.952 154.861 113.395 158.721C121.94 166.144 134.645 166.144 143.189 158.721Z" fill="#FCECD3" stroke="#65654B"/>
  <path d="M146.218 158.721C150.661 154.861 156.481 152.97 162.345 153.481C173.62 154.464 183.899 146.996 186.448 135.969C187.774 130.234 191.371 125.283 196.415 122.25C206.115 116.418 210.041 104.335 205.622 93.9147C203.324 88.496 203.324 82.3766 205.622 76.9579C210.041 66.538 206.115 54.4547 196.415 48.6223C191.371 45.5893 187.774 40.6386 186.448 34.904C183.899 23.8767 173.62 16.4087 162.345 17.3917C156.481 17.9028 150.661 16.0118 146.218 12.1517C137.674 4.72898 124.968 4.72898 116.424 12.1517C111.981 16.0118 106.161 17.9028 100.297 17.3917C89.0219 16.4087 78.7431 23.8767 76.1937 34.904C74.8679 40.6386 71.2709 45.5893 66.2267 48.6223C56.5269 54.4547 52.6008 66.538 57.0199 76.9579C59.318 82.3765 59.318 88.496 57.0199 93.9147C52.6008 104.335 56.5269 116.418 66.2267 122.25C71.2709 125.283 74.8678 130.234 76.1937 135.969C78.7431 146.996 89.0219 154.464 100.297 153.481C106.161 152.97 111.981 154.861 116.424 158.721C124.968 166.144 137.674 166.144 146.218 158.721Z" fill="#FCECD3" stroke="#65654B"/>
  <path d="M149.247 158.721C153.69 154.861 159.51 152.97 165.374 153.481C176.649 154.464 186.928 146.996 189.477 135.969C190.803 130.234 194.4 125.283 199.444 122.25C209.144 116.418 213.07 104.335 208.651 93.9147C206.353 88.496 206.353 82.3766 208.651 76.9579C213.07 66.538 209.144 54.4547 199.444 48.6223C194.4 45.5893 190.803 40.6386 189.477 34.904C186.928 23.8767 176.649 16.4087 165.374 17.3917C159.51 17.9028 153.69 16.0118 149.247 12.1517C140.702 4.72898 127.997 4.72898 119.453 12.1517C115.01 16.0118 109.19 17.9028 103.326 17.3917C92.0507 16.4087 81.772 23.8767 79.2225 34.904C77.8967 40.6386 74.2997 45.5893 69.2555 48.6223C59.5557 54.4547 55.6296 66.538 60.0487 76.9579C62.3469 82.3765 62.3469 88.496 60.0487 93.9147C55.6296 104.335 59.5557 116.418 69.2555 122.25C74.2997 125.283 77.8967 130.234 79.2225 135.969C81.7719 146.996 92.0507 154.464 103.326 153.481C109.19 152.97 115.01 154.861 119.453 158.721C127.997 166.144 140.702 166.144 149.247 158.721Z" fill="#FCECD3" stroke="#65654B"/>
  <path d="M152.276 158.721C156.719 154.861 162.539 152.97 168.402 153.481C179.678 154.464 189.957 146.996 192.506 135.969C193.832 130.234 197.429 125.283 202.473 122.25C212.173 116.418 216.099 104.335 211.68 93.9147C209.382 88.496 209.382 82.3766 211.68 76.9579C216.099 66.538 212.173 54.4547 202.473 48.6223C197.429 45.5893 193.832 40.6386 192.506 34.904C189.957 23.8767 179.678 16.4087 168.402 17.3917C162.539 17.9028 156.719 16.0118 152.276 12.1517C143.731 4.72898 131.026 4.72898 122.482 12.1517C118.038 16.0118 112.219 17.9028 106.355 17.3917C95.0795 16.4087 84.8008 23.8767 82.2513 34.904C80.9255 40.6386 77.3285 45.5893 72.2843 48.6223C62.5845 54.4547 58.6584 66.538 63.0776 76.9579C65.3757 82.3765 65.3757 88.496 63.0776 93.9147C58.6584 104.335 62.5845 116.418 72.2843 122.25C77.3285 125.283 80.9255 130.234 82.2513 135.969C84.8008 146.996 95.0795 154.464 106.355 153.481C112.219 152.97 118.038 154.861 122.482 158.721C131.026 166.144 143.731 166.144 152.276 158.721Z" fill="#FCECD3" stroke="#65654B"/>
  <path d="M155.304 158.721C159.748 154.861 165.568 152.97 171.431 153.481C182.707 154.464 192.985 146.996 195.535 135.969C196.861 130.234 200.458 125.283 205.502 122.25C215.202 116.418 219.128 104.335 214.709 93.9147C212.41 88.496 212.41 82.3766 214.709 76.9579C219.128 66.538 215.202 54.4547 205.502 48.6223C200.458 45.5893 196.861 40.6386 195.535 34.904C192.985 23.8767 182.707 16.4087 171.431 17.3917C165.568 17.9028 159.748 16.0118 155.304 12.1517C146.76 4.72898 134.055 4.72898 125.511 12.1517C121.067 16.0118 115.247 17.9028 109.384 17.3917C98.1083 16.4087 87.8296 23.8767 85.2801 34.904C83.9543 40.6386 80.3574 45.5893 75.3131 48.6223C65.6134 54.4547 61.6872 66.538 66.1064 76.9579C68.4045 82.3765 68.4045 88.496 66.1064 93.9147C61.6872 104.335 65.6133 116.418 75.3131 122.25C80.3573 125.283 83.9543 130.234 85.2801 135.969C87.8296 146.996 98.1083 154.464 109.384 153.481C115.247 152.97 121.067 154.861 125.511 158.721C134.055 166.144 146.76 166.144 155.304 158.721Z" fill="#FCECD3" stroke="#65654B"/>
  <path d="M158.333 158.721C162.776 154.861 168.596 152.97 174.46 153.481C185.735 154.464 196.014 146.996 198.564 135.969C199.889 130.234 203.486 125.283 208.531 122.25C218.23 116.418 222.157 104.335 217.737 93.9147C215.439 88.496 215.439 82.3766 217.737 76.9579C222.157 66.538 218.23 54.4547 208.531 48.6223C203.486 45.5893 199.889 40.6386 198.564 34.904C196.014 23.8767 185.735 16.4087 174.46 17.3917C168.596 17.9028 162.776 16.0118 158.333 12.1517C149.789 4.72898 137.084 4.72898 128.539 12.1517C124.096 16.0118 118.276 17.9028 112.413 17.3917C101.137 16.4087 90.8584 23.8767 88.3089 34.904C86.9831 40.6386 83.3862 45.5893 78.3419 48.6223C68.6422 54.4547 64.716 66.538 69.1352 76.9579C71.4333 82.3765 71.4333 88.496 69.1352 93.9147C64.716 104.335 68.6422 116.418 78.3419 122.25C83.3862 125.283 86.9831 130.234 88.3089 135.969C90.8584 146.996 101.137 154.464 112.413 153.481C118.276 152.97 124.096 154.861 128.539 158.721C137.084 166.144 149.789 166.144 158.333 158.721Z" fill="#FCECD3" stroke="#65654B"/>
  </g>
  <g clip-path="url(#clip1_19_71)">
  <path d="M157.214 12.2792C152.77 16.1393 146.95 18.0303 141.087 17.5191C129.811 16.5362 119.533 24.0041 116.983 35.0314C115.657 40.766 112.06 45.7168 107.016 48.7498C97.3165 54.5821 93.3903 66.6655 97.8095 77.0853C100.108 82.504 100.108 88.6234 97.8095 94.0421C93.3903 104.462 97.3165 116.545 107.016 122.378C112.06 125.411 115.657 130.361 116.983 136.096C119.533 147.123 129.811 154.591 141.087 153.608C146.95 153.097 152.77 154.988 157.214 158.848C165.758 166.271 178.463 166.271 187.007 158.848C191.451 154.988 197.271 153.097 203.134 153.608C214.41 154.591 224.689 147.123 227.238 136.096C228.564 130.361 232.161 125.411 237.205 122.378C246.905 116.545 250.831 104.462 246.412 94.0421C244.114 88.6234 244.114 82.504 246.412 77.0853C250.831 66.6655 246.905 54.5821 237.205 48.7498C232.161 45.7168 228.564 40.766 227.238 35.0314C224.689 24.0041 214.41 16.5362 203.134 17.5191C197.271 18.0303 191.451 16.1393 187.007 12.2792C178.463 4.85643 165.758 4.85643 157.214 12.2792Z" fill="#FCECD3" stroke="#65654B"/>
  <path d="M154.185 12.2792C149.741 16.1393 143.921 18.0303 138.058 17.5191C126.782 16.5362 116.504 24.0041 113.954 35.0314C112.628 40.766 109.031 45.7168 103.987 48.7498C94.2874 54.5821 90.3613 66.6655 94.7804 77.0853C97.0785 82.504 97.0785 88.6234 94.7804 94.0421C90.3613 104.462 94.2874 116.545 103.987 122.378C109.031 125.411 112.628 130.361 113.954 136.096C116.504 147.123 126.782 154.591 138.058 153.608C143.921 153.097 149.741 154.988 154.185 158.848C162.729 166.271 175.434 166.271 183.978 158.848C188.422 154.988 194.242 153.097 200.105 153.608C211.381 154.591 221.659 147.123 224.209 136.096C225.535 130.361 229.132 125.411 234.176 122.378C243.876 116.545 247.802 104.462 243.383 94.0421C241.085 88.6234 241.085 82.504 243.383 77.0853C247.802 66.6655 243.876 54.5821 234.176 48.7498C229.132 45.7168 225.535 40.766 224.209 35.0314C221.659 24.0041 211.381 16.5362 200.105 17.5191C194.242 18.0303 188.422 16.1393 183.978 12.2792C175.434 4.85643 162.729 4.85643 154.185 12.2792Z" fill="#FCECD3" stroke="#65654B"/>
  <path d="M151.156 12.2792C146.713 16.1393 140.893 18.0303 135.029 17.5191C123.754 16.5362 113.475 24.0041 110.925 35.0314C109.6 40.766 106.003 45.7168 100.958 48.7498C91.2586 54.5821 87.3325 66.6655 91.7516 77.0853C94.0497 82.504 94.0497 88.6234 91.7516 94.0421C87.3325 104.462 91.2586 116.545 100.958 122.378C106.003 125.411 109.6 130.361 110.925 136.096C113.475 147.123 123.754 154.591 135.029 153.608C140.893 153.097 146.713 154.988 151.156 158.848C159.7 166.271 172.405 166.271 180.95 158.848C185.393 154.988 191.213 153.097 197.076 153.608C208.352 154.591 218.631 147.123 221.18 136.096C222.506 130.361 226.103 125.411 231.147 122.378C240.847 116.545 244.773 104.462 240.354 94.0421C238.056 88.6234 238.056 82.504 240.354 77.0853C244.773 66.6655 240.847 54.5821 231.147 48.7498C226.103 45.7168 222.506 40.766 221.18 35.0314C218.631 24.0041 208.352 16.5362 197.076 17.5191C191.213 18.0303 185.393 16.1393 180.95 12.2792C172.405 4.85643 159.7 4.85643 151.156 12.2792Z" fill="#FCECD3" stroke="#65654B"/>
  <path d="M148.127 12.2792C143.684 16.1393 137.864 18.0303 132 17.5191C120.725 16.5362 110.446 24.0041 107.897 35.0314C106.571 40.766 102.974 45.7168 97.9298 48.7498C88.23 54.5821 84.3039 66.6655 88.7231 77.0853C91.0212 82.504 91.0212 88.6234 88.7231 94.0421C84.3039 104.462 88.23 116.545 97.9298 122.378C102.974 125.411 106.571 130.361 107.897 136.096C110.446 147.123 120.725 154.591 132 153.608C137.864 153.097 143.684 154.988 148.127 158.848C156.672 166.271 169.377 166.271 177.921 158.848C182.364 154.988 188.184 153.097 194.048 153.608C205.323 154.591 215.602 147.123 218.152 136.096C219.477 130.361 223.074 125.411 228.119 122.378C237.818 116.545 241.744 104.462 237.325 94.0421C235.027 88.6234 235.027 82.504 237.325 77.0853C241.744 66.6655 237.818 54.5821 228.119 48.7498C223.074 45.7168 219.477 40.766 218.152 35.0314C215.602 24.0041 205.323 16.5362 194.048 17.5191C188.184 18.0303 182.364 16.1393 177.921 12.2792C169.377 4.85643 156.672 4.85643 148.127 12.2792Z" fill="#FCECD3" stroke="#65654B"/>
  <path d="M145.098 12.2792C140.655 16.1393 134.835 18.0303 128.972 17.5191C117.696 16.5362 107.417 24.0041 104.868 35.0314C103.542 40.766 99.9452 45.7168 94.901 48.7498C85.2012 54.5821 81.2751 66.6655 85.6942 77.0853C87.9924 82.504 87.9924 88.6234 85.6942 94.0421C81.2751 104.462 85.2012 116.545 94.901 122.378C99.9452 125.411 103.542 130.361 104.868 136.096C107.417 147.123 117.696 154.591 128.972 153.608C134.835 153.097 140.655 154.988 145.098 158.848C153.643 166.271 166.348 166.271 174.892 158.848C179.336 154.988 185.155 153.097 191.019 153.608C202.295 154.591 212.573 147.123 215.123 136.096C216.449 130.361 220.045 125.411 225.09 122.378C234.789 116.545 238.716 104.462 234.296 94.0421C231.998 88.6234 231.998 82.504 234.296 77.0853C238.716 66.6655 234.789 54.5821 225.09 48.7498C220.045 45.7168 216.449 40.766 215.123 35.0314C212.573 24.0041 202.295 16.5362 191.019 17.5191C185.155 18.0303 179.336 16.1393 174.892 12.2792C166.348 4.85643 153.643 4.85643 145.098 12.2792Z" fill="#FCECD3" stroke="#65654B"/>
  <path d="M142.07 12.2792C137.626 16.1393 131.806 18.0303 125.943 17.5191C114.667 16.5362 104.389 24.0041 101.839 35.0314C100.513 40.766 96.9164 45.7168 91.8722 48.7498C82.1724 54.5821 78.2463 66.6655 82.6654 77.0853C84.9635 82.504 84.9635 88.6234 82.6654 94.0421C78.2463 104.462 82.1724 116.545 91.8722 122.378C96.9164 125.411 100.513 130.361 101.839 136.096C104.389 147.123 114.667 154.591 125.943 153.608C131.806 153.097 137.626 154.988 142.07 158.848C150.614 166.271 163.319 166.271 171.863 158.848C176.307 154.988 182.127 153.097 187.99 153.608C199.266 154.591 209.544 147.123 212.094 136.096C213.42 130.361 217.017 125.411 222.061 122.378C231.761 116.545 235.687 104.462 231.268 94.0421C228.97 88.6234 228.97 82.504 231.268 77.0853C235.687 66.6655 231.761 54.5821 222.061 48.7498C217.017 45.7168 213.42 40.766 212.094 35.0314C209.544 24.0041 199.266 16.5362 187.99 17.5191C182.127 18.0303 176.307 16.1393 171.863 12.2792C163.319 4.85643 150.614 4.85643 142.07 12.2792Z" fill="#FCECD3" stroke="#65654B"/>
  <path d="M139.041 12.2792C134.598 16.1393 128.778 18.0303 122.914 17.5191C111.639 16.5362 101.36 24.0041 98.8104 35.0314C97.4845 40.766 93.8876 45.7168 88.8434 48.7498C79.1436 54.5821 75.2175 66.6655 79.6366 77.0853C81.9347 82.504 81.9347 88.6234 79.6366 94.0421C75.2175 104.462 79.1436 116.545 88.8434 122.378C93.8876 125.411 97.4845 130.361 98.8104 136.096C101.36 147.123 111.639 154.591 122.914 153.608C128.778 153.097 134.598 154.988 139.041 158.848C147.585 166.271 160.29 166.271 168.835 158.848C173.278 154.988 179.098 153.097 184.961 153.608C196.237 154.591 206.516 147.123 209.065 136.096C210.391 130.361 213.988 125.411 219.032 122.378C228.732 116.545 232.658 104.462 228.239 94.0421C225.941 88.6234 225.941 82.504 228.239 77.0853C232.658 66.6655 228.732 54.5821 219.032 48.7498C213.988 45.7168 210.391 40.766 209.065 35.0314C206.516 24.0041 196.237 16.5362 184.961 17.5191C179.098 18.0303 173.278 16.1393 168.835 12.2792C160.29 4.85643 147.585 4.85643 139.041 12.2792Z" fill="#FCECD3" stroke="#65654B"/>
  <path d="M136.012 12.2792C131.569 16.1393 125.749 18.0303 119.885 17.5191C108.61 16.5362 98.331 24.0041 95.7816 35.0314C94.4557 40.766 90.8588 45.7168 85.8146 48.7498C76.1148 54.5821 72.1887 66.6655 76.6078 77.0853C78.9059 82.504 78.9059 88.6234 76.6078 94.0421C72.1887 104.462 76.1148 116.545 85.8146 122.378C90.8588 125.411 94.4557 130.361 95.7816 136.096C98.331 147.123 108.61 154.591 119.885 153.608C125.749 153.097 131.569 154.988 136.012 158.848C144.556 166.271 157.262 166.271 165.806 158.848C170.249 154.988 176.069 153.097 181.933 153.608C193.208 154.591 203.487 147.123 206.036 136.096C207.362 130.361 210.959 125.411 216.003 122.378C225.703 116.545 229.629 104.462 225.21 94.0421C222.912 88.6234 222.912 82.504 225.21 77.0853C229.629 66.6655 225.703 54.5821 216.003 48.7498C210.959 45.7168 207.362 40.766 206.036 35.0314C203.487 24.0041 193.208 16.5362 181.933 17.5191C176.069 18.0303 170.249 16.1393 165.806 12.2792C157.262 4.85643 144.556 4.85643 136.012 12.2792Z" fill="#FCECD3" stroke="#65654B"/>
  <path d="M132.983 12.2792C128.54 16.1393 122.72 18.0303 116.856 17.5191C105.581 16.5362 95.3022 24.0041 92.7527 35.0314C91.4269 40.766 87.83 45.7168 82.7858 48.7498C73.086 54.5821 69.1599 66.6655 73.579 77.0853C75.8771 82.504 75.8771 88.6234 73.579 94.0421C69.1599 104.462 73.086 116.545 82.7858 122.378C87.83 125.411 91.4269 130.361 92.7527 136.096C95.3022 147.123 105.581 154.591 116.856 153.608C122.72 153.097 128.54 154.988 132.983 158.848C141.528 166.271 154.233 166.271 162.777 158.848C167.22 154.988 173.04 153.097 178.904 153.608C190.179 154.591 200.458 147.123 203.008 136.096C204.333 130.361 207.93 125.411 212.974 122.378C222.674 116.545 226.6 104.462 222.181 94.0421C219.883 88.6234 219.883 82.504 222.181 77.0853C226.6 66.6655 222.674 54.5821 212.974 48.7498C207.93 45.7168 204.333 40.766 203.008 35.0314C200.458 24.0041 190.179 16.5362 178.904 17.5191C173.04 18.0303 167.22 16.1393 162.777 12.2792C154.233 4.85643 141.528 4.85643 132.983 12.2792Z" fill="#FCECD3" stroke="#65654B"/>
  <path d="M129.955 12.2792C125.511 16.1393 119.691 18.0303 113.828 17.5191C102.552 16.5362 92.2737 24.0041 89.7242 35.0314C88.3984 40.766 84.8014 45.7168 79.7572 48.7498C70.0574 54.5821 66.1313 66.6655 70.5505 77.0853C72.8486 82.504 72.8486 88.6234 70.5505 94.0421C66.1313 104.462 70.0574 116.545 79.7572 122.378C84.8014 125.411 88.3984 130.361 89.7242 136.096C92.2737 147.123 102.552 154.591 113.828 153.608C119.691 153.097 125.511 154.988 129.955 158.848C138.499 166.271 151.204 166.271 159.748 158.848C164.192 154.988 170.012 153.097 175.875 153.608C187.151 154.591 197.429 147.123 199.979 136.096C201.305 130.361 204.902 125.411 209.946 122.378C219.646 116.545 223.572 104.462 219.153 94.0421C216.855 88.6234 216.855 82.504 219.153 77.0853C223.572 66.6655 219.646 54.5821 209.946 48.7498C204.902 45.7168 201.305 40.766 199.979 35.0314C197.429 24.0041 187.151 16.5362 175.875 17.5191C170.012 18.0303 164.192 16.1393 159.748 12.2792C151.204 4.85643 138.499 4.85643 129.955 12.2792Z" fill="#FCECD3" stroke="#65654B"/>
  <path d="M126.926 12.2792C122.483 16.1393 116.663 18.0303 110.799 17.5191C99.5236 16.5362 89.2448 24.0041 86.6954 35.0314C85.3696 40.766 81.7726 45.7168 76.7284 48.7498C67.0286 54.5821 63.1025 66.6655 67.5216 77.0853C69.8197 82.504 69.8197 88.6234 67.5216 94.0421C63.1025 104.462 67.0286 116.545 76.7284 122.378C81.7726 125.411 85.3696 130.361 86.6954 136.096C89.2448 147.123 99.5236 154.591 110.799 153.608C116.663 153.097 122.483 154.988 126.926 158.848C135.47 166.271 148.175 166.271 156.72 158.848C161.163 154.988 166.983 153.097 172.846 153.608C184.122 154.591 194.401 147.123 196.95 136.096C198.276 130.361 201.873 125.411 206.917 122.378C216.617 116.545 220.543 104.462 216.124 94.0421C213.826 88.6234 213.826 82.504 216.124 77.0853C220.543 66.6655 216.617 54.5821 206.917 48.7498C201.873 45.7168 198.276 40.766 196.95 35.0314C194.401 24.0041 184.122 16.5362 172.846 17.5191C166.983 18.0303 161.163 16.1393 156.72 12.2792C148.175 4.85643 135.47 4.85643 126.926 12.2792Z" fill="#FCECD3" stroke="#65654B"/>
  <path d="M123.897 12.2792C119.454 16.1393 113.634 18.0303 107.77 17.5191C96.4947 16.5362 86.216 24.0041 83.6666 35.0314C82.3407 40.766 78.7438 45.7168 73.6996 48.7498C63.9998 54.5821 60.0737 66.6655 64.4928 77.0853C66.7909 82.504 66.7909 88.6234 64.4928 94.0421C60.0737 104.462 63.9998 116.545 73.6996 122.378C78.7438 125.411 82.3407 130.361 83.6666 136.096C86.216 147.123 96.4947 154.591 107.77 153.608C113.634 153.097 119.454 154.988 123.897 158.848C132.441 166.271 145.147 166.271 153.691 158.848C158.134 154.988 163.954 153.097 169.818 153.608C181.093 154.591 191.372 147.123 193.921 136.096C195.247 130.361 198.844 125.411 203.888 122.378C213.588 116.545 217.514 104.462 213.095 94.0421C210.797 88.6234 210.797 82.504 213.095 77.0853C217.514 66.6655 213.588 54.5821 203.888 48.7498C198.844 45.7168 195.247 40.766 193.921 35.0314C191.372 24.0041 181.093 16.5362 169.818 17.5191C163.954 18.0303 158.134 16.1393 153.691 12.2792C145.147 4.85643 132.441 4.85643 123.897 12.2792Z" fill="#FCECD3" stroke="#65654B"/>
  <path d="M120.868 12.2792C116.425 16.1393 110.605 18.0303 104.741 17.5191C93.4659 16.5362 83.1872 24.0041 80.6378 35.0314C79.3119 40.766 75.715 45.7168 70.6708 48.7498C60.971 54.5821 57.0449 66.6655 61.464 77.0853C63.7621 82.504 63.7621 88.6234 61.464 94.0421C57.0449 104.462 60.971 116.545 70.6708 122.378C75.715 125.411 79.3119 130.361 80.6378 136.096C83.1872 147.123 93.4659 154.591 104.741 153.608C110.605 153.097 116.425 154.988 120.868 158.848C129.413 166.271 142.118 166.271 150.662 158.848C155.105 154.988 160.925 153.097 166.789 153.608C178.064 154.591 188.343 147.123 190.893 136.096C192.218 130.361 195.815 125.411 200.859 122.378C210.559 116.545 214.485 104.462 210.066 94.0421C207.768 88.6234 207.768 82.504 210.066 77.0853C214.485 66.6655 210.559 54.5821 200.859 48.7498C195.815 45.7168 192.218 40.766 190.893 35.0314C188.343 24.0041 178.064 16.5362 166.789 17.5191C160.925 18.0303 155.105 16.1393 150.662 12.2792C142.118 4.85643 129.413 4.85643 120.868 12.2792Z" fill="#FCECD3" stroke="#65654B"/>
  <path d="M117.839 12.2792C113.396 16.1393 107.576 18.0303 101.713 17.5191C90.4371 16.5362 80.1584 24.0041 77.6089 35.0314C76.2831 40.766 72.6862 45.7168 67.642 48.7498C57.9422 54.5821 54.0161 66.6655 58.4352 77.0853C60.7333 82.504 60.7333 88.6234 58.4352 94.0421C54.0161 104.462 57.9422 116.545 67.642 122.378C72.6862 125.411 76.2831 130.361 77.6089 136.096C80.1584 147.123 90.4371 154.591 101.713 153.608C107.576 153.097 113.396 154.988 117.839 158.848C126.384 166.271 139.089 166.271 147.633 158.848C152.077 154.988 157.896 153.097 163.76 153.608C175.036 154.591 185.314 147.123 187.864 136.096C189.19 130.361 192.786 125.411 197.831 122.378C207.53 116.545 211.457 104.462 207.037 94.0421C204.739 88.6234 204.739 82.504 207.037 77.0853C211.457 66.6655 207.53 54.5821 197.831 48.7498C192.786 45.7168 189.19 40.766 187.864 35.0314C185.314 24.0041 175.036 16.5362 163.76 17.5191C157.896 18.0303 152.077 16.1393 147.633 12.2792C139.089 4.85643 126.384 4.85643 117.839 12.2792Z" fill="#FCECD3" stroke="#65654B"/>
  <path d="M114.811 12.2792C110.368 16.1393 104.548 18.0303 98.684 17.5191C87.4086 16.5362 77.1299 24.0041 74.5804 35.0314C73.2546 40.766 69.6576 45.7168 64.6134 48.7498C54.9136 54.5821 50.9875 66.6655 55.4067 77.0853C57.7048 82.504 57.7048 88.6234 55.4067 94.0421C50.9875 104.462 54.9136 116.545 64.6134 122.378C69.6576 125.411 73.2546 130.361 74.5804 136.096C77.1299 147.123 87.4086 154.591 98.684 153.608C104.548 153.097 110.368 154.988 114.811 158.848C123.355 166.271 136.06 166.271 144.605 158.848C149.048 154.988 154.868 153.097 160.732 153.608C172.007 154.591 182.286 147.123 184.835 136.096C186.161 130.361 189.758 125.411 194.802 122.378C204.502 116.545 208.428 104.462 204.009 94.0421C201.711 88.6234 201.711 82.504 204.009 77.0853C208.428 66.6655 204.502 54.5821 194.802 48.7498C189.758 45.7168 186.161 40.766 184.835 35.0314C182.286 24.0041 172.007 16.5362 160.732 17.5191C154.868 18.0303 149.048 16.1393 144.605 12.2792C136.06 4.85643 123.355 4.85643 114.811 12.2792Z" fill="#FCECD3" stroke="#65654B"/>
  <path d="M111.782 12.2792C107.339 16.1393 101.519 18.0303 95.6552 17.5191C84.3798 16.5362 74.101 24.0041 71.5516 35.0314C70.2258 40.766 66.6288 45.7168 61.5846 48.7498C51.8848 54.5821 47.9587 66.6655 52.3778 77.0853C54.6759 82.504 54.6759 88.6234 52.3778 94.0421C47.9587 104.462 51.8848 116.545 61.5846 122.378C66.6288 125.411 70.2258 130.361 71.5516 136.096C74.101 147.123 84.3798 154.591 95.6552 153.608C101.519 153.097 107.339 154.988 111.782 158.848C120.326 166.271 133.032 166.271 141.576 158.848C146.019 154.988 151.839 153.097 157.703 153.608C168.978 154.591 179.257 147.123 181.806 136.096C183.132 130.361 186.729 125.411 191.773 122.378C201.473 116.545 205.399 104.462 200.98 94.0421C198.682 88.6234 198.682 82.504 200.98 77.0853C205.399 66.6655 201.473 54.5821 191.773 48.7498C186.729 45.7168 183.132 40.766 181.806 35.0314C179.257 24.0041 168.978 16.5362 157.703 17.5191C151.839 18.0303 146.019 16.1393 141.576 12.2792C133.032 4.85643 120.326 4.85643 111.782 12.2792Z" fill="#FCECD3" stroke="#65654B"/>
  <path d="M108.753 12.2792C104.31 16.1393 98.49 18.0303 92.6264 17.5191C81.3509 16.5362 71.0722 24.0041 68.5228 35.0314C67.1969 40.766 63.6 45.7168 58.5558 48.7498C48.856 54.5821 44.9299 66.6655 49.349 77.0853C51.6471 82.504 51.6471 88.6234 49.349 94.0421C44.9299 104.462 48.856 116.545 58.5558 122.378C63.6 125.411 67.1969 130.361 68.5228 136.096C71.0722 147.123 81.3509 154.591 92.6264 153.608C98.49 153.097 104.31 154.988 108.753 158.848C117.298 166.271 130.003 166.271 138.547 158.848C142.99 154.988 148.81 153.097 154.674 153.608C165.949 154.591 176.228 147.123 178.778 136.096C180.103 130.361 183.7 125.411 188.744 122.378C198.444 116.545 202.37 104.462 197.951 94.0421C195.653 88.6234 195.653 82.504 197.951 77.0853C202.37 66.6655 198.444 54.5821 188.744 48.7498C183.7 45.7168 180.103 40.766 178.778 35.0314C176.228 24.0041 165.949 16.5362 154.674 17.5191C148.81 18.0303 142.99 16.1393 138.547 12.2792C130.003 4.85643 117.298 4.85643 108.753 12.2792Z" fill="#FCECD3" stroke="#65654B"/>
  <path d="M105.724 12.2792C101.281 16.1393 95.4612 18.0303 89.5976 17.5191C78.3221 16.5362 68.0434 24.0041 65.494 35.0314C64.1681 40.766 60.5712 45.7168 55.527 48.7498C45.8272 54.5821 41.9011 66.6655 46.3202 77.0853C48.6183 82.504 48.6183 88.6234 46.3202 94.0421C41.9011 104.462 45.8272 116.545 55.527 122.378C60.5712 125.411 64.1681 130.361 65.494 136.096C68.0434 147.123 78.3221 154.591 89.5976 153.608C95.4612 153.097 101.281 154.988 105.724 158.848C114.269 166.271 126.974 166.271 135.518 158.848C139.962 154.988 145.781 153.097 151.645 153.608C162.921 154.591 173.199 147.123 175.749 136.096C177.075 130.361 180.671 125.411 185.716 122.378C195.415 116.545 199.342 104.462 194.922 94.0421C192.624 88.6234 192.624 82.504 194.922 77.0853C199.342 66.6655 195.415 54.5821 185.716 48.7498C180.671 45.7168 177.075 40.766 175.749 35.0314C173.199 24.0041 162.921 16.5362 151.645 17.5191C145.781 18.0303 139.962 16.1393 135.518 12.2792C126.974 4.85643 114.269 4.85643 105.724 12.2792Z" fill="#FCECD3" stroke="#65654B"/>
  <path d="M102.696 12.2792C98.2523 16.1393 92.4324 18.0303 86.5688 17.5191C75.2933 16.5362 65.0146 24.0041 62.4651 35.0314C61.1393 40.766 57.5424 45.7168 52.4982 48.7498C42.7984 54.5821 38.8723 66.6655 43.2914 77.0853C45.5895 82.504 45.5895 88.6234 43.2914 94.0421C38.8723 104.462 42.7984 116.545 52.4982 122.378C57.5424 125.411 61.1393 130.361 62.4651 136.096C65.0146 147.123 75.2933 154.591 86.5688 153.608C92.4324 153.097 98.2523 154.988 102.696 158.848C111.24 166.271 123.945 166.271 132.489 158.848C136.933 154.988 142.753 153.097 148.616 153.608C159.892 154.591 170.17 147.123 172.72 136.096C174.046 130.361 177.643 125.411 182.687 122.378C192.387 116.545 196.313 104.462 191.894 94.0421C189.596 88.6234 189.596 82.504 191.894 77.0853C196.313 66.6655 192.387 54.5821 182.687 48.7498C177.643 45.7168 174.046 40.766 172.72 35.0314C170.17 24.0041 159.892 16.5362 148.616 17.5191C142.753 18.0303 136.933 16.1393 132.489 12.2792C123.945 4.85643 111.24 4.85643 102.696 12.2792Z" fill="#FCECD3" stroke="#65654B"/>
  <path d="M99.6669 12.2792C95.2235 16.1393 89.4036 18.0303 83.54 17.5191C72.2645 16.5362 61.9858 24.0041 59.4363 35.0314C58.1105 40.766 54.5136 45.7168 49.4694 48.7498C39.7696 54.5821 35.8435 66.6655 40.2626 77.0853C42.5607 82.504 42.5607 88.6234 40.2626 94.0421C35.8435 104.462 39.7696 116.545 49.4694 122.378C54.5136 125.411 58.1105 130.361 59.4363 136.096C61.9858 147.123 72.2645 154.591 83.54 153.608C89.4036 153.097 95.2235 154.988 99.6669 158.848C108.211 166.271 120.916 166.271 129.461 158.848C133.904 154.988 139.724 153.097 145.587 153.608C156.863 154.591 167.142 147.123 169.691 136.096C171.017 130.361 174.614 125.411 179.658 122.378C189.358 116.545 193.284 104.462 188.865 94.0421C186.567 88.6234 186.567 82.504 188.865 77.0853C193.284 66.6655 189.358 54.5821 179.658 48.7498C174.614 45.7168 171.017 40.766 169.691 35.0314C167.142 24.0041 156.863 16.5362 145.587 17.5191C139.724 18.0303 133.904 16.1393 129.461 12.2792C120.916 4.85643 108.211 4.85643 99.6669 12.2792Z" fill="#FCECD3" stroke="#65654B"/>
  </g>
  <defs>
  <clipPath id="clip0_19_71">
  <rect width="129" height="171" fill="white" transform="translate(129 171) rotate(-180)"/>
  </clipPath>
  <clipPath id="clip1_19_71">
  <rect width="129" height="171" fill="white" transform="translate(129)"/>
  </clipPath>
  </defs>
  </svg>
  